%TF.GenerationSoftware,KiCad,Pcbnew,8.0.0*%
%TF.CreationDate,2024-04-09T16:16:32+09:00*%
%TF.ProjectId,240325_ESP32_d0146,32343033-3235-45f4-9553-5033325f6430,rev?*%
%TF.SameCoordinates,Original*%
%TF.FileFunction,Copper,L2,Bot*%
%TF.FilePolarity,Positive*%
%FSLAX46Y46*%
G04 Gerber Fmt 4.6, Leading zero omitted, Abs format (unit mm)*
G04 Created by KiCad (PCBNEW 8.0.0) date 2024-04-09 16:16:32*
%MOMM*%
%LPD*%
G01*
G04 APERTURE LIST*
%TA.AperFunction,ComponentPad*%
%ADD10R,1.700000X1.700000*%
%TD*%
%TA.AperFunction,ComponentPad*%
%ADD11O,1.700000X1.700000*%
%TD*%
%TA.AperFunction,ComponentPad*%
%ADD12O,1.800000X1.150000*%
%TD*%
%TA.AperFunction,ComponentPad*%
%ADD13O,2.000000X1.450000*%
%TD*%
%TA.AperFunction,ViaPad*%
%ADD14C,0.600000*%
%TD*%
%TA.AperFunction,Conductor*%
%ADD15C,0.500000*%
%TD*%
%TA.AperFunction,Conductor*%
%ADD16C,0.300000*%
%TD*%
G04 APERTURE END LIST*
D10*
%TO.P,J2,1,Pin_1*%
%TO.N,+3.3V*%
X101750000Y-57650000D03*
D11*
%TO.P,J2,2,Pin_2*%
%TO.N,/USART1_TX*%
X99210000Y-57650000D03*
%TO.P,J2,3,Pin_3*%
%TO.N,/USART1_RX*%
X96670000Y-57650000D03*
%TO.P,J2,4,Pin_4*%
%TO.N,GND*%
X94130000Y-57650000D03*
%TD*%
D12*
%TO.P,J1,6,Shield*%
%TO.N,unconnected-(J1-Shield-Pad6)_2*%
X123750000Y-74800000D03*
D13*
%TO.N,unconnected-(J1-Shield-Pad6)*%
X119950000Y-74650000D03*
%TO.N,unconnected-(J1-Shield-Pad6)_1*%
X119950000Y-67200000D03*
D12*
%TO.N,unconnected-(J1-Shield-Pad6)_0*%
X123750000Y-67050000D03*
%TD*%
D10*
%TO.P,J4,1,Pin_1*%
%TO.N,+3.3V*%
X98380000Y-84000000D03*
D11*
%TO.P,J4,2,Pin_2*%
%TO.N,/I2C2_SCL*%
X100920000Y-84000000D03*
%TO.P,J4,3,Pin_3*%
%TO.N,/I2C2_SDA*%
X103460000Y-84000000D03*
%TO.P,J4,4,Pin_4*%
%TO.N,GND*%
X106000000Y-84000000D03*
%TD*%
D10*
%TO.P,J3,1,Pin_1*%
%TO.N,+3.3V*%
X117040000Y-57750000D03*
D11*
%TO.P,J3,2,Pin_2*%
%TO.N,/SWDIO*%
X114500000Y-57750000D03*
%TO.P,J3,3,Pin_3*%
%TO.N,/SWCLK*%
X111960000Y-57750000D03*
%TO.P,J3,4,Pin_4*%
%TO.N,GND*%
X109420000Y-57750000D03*
%TD*%
D14*
%TO.N,GND*%
X118500000Y-69625000D03*
X89850000Y-62225000D03*
X109900000Y-70225000D03*
%TO.N,+3.3V*%
X121865152Y-75680043D03*
X122875000Y-78200000D03*
%TO.N,GND*%
X100500000Y-69700000D03*
X96300000Y-71375000D03*
X95300000Y-68600000D03*
X93675000Y-68150000D03*
X91975000Y-73625000D03*
X95425000Y-75425000D03*
X95425000Y-79500000D03*
%TO.N,+3.3V*%
X98750000Y-82175000D03*
X101675000Y-82175000D03*
X104700000Y-79925000D03*
X103050000Y-79925000D03*
%TO.N,GND*%
X100075000Y-73175000D03*
X115100000Y-74525000D03*
X114600000Y-78425000D03*
X96800000Y-67475000D03*
X115100000Y-73775000D03*
X105000000Y-75050000D03*
X101675000Y-78500000D03*
X115400000Y-78400000D03*
X118925000Y-78150000D03*
X123000000Y-76500000D03*
%TD*%
D15*
%TO.N,+3.3V*%
X122875000Y-78200000D02*
X121865152Y-77190152D01*
X121865152Y-77190152D02*
X121865152Y-75680043D01*
D16*
X101675000Y-82175000D02*
X98750000Y-82175000D01*
X104700000Y-79925000D02*
X103050000Y-79925000D01*
%TD*%
%TA.AperFunction,Conductor*%
%TO.N,GND*%
G36*
X123250855Y-55250011D02*
G01*
X123412269Y-55252274D01*
X123424390Y-55253041D01*
X123728553Y-55287312D01*
X123745992Y-55289277D01*
X123759700Y-55291606D01*
X124074366Y-55363426D01*
X124087725Y-55367273D01*
X124392392Y-55473881D01*
X124405228Y-55479199D01*
X124696025Y-55619239D01*
X124708195Y-55625965D01*
X124981486Y-55797685D01*
X124992827Y-55805732D01*
X125245173Y-56006971D01*
X125255541Y-56016237D01*
X125483762Y-56244458D01*
X125493028Y-56254826D01*
X125694267Y-56507172D01*
X125702314Y-56518513D01*
X125874034Y-56791804D01*
X125880760Y-56803974D01*
X126020798Y-57094766D01*
X126026120Y-57107613D01*
X126132724Y-57412270D01*
X126136573Y-57425633D01*
X126208393Y-57740299D01*
X126210722Y-57754007D01*
X126246957Y-58075597D01*
X126247725Y-58087743D01*
X126249988Y-58249144D01*
X126250000Y-58250882D01*
X126250000Y-83249117D01*
X126249988Y-83250855D01*
X126247725Y-83412256D01*
X126246957Y-83424402D01*
X126210722Y-83745992D01*
X126208393Y-83759700D01*
X126136573Y-84074366D01*
X126132724Y-84087729D01*
X126026120Y-84392386D01*
X126020798Y-84405233D01*
X125880760Y-84696025D01*
X125874034Y-84708195D01*
X125702314Y-84981486D01*
X125694267Y-84992827D01*
X125493028Y-85245173D01*
X125483762Y-85255541D01*
X125255541Y-85483762D01*
X125245173Y-85493028D01*
X124992827Y-85694267D01*
X124981486Y-85702314D01*
X124708195Y-85874034D01*
X124696025Y-85880760D01*
X124405233Y-86020798D01*
X124392386Y-86026120D01*
X124087729Y-86132724D01*
X124074366Y-86136573D01*
X123759700Y-86208393D01*
X123745992Y-86210722D01*
X123424402Y-86246957D01*
X123412256Y-86247725D01*
X123250856Y-86249988D01*
X123249118Y-86250000D01*
X88250882Y-86250000D01*
X88249144Y-86249988D01*
X88087743Y-86247725D01*
X88075597Y-86246957D01*
X87754007Y-86210722D01*
X87740299Y-86208393D01*
X87425633Y-86136573D01*
X87412270Y-86132724D01*
X87107613Y-86026120D01*
X87094766Y-86020798D01*
X86803974Y-85880760D01*
X86791804Y-85874034D01*
X86518513Y-85702314D01*
X86507172Y-85694267D01*
X86254826Y-85493028D01*
X86244458Y-85483762D01*
X86016237Y-85255541D01*
X86006971Y-85245173D01*
X85805730Y-84992824D01*
X85797685Y-84981486D01*
X85759046Y-84919993D01*
X85743251Y-84894856D01*
X97229500Y-84894856D01*
X97229502Y-84894882D01*
X97232413Y-84919987D01*
X97232415Y-84919991D01*
X97277793Y-85022764D01*
X97277794Y-85022765D01*
X97357235Y-85102206D01*
X97460009Y-85147585D01*
X97485135Y-85150500D01*
X99274864Y-85150499D01*
X99274879Y-85150497D01*
X99274882Y-85150497D01*
X99299987Y-85147586D01*
X99299988Y-85147585D01*
X99299991Y-85147585D01*
X99402765Y-85102206D01*
X99482206Y-85022765D01*
X99527585Y-84919991D01*
X99530500Y-84894865D01*
X99530499Y-84156046D01*
X99550183Y-84089009D01*
X99602987Y-84043254D01*
X99672146Y-84033310D01*
X99735702Y-84062335D01*
X99773476Y-84121113D01*
X99777970Y-84144606D01*
X99782454Y-84192993D01*
X99784244Y-84212310D01*
X99837675Y-84400099D01*
X99842596Y-84417392D01*
X99842596Y-84417394D01*
X99937632Y-84608253D01*
X100003915Y-84696025D01*
X100066128Y-84778407D01*
X100223698Y-84922052D01*
X100404981Y-85034298D01*
X100603802Y-85111321D01*
X100813390Y-85150500D01*
X100813392Y-85150500D01*
X101026608Y-85150500D01*
X101026610Y-85150500D01*
X101236198Y-85111321D01*
X101435019Y-85034298D01*
X101616302Y-84922052D01*
X101773872Y-84778407D01*
X101902366Y-84608255D01*
X101956270Y-84500000D01*
X101997403Y-84417394D01*
X101997403Y-84417393D01*
X101997405Y-84417389D01*
X102055756Y-84212310D01*
X102066529Y-84096047D01*
X102092315Y-84031111D01*
X102134622Y-84000804D01*
X102243130Y-84000804D01*
X102279503Y-84021668D01*
X102311693Y-84083681D01*
X102313470Y-84096047D01*
X102324244Y-84212310D01*
X102377675Y-84400099D01*
X102382596Y-84417392D01*
X102382596Y-84417394D01*
X102477632Y-84608253D01*
X102543915Y-84696025D01*
X102606128Y-84778407D01*
X102763698Y-84922052D01*
X102944981Y-85034298D01*
X103143802Y-85111321D01*
X103353390Y-85150500D01*
X103353392Y-85150500D01*
X103566608Y-85150500D01*
X103566610Y-85150500D01*
X103776198Y-85111321D01*
X103975019Y-85034298D01*
X104156302Y-84922052D01*
X104313872Y-84778407D01*
X104442366Y-84608255D01*
X104509325Y-84473781D01*
X104556825Y-84422548D01*
X104624488Y-84405126D01*
X104690828Y-84427051D01*
X104732705Y-84476651D01*
X104826399Y-84677578D01*
X104961894Y-84871082D01*
X105128917Y-85038105D01*
X105322421Y-85173600D01*
X105536507Y-85273429D01*
X105536516Y-85273433D01*
X105750000Y-85330634D01*
X105750000Y-84433012D01*
X105807007Y-84465925D01*
X105934174Y-84500000D01*
X106065826Y-84500000D01*
X106192993Y-84465925D01*
X106250000Y-84433012D01*
X106250000Y-85330633D01*
X106463483Y-85273433D01*
X106463492Y-85273429D01*
X106677578Y-85173600D01*
X106871082Y-85038105D01*
X107038105Y-84871082D01*
X107173600Y-84677578D01*
X107273429Y-84463492D01*
X107273432Y-84463486D01*
X107330636Y-84250000D01*
X106433012Y-84250000D01*
X106465925Y-84192993D01*
X106500000Y-84065826D01*
X106500000Y-83934174D01*
X106465925Y-83807007D01*
X106433012Y-83750000D01*
X107330636Y-83750000D01*
X107330635Y-83749999D01*
X107273432Y-83536513D01*
X107273429Y-83536507D01*
X107187556Y-83352351D01*
X121949500Y-83352351D01*
X121981522Y-83554534D01*
X122044781Y-83749223D01*
X122093049Y-83843952D01*
X122136776Y-83929772D01*
X122137715Y-83931613D01*
X122258028Y-84097213D01*
X122402786Y-84241971D01*
X122557749Y-84354556D01*
X122568390Y-84362287D01*
X122684607Y-84421503D01*
X122750776Y-84455218D01*
X122750778Y-84455218D01*
X122750781Y-84455220D01*
X122816739Y-84476651D01*
X122945465Y-84518477D01*
X123046557Y-84534488D01*
X123147648Y-84550500D01*
X123147649Y-84550500D01*
X123352351Y-84550500D01*
X123352352Y-84550500D01*
X123554534Y-84518477D01*
X123749219Y-84455220D01*
X123931610Y-84362287D01*
X124024590Y-84294732D01*
X124097213Y-84241971D01*
X124097215Y-84241968D01*
X124097219Y-84241966D01*
X124241966Y-84097219D01*
X124241968Y-84097215D01*
X124241971Y-84097213D01*
X124335203Y-83968888D01*
X124362287Y-83931610D01*
X124455220Y-83749219D01*
X124518477Y-83554534D01*
X124550500Y-83352352D01*
X124550500Y-83147648D01*
X124543767Y-83105136D01*
X124518477Y-82945465D01*
X124461610Y-82770447D01*
X124455220Y-82750781D01*
X124455218Y-82750778D01*
X124455218Y-82750776D01*
X124401416Y-82645185D01*
X124362287Y-82568390D01*
X124354556Y-82557749D01*
X124241971Y-82402786D01*
X124097213Y-82258028D01*
X123931613Y-82137715D01*
X123931612Y-82137714D01*
X123931610Y-82137713D01*
X123874653Y-82108691D01*
X123749223Y-82044781D01*
X123554534Y-81981522D01*
X123379995Y-81953878D01*
X123352352Y-81949500D01*
X123147648Y-81949500D01*
X123123329Y-81953351D01*
X122945465Y-81981522D01*
X122750776Y-82044781D01*
X122568386Y-82137715D01*
X122402786Y-82258028D01*
X122258028Y-82402786D01*
X122137715Y-82568386D01*
X122044781Y-82750776D01*
X121981522Y-82945465D01*
X121949500Y-83147648D01*
X121949500Y-83352351D01*
X107187556Y-83352351D01*
X107173600Y-83322422D01*
X107173599Y-83322420D01*
X107038113Y-83128926D01*
X107038108Y-83128920D01*
X106871082Y-82961894D01*
X106677578Y-82826399D01*
X106463492Y-82726570D01*
X106463486Y-82726567D01*
X106250000Y-82669364D01*
X106250000Y-83566988D01*
X106192993Y-83534075D01*
X106065826Y-83500000D01*
X105934174Y-83500000D01*
X105807007Y-83534075D01*
X105750000Y-83566988D01*
X105750000Y-82669364D01*
X105749999Y-82669364D01*
X105536513Y-82726567D01*
X105536507Y-82726570D01*
X105322422Y-82826399D01*
X105322420Y-82826400D01*
X105128926Y-82961886D01*
X105128920Y-82961891D01*
X104961891Y-83128920D01*
X104961886Y-83128926D01*
X104826400Y-83322420D01*
X104826399Y-83322422D01*
X104732705Y-83523348D01*
X104686532Y-83575787D01*
X104619339Y-83594939D01*
X104552457Y-83574723D01*
X104509324Y-83526216D01*
X104442366Y-83391745D01*
X104313872Y-83221593D01*
X104156302Y-83077948D01*
X103975019Y-82965702D01*
X103975017Y-82965701D01*
X103875608Y-82927190D01*
X103776198Y-82888679D01*
X103566610Y-82849500D01*
X103353390Y-82849500D01*
X103143802Y-82888679D01*
X103143799Y-82888679D01*
X103143799Y-82888680D01*
X102944982Y-82965701D01*
X102944980Y-82965702D01*
X102763699Y-83077947D01*
X102606127Y-83221593D01*
X102477632Y-83391746D01*
X102382596Y-83582605D01*
X102382596Y-83582607D01*
X102324244Y-83787689D01*
X102313471Y-83903951D01*
X102287685Y-83968888D01*
X102243130Y-84000804D01*
X102134622Y-84000804D01*
X102136869Y-83999194D01*
X102100497Y-83978331D01*
X102068307Y-83916318D01*
X102066529Y-83903951D01*
X102063175Y-83867759D01*
X102055756Y-83787690D01*
X101997405Y-83582611D01*
X101997403Y-83582606D01*
X101997403Y-83582605D01*
X101902367Y-83391746D01*
X101773872Y-83221593D01*
X101616302Y-83077948D01*
X101481121Y-82994247D01*
X101434487Y-82942220D01*
X101423383Y-82873238D01*
X101451336Y-82809204D01*
X101509472Y-82770447D01*
X101562583Y-82765882D01*
X101675000Y-82780682D01*
X101675001Y-82780682D01*
X101727254Y-82773802D01*
X101831762Y-82760044D01*
X101977841Y-82699536D01*
X102103282Y-82603282D01*
X102199536Y-82477841D01*
X102260044Y-82331762D01*
X102280682Y-82175000D01*
X102275773Y-82137715D01*
X102260044Y-82018239D01*
X102260044Y-82018238D01*
X102199536Y-81872159D01*
X102103282Y-81746718D01*
X101977841Y-81650464D01*
X101831762Y-81589956D01*
X101831760Y-81589955D01*
X101675001Y-81569318D01*
X101674999Y-81569318D01*
X101518239Y-81589955D01*
X101518237Y-81589956D01*
X101372157Y-81650464D01*
X101309067Y-81698876D01*
X101243898Y-81724070D01*
X101233581Y-81724500D01*
X99191419Y-81724500D01*
X99124380Y-81704815D01*
X99115933Y-81698876D01*
X99052842Y-81650464D01*
X98906762Y-81589956D01*
X98906760Y-81589955D01*
X98750001Y-81569318D01*
X98749999Y-81569318D01*
X98593239Y-81589955D01*
X98593237Y-81589956D01*
X98447160Y-81650463D01*
X98321718Y-81746718D01*
X98225463Y-81872160D01*
X98164956Y-82018237D01*
X98164955Y-82018239D01*
X98144318Y-82174998D01*
X98144318Y-82175001D01*
X98164955Y-82331760D01*
X98164956Y-82331762D01*
X98225464Y-82477841D01*
X98321718Y-82603282D01*
X98350673Y-82625500D01*
X98352790Y-82627124D01*
X98393993Y-82683552D01*
X98398148Y-82753298D01*
X98363936Y-82814218D01*
X98302219Y-82846971D01*
X98277304Y-82849500D01*
X97485143Y-82849500D01*
X97485117Y-82849502D01*
X97460012Y-82852413D01*
X97460008Y-82852415D01*
X97357235Y-82897793D01*
X97277794Y-82977234D01*
X97232415Y-83080006D01*
X97232415Y-83080008D01*
X97229500Y-83105131D01*
X97229500Y-84894856D01*
X85743251Y-84894856D01*
X85625964Y-84708193D01*
X85619239Y-84696025D01*
X85479199Y-84405228D01*
X85473879Y-84392386D01*
X85367275Y-84087729D01*
X85363426Y-84074366D01*
X85291606Y-83759700D01*
X85289277Y-83745992D01*
X85270868Y-83582607D01*
X85253041Y-83424390D01*
X85252274Y-83412269D01*
X85251434Y-83352351D01*
X86949500Y-83352351D01*
X86981522Y-83554534D01*
X87044781Y-83749223D01*
X87093049Y-83843952D01*
X87136776Y-83929772D01*
X87137715Y-83931613D01*
X87258028Y-84097213D01*
X87402786Y-84241971D01*
X87557749Y-84354556D01*
X87568390Y-84362287D01*
X87684607Y-84421503D01*
X87750776Y-84455218D01*
X87750778Y-84455218D01*
X87750781Y-84455220D01*
X87816739Y-84476651D01*
X87945465Y-84518477D01*
X88046557Y-84534488D01*
X88147648Y-84550500D01*
X88147649Y-84550500D01*
X88352351Y-84550500D01*
X88352352Y-84550500D01*
X88554534Y-84518477D01*
X88749219Y-84455220D01*
X88931610Y-84362287D01*
X89024590Y-84294732D01*
X89097213Y-84241971D01*
X89097215Y-84241968D01*
X89097219Y-84241966D01*
X89241966Y-84097219D01*
X89241968Y-84097215D01*
X89241971Y-84097213D01*
X89335203Y-83968888D01*
X89362287Y-83931610D01*
X89455220Y-83749219D01*
X89518477Y-83554534D01*
X89550500Y-83352352D01*
X89550500Y-83147648D01*
X89543767Y-83105136D01*
X89518477Y-82945465D01*
X89461610Y-82770447D01*
X89455220Y-82750781D01*
X89455218Y-82750778D01*
X89455218Y-82750776D01*
X89401416Y-82645185D01*
X89362287Y-82568390D01*
X89354556Y-82557749D01*
X89241971Y-82402786D01*
X89097213Y-82258028D01*
X88931613Y-82137715D01*
X88931612Y-82137714D01*
X88931610Y-82137713D01*
X88874653Y-82108691D01*
X88749223Y-82044781D01*
X88554534Y-81981522D01*
X88379995Y-81953878D01*
X88352352Y-81949500D01*
X88147648Y-81949500D01*
X88123329Y-81953351D01*
X87945465Y-81981522D01*
X87750776Y-82044781D01*
X87568386Y-82137715D01*
X87402786Y-82258028D01*
X87258028Y-82402786D01*
X87137715Y-82568386D01*
X87044781Y-82750776D01*
X86981522Y-82945465D01*
X86949500Y-83147648D01*
X86949500Y-83352351D01*
X85251434Y-83352351D01*
X85250012Y-83250855D01*
X85250000Y-83249117D01*
X85250000Y-79925001D01*
X102444318Y-79925001D01*
X102464955Y-80081760D01*
X102464956Y-80081762D01*
X102525464Y-80227841D01*
X102621718Y-80353282D01*
X102747159Y-80449536D01*
X102893238Y-80510044D01*
X102971619Y-80520363D01*
X103049999Y-80530682D01*
X103050000Y-80530682D01*
X103050001Y-80530682D01*
X103102254Y-80523802D01*
X103206762Y-80510044D01*
X103352841Y-80449536D01*
X103415933Y-80401123D01*
X103481102Y-80375930D01*
X103491419Y-80375500D01*
X104258581Y-80375500D01*
X104325620Y-80395185D01*
X104334067Y-80401124D01*
X104397157Y-80449535D01*
X104397158Y-80449535D01*
X104397159Y-80449536D01*
X104543238Y-80510044D01*
X104621619Y-80520363D01*
X104699999Y-80530682D01*
X104700000Y-80530682D01*
X104700001Y-80530682D01*
X104752254Y-80523802D01*
X104856762Y-80510044D01*
X105002841Y-80449536D01*
X105128282Y-80353282D01*
X105224536Y-80227841D01*
X105285044Y-80081762D01*
X105305682Y-79925000D01*
X105285044Y-79768238D01*
X105224536Y-79622159D01*
X105128282Y-79496718D01*
X105002841Y-79400464D01*
X104856762Y-79339956D01*
X104856760Y-79339955D01*
X104700001Y-79319318D01*
X104699999Y-79319318D01*
X104543239Y-79339955D01*
X104543237Y-79339956D01*
X104397157Y-79400464D01*
X104334067Y-79448876D01*
X104268898Y-79474070D01*
X104258581Y-79474500D01*
X103491419Y-79474500D01*
X103424380Y-79454815D01*
X103415933Y-79448876D01*
X103352842Y-79400464D01*
X103206762Y-79339956D01*
X103206760Y-79339955D01*
X103050001Y-79319318D01*
X103049999Y-79319318D01*
X102893239Y-79339955D01*
X102893237Y-79339956D01*
X102747160Y-79400463D01*
X102621718Y-79496718D01*
X102525463Y-79622160D01*
X102464956Y-79768237D01*
X102464955Y-79768239D01*
X102444318Y-79924998D01*
X102444318Y-79925001D01*
X85250000Y-79925001D01*
X85250000Y-75680044D01*
X121259470Y-75680044D01*
X121280107Y-75836803D01*
X121280108Y-75836805D01*
X121305213Y-75897413D01*
X121314652Y-75944866D01*
X121314652Y-77117678D01*
X121314652Y-77262626D01*
X121352168Y-77402637D01*
X121424641Y-77528165D01*
X121424643Y-77528168D01*
X122298478Y-78402003D01*
X122325358Y-78442231D01*
X122350462Y-78502838D01*
X122350463Y-78502839D01*
X122350464Y-78502841D01*
X122446718Y-78628282D01*
X122572159Y-78724536D01*
X122718238Y-78785044D01*
X122796619Y-78795363D01*
X122874999Y-78805682D01*
X122875000Y-78805682D01*
X122875001Y-78805682D01*
X122927254Y-78798802D01*
X123031762Y-78785044D01*
X123177841Y-78724536D01*
X123303282Y-78628282D01*
X123399536Y-78502841D01*
X123460044Y-78356762D01*
X123480682Y-78200000D01*
X123460044Y-78043238D01*
X123399536Y-77897159D01*
X123303282Y-77771718D01*
X123303280Y-77771717D01*
X123303280Y-77771716D01*
X123265242Y-77742529D01*
X123177841Y-77675464D01*
X123177837Y-77675462D01*
X123177838Y-77675462D01*
X123117231Y-77650358D01*
X123077003Y-77623478D01*
X122451971Y-76998446D01*
X122418486Y-76937123D01*
X122415652Y-76910765D01*
X122415652Y-75944866D01*
X122425091Y-75897413D01*
X122450196Y-75836805D01*
X122470834Y-75680043D01*
X122465806Y-75641855D01*
X122450196Y-75523282D01*
X122450196Y-75523281D01*
X122389688Y-75377202D01*
X122293434Y-75251761D01*
X122167993Y-75155507D01*
X122120324Y-75135762D01*
X122021914Y-75094999D01*
X122021912Y-75094998D01*
X121865153Y-75074361D01*
X121865151Y-75074361D01*
X121708391Y-75094998D01*
X121708389Y-75094999D01*
X121562312Y-75155506D01*
X121436870Y-75251761D01*
X121340615Y-75377203D01*
X121280108Y-75523280D01*
X121280107Y-75523282D01*
X121259470Y-75680041D01*
X121259470Y-75680044D01*
X85250000Y-75680044D01*
X85250000Y-74751007D01*
X118649500Y-74751007D01*
X118688907Y-74949119D01*
X118688909Y-74949127D01*
X118766212Y-75135752D01*
X118766217Y-75135762D01*
X118878441Y-75303718D01*
X119021281Y-75446558D01*
X119189237Y-75558782D01*
X119189241Y-75558784D01*
X119189244Y-75558786D01*
X119375873Y-75636091D01*
X119573992Y-75675499D01*
X119573996Y-75675500D01*
X119573997Y-75675500D01*
X120326004Y-75675500D01*
X120326005Y-75675499D01*
X120524127Y-75636091D01*
X120710756Y-75558786D01*
X120878718Y-75446558D01*
X121021558Y-75303718D01*
X121133786Y-75135756D01*
X121211091Y-74949127D01*
X121223601Y-74886233D01*
X122549500Y-74886233D01*
X122583143Y-75055366D01*
X122583146Y-75055378D01*
X122649138Y-75214698D01*
X122649145Y-75214711D01*
X122744954Y-75358098D01*
X122744957Y-75358102D01*
X122866897Y-75480042D01*
X122866901Y-75480045D01*
X123010288Y-75575854D01*
X123010301Y-75575861D01*
X123155708Y-75636090D01*
X123169626Y-75641855D01*
X123338766Y-75675499D01*
X123338769Y-75675500D01*
X123338771Y-75675500D01*
X124161231Y-75675500D01*
X124161232Y-75675499D01*
X124330374Y-75641855D01*
X124489705Y-75575858D01*
X124633099Y-75480045D01*
X124755045Y-75358099D01*
X124850858Y-75214705D01*
X124916855Y-75055374D01*
X124950500Y-74886229D01*
X124950500Y-74713771D01*
X124950500Y-74713768D01*
X124950499Y-74713766D01*
X124916856Y-74544633D01*
X124916855Y-74544626D01*
X124916853Y-74544621D01*
X124850861Y-74385301D01*
X124850854Y-74385288D01*
X124755045Y-74241901D01*
X124755042Y-74241897D01*
X124633102Y-74119957D01*
X124633098Y-74119954D01*
X124489711Y-74024145D01*
X124489698Y-74024138D01*
X124330378Y-73958146D01*
X124330366Y-73958143D01*
X124161232Y-73924500D01*
X124161229Y-73924500D01*
X123338771Y-73924500D01*
X123338768Y-73924500D01*
X123169633Y-73958143D01*
X123169621Y-73958146D01*
X123010301Y-74024138D01*
X123010288Y-74024145D01*
X122866901Y-74119954D01*
X122866897Y-74119957D01*
X122744957Y-74241897D01*
X122744954Y-74241901D01*
X122649145Y-74385288D01*
X122649138Y-74385301D01*
X122583146Y-74544621D01*
X122583143Y-74544633D01*
X122549500Y-74713766D01*
X122549500Y-74886233D01*
X121223601Y-74886233D01*
X121250500Y-74751003D01*
X121250500Y-74548997D01*
X121211091Y-74350873D01*
X121169932Y-74251507D01*
X121162463Y-74182037D01*
X121193738Y-74119558D01*
X121244060Y-74089700D01*
X121243207Y-74087452D01*
X121250222Y-74084790D01*
X121250225Y-74084790D01*
X121400852Y-74005734D01*
X121528183Y-73892929D01*
X121624818Y-73752930D01*
X121685140Y-73593872D01*
X121705645Y-73425000D01*
X121685140Y-73256128D01*
X121624818Y-73097070D01*
X121528183Y-72957071D01*
X121400852Y-72844266D01*
X121400849Y-72844263D01*
X121250226Y-72765210D01*
X121085056Y-72724500D01*
X120914944Y-72724500D01*
X120749773Y-72765210D01*
X120599150Y-72844263D01*
X120471816Y-72957072D01*
X120375182Y-73097068D01*
X120314860Y-73256125D01*
X120314859Y-73256130D01*
X120294355Y-73424999D01*
X120301708Y-73485553D01*
X120290248Y-73554476D01*
X120243344Y-73606263D01*
X120178612Y-73624500D01*
X119573992Y-73624500D01*
X119375880Y-73663907D01*
X119375872Y-73663909D01*
X119189247Y-73741212D01*
X119189237Y-73741217D01*
X119021281Y-73853441D01*
X118878441Y-73996281D01*
X118766217Y-74164237D01*
X118766212Y-74164247D01*
X118688909Y-74350872D01*
X118688907Y-74350880D01*
X118649500Y-74548992D01*
X118649500Y-74751007D01*
X85250000Y-74751007D01*
X85250000Y-67068995D01*
X86719499Y-67068995D01*
X86746418Y-67204322D01*
X86746421Y-67204332D01*
X86799221Y-67331804D01*
X86799228Y-67331817D01*
X86875885Y-67446541D01*
X86875888Y-67446545D01*
X86973454Y-67544111D01*
X86973458Y-67544114D01*
X87088182Y-67620771D01*
X87088195Y-67620778D01*
X87204535Y-67668967D01*
X87215672Y-67673580D01*
X87215676Y-67673580D01*
X87215677Y-67673581D01*
X87351004Y-67700500D01*
X87351007Y-67700500D01*
X87488995Y-67700500D01*
X87580041Y-67682389D01*
X87624328Y-67673580D01*
X87751811Y-67620775D01*
X87866542Y-67544114D01*
X87964114Y-67446542D01*
X88040775Y-67331811D01*
X88053534Y-67301007D01*
X118649500Y-67301007D01*
X118688907Y-67499119D01*
X118688909Y-67499127D01*
X118766212Y-67685752D01*
X118766217Y-67685762D01*
X118878441Y-67853718D01*
X119021281Y-67996558D01*
X119189237Y-68108782D01*
X119189241Y-68108784D01*
X119189244Y-68108786D01*
X119375873Y-68186091D01*
X119573484Y-68225398D01*
X119573992Y-68225499D01*
X119573996Y-68225500D01*
X120178612Y-68225500D01*
X120245651Y-68245185D01*
X120291406Y-68297989D01*
X120301708Y-68364447D01*
X120294355Y-68425000D01*
X120314859Y-68593869D01*
X120314860Y-68593874D01*
X120375182Y-68752931D01*
X120437475Y-68843177D01*
X120471817Y-68892929D01*
X120577505Y-68986560D01*
X120599150Y-69005736D01*
X120749773Y-69084789D01*
X120749775Y-69084790D01*
X120914944Y-69125500D01*
X121085056Y-69125500D01*
X121250225Y-69084790D01*
X121329692Y-69043081D01*
X121400849Y-69005736D01*
X121400850Y-69005734D01*
X121400852Y-69005734D01*
X121528183Y-68892929D01*
X121624818Y-68752930D01*
X121685140Y-68593872D01*
X121705645Y-68425000D01*
X121685140Y-68256128D01*
X121673524Y-68225500D01*
X121658578Y-68186090D01*
X121624818Y-68097070D01*
X121528183Y-67957071D01*
X121400852Y-67844266D01*
X121400849Y-67844263D01*
X121250225Y-67765209D01*
X121243210Y-67762549D01*
X121244131Y-67760119D01*
X121194438Y-67731186D01*
X121162649Y-67668967D01*
X121169544Y-67599439D01*
X121169932Y-67598492D01*
X121211091Y-67499127D01*
X121250500Y-67301003D01*
X121250500Y-67136233D01*
X122549500Y-67136233D01*
X122583143Y-67305366D01*
X122583146Y-67305378D01*
X122649138Y-67464698D01*
X122649145Y-67464711D01*
X122744954Y-67608098D01*
X122744957Y-67608102D01*
X122866897Y-67730042D01*
X122866901Y-67730045D01*
X123010288Y-67825854D01*
X123010301Y-67825861D01*
X123169621Y-67891853D01*
X123169626Y-67891855D01*
X123338766Y-67925499D01*
X123338769Y-67925500D01*
X123338771Y-67925500D01*
X124161231Y-67925500D01*
X124161232Y-67925499D01*
X124330374Y-67891855D01*
X124489705Y-67825858D01*
X124633099Y-67730045D01*
X124755045Y-67608099D01*
X124850858Y-67464705D01*
X124916855Y-67305374D01*
X124950500Y-67136229D01*
X124950500Y-66963771D01*
X124950500Y-66963768D01*
X124950499Y-66963766D01*
X124937989Y-66900873D01*
X124916855Y-66794626D01*
X124864486Y-66668195D01*
X124850861Y-66635301D01*
X124850854Y-66635288D01*
X124755045Y-66491901D01*
X124755042Y-66491897D01*
X124633102Y-66369957D01*
X124633098Y-66369954D01*
X124489711Y-66274145D01*
X124489698Y-66274138D01*
X124330378Y-66208146D01*
X124330366Y-66208143D01*
X124161232Y-66174500D01*
X124161229Y-66174500D01*
X123338771Y-66174500D01*
X123338768Y-66174500D01*
X123169633Y-66208143D01*
X123169621Y-66208146D01*
X123010301Y-66274138D01*
X123010288Y-66274145D01*
X122866901Y-66369954D01*
X122866897Y-66369957D01*
X122744957Y-66491897D01*
X122744954Y-66491901D01*
X122649145Y-66635288D01*
X122649138Y-66635301D01*
X122583146Y-66794621D01*
X122583143Y-66794633D01*
X122549500Y-66963766D01*
X122549500Y-67136233D01*
X121250500Y-67136233D01*
X121250500Y-67098997D01*
X121211091Y-66900873D01*
X121133786Y-66714244D01*
X121133784Y-66714241D01*
X121133782Y-66714237D01*
X121021558Y-66546281D01*
X120878718Y-66403441D01*
X120710762Y-66291217D01*
X120710752Y-66291212D01*
X120524127Y-66213909D01*
X120524119Y-66213907D01*
X120326007Y-66174500D01*
X120326003Y-66174500D01*
X119573997Y-66174500D01*
X119573992Y-66174500D01*
X119375880Y-66213907D01*
X119375872Y-66213909D01*
X119189247Y-66291212D01*
X119189237Y-66291217D01*
X119021281Y-66403441D01*
X118878441Y-66546281D01*
X118766217Y-66714237D01*
X118766212Y-66714247D01*
X118688909Y-66900872D01*
X118688907Y-66900880D01*
X118649500Y-67098992D01*
X118649500Y-67301007D01*
X88053534Y-67301007D01*
X88093580Y-67204328D01*
X88107125Y-67136233D01*
X88120500Y-67068995D01*
X88120500Y-66931004D01*
X88093581Y-66795677D01*
X88093580Y-66795676D01*
X88093580Y-66795672D01*
X88059849Y-66714237D01*
X88040778Y-66668195D01*
X88040771Y-66668182D01*
X87964114Y-66553458D01*
X87964111Y-66553454D01*
X87866545Y-66455888D01*
X87866541Y-66455885D01*
X87751817Y-66379228D01*
X87751804Y-66379221D01*
X87624332Y-66326421D01*
X87624322Y-66326418D01*
X87488995Y-66299500D01*
X87488993Y-66299500D01*
X87351007Y-66299500D01*
X87351005Y-66299500D01*
X87215677Y-66326418D01*
X87215667Y-66326421D01*
X87088195Y-66379221D01*
X87088182Y-66379228D01*
X86973458Y-66455885D01*
X86973454Y-66455888D01*
X86875888Y-66553454D01*
X86875885Y-66553458D01*
X86799228Y-66668182D01*
X86799221Y-66668195D01*
X86746421Y-66795667D01*
X86746418Y-66795677D01*
X86719500Y-66931004D01*
X86719500Y-66931007D01*
X86719500Y-67068993D01*
X86719500Y-67068995D01*
X86719499Y-67068995D01*
X85250000Y-67068995D01*
X85250000Y-64068995D01*
X86719499Y-64068995D01*
X86746418Y-64204322D01*
X86746421Y-64204332D01*
X86799221Y-64331804D01*
X86799228Y-64331817D01*
X86875885Y-64446541D01*
X86875888Y-64446545D01*
X86973454Y-64544111D01*
X86973458Y-64544114D01*
X87088182Y-64620771D01*
X87088195Y-64620778D01*
X87215667Y-64673578D01*
X87215672Y-64673580D01*
X87215676Y-64673580D01*
X87215677Y-64673581D01*
X87351004Y-64700500D01*
X87351007Y-64700500D01*
X87488995Y-64700500D01*
X87580041Y-64682389D01*
X87624328Y-64673580D01*
X87751811Y-64620775D01*
X87866542Y-64544114D01*
X87964114Y-64446542D01*
X88040775Y-64331811D01*
X88093580Y-64204328D01*
X88120500Y-64068993D01*
X88120500Y-63931007D01*
X88120500Y-63931004D01*
X88093581Y-63795677D01*
X88093580Y-63795676D01*
X88093580Y-63795672D01*
X88093578Y-63795667D01*
X88040778Y-63668195D01*
X88040771Y-63668182D01*
X87964114Y-63553458D01*
X87964111Y-63553454D01*
X87866545Y-63455888D01*
X87866541Y-63455885D01*
X87751817Y-63379228D01*
X87751804Y-63379221D01*
X87624332Y-63326421D01*
X87624322Y-63326418D01*
X87488995Y-63299500D01*
X87488993Y-63299500D01*
X87351007Y-63299500D01*
X87351005Y-63299500D01*
X87215677Y-63326418D01*
X87215667Y-63326421D01*
X87088195Y-63379221D01*
X87088182Y-63379228D01*
X86973458Y-63455885D01*
X86973454Y-63455888D01*
X86875888Y-63553454D01*
X86875885Y-63553458D01*
X86799228Y-63668182D01*
X86799221Y-63668195D01*
X86746421Y-63795667D01*
X86746418Y-63795677D01*
X86719500Y-63931004D01*
X86719500Y-63931007D01*
X86719500Y-64068993D01*
X86719500Y-64068995D01*
X86719499Y-64068995D01*
X85250000Y-64068995D01*
X85250000Y-58352351D01*
X86949500Y-58352351D01*
X86981522Y-58554534D01*
X87044781Y-58749223D01*
X87101898Y-58861319D01*
X87120376Y-58897585D01*
X87137715Y-58931613D01*
X87258028Y-59097213D01*
X87402786Y-59241971D01*
X87557749Y-59354556D01*
X87568390Y-59362287D01*
X87684607Y-59421503D01*
X87750776Y-59455218D01*
X87750778Y-59455218D01*
X87750781Y-59455220D01*
X87855137Y-59489127D01*
X87945465Y-59518477D01*
X88046557Y-59534488D01*
X88147648Y-59550500D01*
X88147649Y-59550500D01*
X88352351Y-59550500D01*
X88352352Y-59550500D01*
X88554534Y-59518477D01*
X88749219Y-59455220D01*
X88931610Y-59362287D01*
X89024590Y-59294732D01*
X89097213Y-59241971D01*
X89097215Y-59241968D01*
X89097219Y-59241966D01*
X89241966Y-59097219D01*
X89241968Y-59097215D01*
X89241971Y-59097213D01*
X89326670Y-58980633D01*
X89362287Y-58931610D01*
X89455220Y-58749219D01*
X89518477Y-58554534D01*
X89550500Y-58352352D01*
X89550500Y-58147648D01*
X89546720Y-58123785D01*
X89518477Y-57945465D01*
X89503704Y-57900000D01*
X92799364Y-57900000D01*
X92856567Y-58113486D01*
X92856570Y-58113492D01*
X92956399Y-58327578D01*
X93091894Y-58521082D01*
X93258917Y-58688105D01*
X93452421Y-58823600D01*
X93666507Y-58923429D01*
X93666516Y-58923433D01*
X93880000Y-58980634D01*
X93880000Y-58083012D01*
X93937007Y-58115925D01*
X94064174Y-58150000D01*
X94195826Y-58150000D01*
X94322993Y-58115925D01*
X94380000Y-58083012D01*
X94380000Y-58980633D01*
X94593483Y-58923433D01*
X94593492Y-58923429D01*
X94807578Y-58823600D01*
X95001082Y-58688105D01*
X95168105Y-58521082D01*
X95303600Y-58327578D01*
X95397294Y-58126651D01*
X95443466Y-58074212D01*
X95510660Y-58055060D01*
X95577541Y-58075276D01*
X95620676Y-58123785D01*
X95687632Y-58258253D01*
X95763151Y-58358255D01*
X95816128Y-58428407D01*
X95973698Y-58572052D01*
X96154981Y-58684298D01*
X96353802Y-58761321D01*
X96563390Y-58800500D01*
X96563392Y-58800500D01*
X96776608Y-58800500D01*
X96776610Y-58800500D01*
X96986198Y-58761321D01*
X97185019Y-58684298D01*
X97366302Y-58572052D01*
X97523872Y-58428407D01*
X97652366Y-58258255D01*
X97697610Y-58167392D01*
X97747403Y-58067394D01*
X97747403Y-58067393D01*
X97747405Y-58067389D01*
X97805756Y-57862310D01*
X97816529Y-57746047D01*
X97842315Y-57681111D01*
X97884622Y-57650804D01*
X97993130Y-57650804D01*
X98029503Y-57671668D01*
X98061693Y-57733681D01*
X98063470Y-57746047D01*
X98074244Y-57862310D01*
X98127675Y-58050099D01*
X98132596Y-58067392D01*
X98132596Y-58067394D01*
X98227632Y-58258253D01*
X98303151Y-58358255D01*
X98356128Y-58428407D01*
X98513698Y-58572052D01*
X98694981Y-58684298D01*
X98893802Y-58761321D01*
X99103390Y-58800500D01*
X99103392Y-58800500D01*
X99316608Y-58800500D01*
X99316610Y-58800500D01*
X99526198Y-58761321D01*
X99725019Y-58684298D01*
X99906302Y-58572052D01*
X100063872Y-58428407D01*
X100192366Y-58258255D01*
X100237610Y-58167392D01*
X100287403Y-58067394D01*
X100287403Y-58067393D01*
X100287405Y-58067389D01*
X100345756Y-57862310D01*
X100352029Y-57794605D01*
X100377814Y-57729669D01*
X100434614Y-57688981D01*
X100504395Y-57685461D01*
X100565002Y-57720225D01*
X100597193Y-57782238D01*
X100599500Y-57806047D01*
X100599500Y-58544856D01*
X100599502Y-58544882D01*
X100602413Y-58569987D01*
X100602415Y-58569991D01*
X100647793Y-58672764D01*
X100647794Y-58672765D01*
X100727235Y-58752206D01*
X100830009Y-58797585D01*
X100855135Y-58800500D01*
X102644864Y-58800499D01*
X102644879Y-58800497D01*
X102644882Y-58800497D01*
X102669987Y-58797586D01*
X102669988Y-58797585D01*
X102669991Y-58797585D01*
X102772765Y-58752206D01*
X102852206Y-58672765D01*
X102897585Y-58569991D01*
X102900500Y-58544865D01*
X102900500Y-58000000D01*
X108089364Y-58000000D01*
X108146567Y-58213486D01*
X108146570Y-58213492D01*
X108246399Y-58427578D01*
X108381894Y-58621082D01*
X108548917Y-58788105D01*
X108742421Y-58923600D01*
X108956507Y-59023429D01*
X108956516Y-59023433D01*
X109170000Y-59080634D01*
X109170000Y-58183012D01*
X109227007Y-58215925D01*
X109354174Y-58250000D01*
X109485826Y-58250000D01*
X109612993Y-58215925D01*
X109670000Y-58183012D01*
X109670000Y-59080633D01*
X109883483Y-59023433D01*
X109883492Y-59023429D01*
X110097578Y-58923600D01*
X110291082Y-58788105D01*
X110458105Y-58621082D01*
X110593600Y-58427578D01*
X110687294Y-58226651D01*
X110733466Y-58174212D01*
X110800660Y-58155060D01*
X110867541Y-58175276D01*
X110910676Y-58223785D01*
X110977632Y-58358253D01*
X111100596Y-58521082D01*
X111106128Y-58528407D01*
X111263698Y-58672052D01*
X111444981Y-58784298D01*
X111643802Y-58861321D01*
X111853390Y-58900500D01*
X111853392Y-58900500D01*
X112066608Y-58900500D01*
X112066610Y-58900500D01*
X112276198Y-58861321D01*
X112475019Y-58784298D01*
X112656302Y-58672052D01*
X112813872Y-58528407D01*
X112942366Y-58358255D01*
X112996270Y-58250000D01*
X113037403Y-58167394D01*
X113037403Y-58167393D01*
X113037405Y-58167389D01*
X113095756Y-57962310D01*
X113106529Y-57846047D01*
X113132315Y-57781111D01*
X113174622Y-57750804D01*
X113283130Y-57750804D01*
X113319503Y-57771668D01*
X113351693Y-57833681D01*
X113353470Y-57846047D01*
X113364244Y-57962310D01*
X113417675Y-58150099D01*
X113422596Y-58167392D01*
X113422596Y-58167394D01*
X113517632Y-58358253D01*
X113640596Y-58521082D01*
X113646128Y-58528407D01*
X113803698Y-58672052D01*
X113984981Y-58784298D01*
X114183802Y-58861321D01*
X114393390Y-58900500D01*
X114393392Y-58900500D01*
X114606608Y-58900500D01*
X114606610Y-58900500D01*
X114816198Y-58861321D01*
X115015019Y-58784298D01*
X115196302Y-58672052D01*
X115353872Y-58528407D01*
X115482366Y-58358255D01*
X115536270Y-58250000D01*
X115577403Y-58167394D01*
X115577403Y-58167393D01*
X115577405Y-58167389D01*
X115635756Y-57962310D01*
X115642029Y-57894605D01*
X115667814Y-57829669D01*
X115724614Y-57788981D01*
X115794395Y-57785461D01*
X115855002Y-57820225D01*
X115887193Y-57882238D01*
X115889500Y-57906047D01*
X115889500Y-58644856D01*
X115889502Y-58644882D01*
X115892413Y-58669987D01*
X115892415Y-58669991D01*
X115937793Y-58772764D01*
X115937794Y-58772765D01*
X116017235Y-58852206D01*
X116120009Y-58897585D01*
X116145135Y-58900500D01*
X117934864Y-58900499D01*
X117934879Y-58900497D01*
X117934882Y-58900497D01*
X117959987Y-58897586D01*
X117959988Y-58897585D01*
X117959991Y-58897585D01*
X118062765Y-58852206D01*
X118142206Y-58772765D01*
X118187585Y-58669991D01*
X118190500Y-58644865D01*
X118190500Y-58352351D01*
X121949500Y-58352351D01*
X121981522Y-58554534D01*
X122044781Y-58749223D01*
X122101898Y-58861319D01*
X122120376Y-58897585D01*
X122137715Y-58931613D01*
X122258028Y-59097213D01*
X122402786Y-59241971D01*
X122557749Y-59354556D01*
X122568390Y-59362287D01*
X122684607Y-59421503D01*
X122750776Y-59455218D01*
X122750778Y-59455218D01*
X122750781Y-59455220D01*
X122855137Y-59489127D01*
X122945465Y-59518477D01*
X123046557Y-59534488D01*
X123147648Y-59550500D01*
X123147649Y-59550500D01*
X123352351Y-59550500D01*
X123352352Y-59550500D01*
X123554534Y-59518477D01*
X123749219Y-59455220D01*
X123931610Y-59362287D01*
X124024590Y-59294732D01*
X124097213Y-59241971D01*
X124097215Y-59241968D01*
X124097219Y-59241966D01*
X124241966Y-59097219D01*
X124241968Y-59097215D01*
X124241971Y-59097213D01*
X124326670Y-58980633D01*
X124362287Y-58931610D01*
X124455220Y-58749219D01*
X124518477Y-58554534D01*
X124550500Y-58352352D01*
X124550500Y-58147648D01*
X124546720Y-58123785D01*
X124518477Y-57945465D01*
X124465075Y-57781111D01*
X124455220Y-57750781D01*
X124455218Y-57750778D01*
X124455218Y-57750776D01*
X124409469Y-57660990D01*
X124362287Y-57568390D01*
X124351797Y-57553951D01*
X124241971Y-57402786D01*
X124097213Y-57258028D01*
X123931613Y-57137715D01*
X123931612Y-57137714D01*
X123931610Y-57137713D01*
X123872512Y-57107601D01*
X123749223Y-57044781D01*
X123554534Y-56981522D01*
X123379995Y-56953878D01*
X123352352Y-56949500D01*
X123147648Y-56949500D01*
X123123329Y-56953351D01*
X122945465Y-56981522D01*
X122750776Y-57044781D01*
X122568386Y-57137715D01*
X122402786Y-57258028D01*
X122258028Y-57402786D01*
X122137715Y-57568386D01*
X122044781Y-57750776D01*
X121981522Y-57945465D01*
X121949500Y-58147648D01*
X121949500Y-58352351D01*
X118190500Y-58352351D01*
X118190499Y-56855136D01*
X118190497Y-56855117D01*
X118187586Y-56830012D01*
X118187585Y-56830010D01*
X118187585Y-56830009D01*
X118142206Y-56727235D01*
X118062765Y-56647794D01*
X118042124Y-56638680D01*
X117959992Y-56602415D01*
X117934865Y-56599500D01*
X116145143Y-56599500D01*
X116145117Y-56599502D01*
X116120012Y-56602413D01*
X116120008Y-56602415D01*
X116017235Y-56647793D01*
X115937794Y-56727234D01*
X115892415Y-56830006D01*
X115892415Y-56830008D01*
X115889500Y-56855131D01*
X115889500Y-57593951D01*
X115869815Y-57660990D01*
X115817011Y-57706745D01*
X115747853Y-57716689D01*
X115684297Y-57687664D01*
X115646523Y-57628886D01*
X115642029Y-57605391D01*
X115640386Y-57587664D01*
X115635756Y-57537690D01*
X115577405Y-57332611D01*
X115577403Y-57332606D01*
X115577403Y-57332605D01*
X115482367Y-57141746D01*
X115353872Y-56971593D01*
X115329637Y-56949500D01*
X115196302Y-56827948D01*
X115015019Y-56715702D01*
X115015017Y-56715701D01*
X114915608Y-56677190D01*
X114816198Y-56638679D01*
X114606610Y-56599500D01*
X114393390Y-56599500D01*
X114183802Y-56638679D01*
X114183799Y-56638679D01*
X114183799Y-56638680D01*
X113984982Y-56715701D01*
X113984980Y-56715702D01*
X113803699Y-56827947D01*
X113646127Y-56971593D01*
X113517632Y-57141746D01*
X113422596Y-57332605D01*
X113422596Y-57332607D01*
X113364244Y-57537689D01*
X113353471Y-57653951D01*
X113327685Y-57718888D01*
X113283130Y-57750804D01*
X113174622Y-57750804D01*
X113176869Y-57749194D01*
X113140497Y-57728331D01*
X113108307Y-57666318D01*
X113106529Y-57653951D01*
X113103076Y-57616689D01*
X113095756Y-57537690D01*
X113037405Y-57332611D01*
X113037403Y-57332606D01*
X113037403Y-57332605D01*
X112942367Y-57141746D01*
X112813872Y-56971593D01*
X112789637Y-56949500D01*
X112656302Y-56827948D01*
X112475019Y-56715702D01*
X112475017Y-56715701D01*
X112375608Y-56677190D01*
X112276198Y-56638679D01*
X112066610Y-56599500D01*
X111853390Y-56599500D01*
X111643802Y-56638679D01*
X111643799Y-56638679D01*
X111643799Y-56638680D01*
X111444982Y-56715701D01*
X111444980Y-56715702D01*
X111263699Y-56827947D01*
X111106127Y-56971593D01*
X110977634Y-57141744D01*
X110910676Y-57276215D01*
X110863173Y-57327452D01*
X110795510Y-57344873D01*
X110729170Y-57322947D01*
X110687294Y-57273348D01*
X110593600Y-57072422D01*
X110593599Y-57072420D01*
X110458113Y-56878926D01*
X110458108Y-56878920D01*
X110291082Y-56711894D01*
X110097578Y-56576399D01*
X109883492Y-56476570D01*
X109883486Y-56476567D01*
X109670000Y-56419364D01*
X109670000Y-57316988D01*
X109612993Y-57284075D01*
X109485826Y-57250000D01*
X109354174Y-57250000D01*
X109227007Y-57284075D01*
X109170000Y-57316988D01*
X109170000Y-56419364D01*
X109169999Y-56419364D01*
X108956513Y-56476567D01*
X108956507Y-56476570D01*
X108742422Y-56576399D01*
X108742420Y-56576400D01*
X108548926Y-56711886D01*
X108548920Y-56711891D01*
X108381891Y-56878920D01*
X108381886Y-56878926D01*
X108246400Y-57072420D01*
X108246399Y-57072422D01*
X108146570Y-57286507D01*
X108146567Y-57286513D01*
X108089364Y-57499999D01*
X108089364Y-57500000D01*
X108986988Y-57500000D01*
X108954075Y-57557007D01*
X108920000Y-57684174D01*
X108920000Y-57815826D01*
X108954075Y-57942993D01*
X108986988Y-58000000D01*
X108089364Y-58000000D01*
X102900500Y-58000000D01*
X102900499Y-56755136D01*
X102900497Y-56755117D01*
X102897586Y-56730012D01*
X102897585Y-56730010D01*
X102897585Y-56730009D01*
X102852206Y-56627235D01*
X102772765Y-56547794D01*
X102752124Y-56538680D01*
X102669992Y-56502415D01*
X102644865Y-56499500D01*
X100855143Y-56499500D01*
X100855117Y-56499502D01*
X100830012Y-56502413D01*
X100830008Y-56502415D01*
X100727235Y-56547793D01*
X100647794Y-56627234D01*
X100602415Y-56730006D01*
X100602415Y-56730008D01*
X100599500Y-56755131D01*
X100599500Y-57493951D01*
X100579815Y-57560990D01*
X100527011Y-57606745D01*
X100457853Y-57616689D01*
X100394297Y-57587664D01*
X100356523Y-57528886D01*
X100352029Y-57505391D01*
X100351529Y-57500000D01*
X100345756Y-57437690D01*
X100342325Y-57425633D01*
X100315858Y-57332611D01*
X100287405Y-57232611D01*
X100287403Y-57232606D01*
X100287403Y-57232605D01*
X100192367Y-57041746D01*
X100063872Y-56871593D01*
X100045820Y-56855136D01*
X99906302Y-56727948D01*
X99725019Y-56615702D01*
X99725017Y-56615701D01*
X99623565Y-56576399D01*
X99526198Y-56538679D01*
X99316610Y-56499500D01*
X99103390Y-56499500D01*
X98893802Y-56538679D01*
X98893799Y-56538679D01*
X98893799Y-56538680D01*
X98694982Y-56615701D01*
X98694980Y-56615702D01*
X98513699Y-56727947D01*
X98356127Y-56871593D01*
X98227632Y-57041746D01*
X98132596Y-57232605D01*
X98132596Y-57232607D01*
X98074244Y-57437689D01*
X98063471Y-57553951D01*
X98037685Y-57618888D01*
X97993130Y-57650804D01*
X97884622Y-57650804D01*
X97886869Y-57649194D01*
X97850497Y-57628331D01*
X97818307Y-57566318D01*
X97816529Y-57553951D01*
X97812029Y-57505391D01*
X97805756Y-57437690D01*
X97747405Y-57232611D01*
X97747403Y-57232606D01*
X97747403Y-57232605D01*
X97652367Y-57041746D01*
X97523872Y-56871593D01*
X97505820Y-56855136D01*
X97366302Y-56727948D01*
X97185019Y-56615702D01*
X97185017Y-56615701D01*
X97083565Y-56576399D01*
X96986198Y-56538679D01*
X96776610Y-56499500D01*
X96563390Y-56499500D01*
X96353802Y-56538679D01*
X96353799Y-56538679D01*
X96353799Y-56538680D01*
X96154982Y-56615701D01*
X96154980Y-56615702D01*
X95973699Y-56727947D01*
X95816127Y-56871593D01*
X95687634Y-57041744D01*
X95620676Y-57176215D01*
X95573173Y-57227452D01*
X95505510Y-57244873D01*
X95439170Y-57222947D01*
X95397294Y-57173348D01*
X95303600Y-56972422D01*
X95303599Y-56972420D01*
X95168113Y-56778926D01*
X95168108Y-56778920D01*
X95001082Y-56611894D01*
X94807578Y-56476399D01*
X94593492Y-56376570D01*
X94593486Y-56376567D01*
X94380000Y-56319364D01*
X94380000Y-57216988D01*
X94322993Y-57184075D01*
X94195826Y-57150000D01*
X94064174Y-57150000D01*
X93937007Y-57184075D01*
X93880000Y-57216988D01*
X93880000Y-56319364D01*
X93879999Y-56319364D01*
X93666513Y-56376567D01*
X93666507Y-56376570D01*
X93452422Y-56476399D01*
X93452420Y-56476400D01*
X93258926Y-56611886D01*
X93258920Y-56611891D01*
X93091891Y-56778920D01*
X93091886Y-56778926D01*
X92956400Y-56972420D01*
X92956399Y-56972422D01*
X92856570Y-57186507D01*
X92856567Y-57186513D01*
X92799364Y-57399999D01*
X92799364Y-57400000D01*
X93696988Y-57400000D01*
X93664075Y-57457007D01*
X93630000Y-57584174D01*
X93630000Y-57715826D01*
X93664075Y-57842993D01*
X93696988Y-57900000D01*
X92799364Y-57900000D01*
X89503704Y-57900000D01*
X89465075Y-57781111D01*
X89455220Y-57750781D01*
X89455218Y-57750778D01*
X89455218Y-57750776D01*
X89409469Y-57660990D01*
X89362287Y-57568390D01*
X89351797Y-57553951D01*
X89241971Y-57402786D01*
X89097213Y-57258028D01*
X88931613Y-57137715D01*
X88931612Y-57137714D01*
X88931610Y-57137713D01*
X88872512Y-57107601D01*
X88749223Y-57044781D01*
X88554534Y-56981522D01*
X88379995Y-56953878D01*
X88352352Y-56949500D01*
X88147648Y-56949500D01*
X88123329Y-56953351D01*
X87945465Y-56981522D01*
X87750776Y-57044781D01*
X87568386Y-57137715D01*
X87402786Y-57258028D01*
X87258028Y-57402786D01*
X87137715Y-57568386D01*
X87044781Y-57750776D01*
X86981522Y-57945465D01*
X86949500Y-58147648D01*
X86949500Y-58352351D01*
X85250000Y-58352351D01*
X85250000Y-58250882D01*
X85250012Y-58249144D01*
X85250327Y-58226651D01*
X85252274Y-58087729D01*
X85253041Y-58075610D01*
X85289277Y-57754005D01*
X85291606Y-57740299D01*
X85332532Y-57560990D01*
X85363427Y-57425627D01*
X85367272Y-57412279D01*
X85473883Y-57107601D01*
X85479196Y-57094777D01*
X85619243Y-56803965D01*
X85625959Y-56791813D01*
X85797693Y-56518501D01*
X85805723Y-56507183D01*
X86006979Y-56254816D01*
X86016228Y-56244467D01*
X86244467Y-56016228D01*
X86254816Y-56006979D01*
X86507183Y-55805723D01*
X86518501Y-55797693D01*
X86791813Y-55625959D01*
X86803965Y-55619243D01*
X87094777Y-55479196D01*
X87107601Y-55473883D01*
X87412279Y-55367272D01*
X87425627Y-55363427D01*
X87643293Y-55313746D01*
X87740299Y-55291606D01*
X87754005Y-55289277D01*
X88075610Y-55253041D01*
X88087729Y-55252274D01*
X88249144Y-55250011D01*
X88250882Y-55250000D01*
X123249118Y-55250000D01*
X123250855Y-55250011D01*
G37*
%TD.AperFunction*%
%TD*%
M02*
