%TF.GenerationSoftware,KiCad,Pcbnew,8.0.0*%
%TF.CreationDate,2024-03-18T09:38:17+09:00*%
%TF.ProjectId,240226_c1011_1_1_PCA9685,32343032-3236-45f6-9331-3031315f315f,rev?*%
%TF.SameCoordinates,Original*%
%TF.FileFunction,Paste,Top*%
%TF.FilePolarity,Positive*%
%FSLAX46Y46*%
G04 Gerber Fmt 4.6, Leading zero omitted, Abs format (unit mm)*
G04 Created by KiCad (PCBNEW 8.0.0) date 2024-03-18 09:38:17*
%MOMM*%
%LPD*%
G01*
G04 APERTURE LIST*
G04 Aperture macros list*
%AMRoundRect*
0 Rectangle with rounded corners*
0 $1 Rounding radius*
0 $2 $3 $4 $5 $6 $7 $8 $9 X,Y pos of 4 corners*
0 Add a 4 corners polygon primitive as box body*
4,1,4,$2,$3,$4,$5,$6,$7,$8,$9,$2,$3,0*
0 Add four circle primitives for the rounded corners*
1,1,$1+$1,$2,$3*
1,1,$1+$1,$4,$5*
1,1,$1+$1,$6,$7*
1,1,$1+$1,$8,$9*
0 Add four rect primitives between the rounded corners*
20,1,$1+$1,$2,$3,$4,$5,0*
20,1,$1+$1,$4,$5,$6,$7,0*
20,1,$1+$1,$6,$7,$8,$9,0*
20,1,$1+$1,$8,$9,$2,$3,0*%
G04 Aperture macros list end*
%ADD10C,0.010000*%
%ADD11RoundRect,0.225000X-0.250000X0.225000X-0.250000X-0.225000X0.250000X-0.225000X0.250000X0.225000X0*%
%ADD12RoundRect,0.232800X-0.252200X1.277200X-0.252200X-1.277200X0.252200X-1.277200X0.252200X1.277200X0*%
%ADD13RoundRect,0.100000X0.637500X0.100000X-0.637500X0.100000X-0.637500X-0.100000X0.637500X-0.100000X0*%
G04 APERTURE END LIST*
D10*
%TO.C,Q1*%
X152940000Y-96595000D02*
X151220000Y-96595000D01*
X151220000Y-95035000D01*
X152940000Y-95035000D01*
X152940000Y-96595000D01*
G36*
X152940000Y-96595000D02*
G01*
X151220000Y-96595000D01*
X151220000Y-95035000D01*
X152940000Y-95035000D01*
X152940000Y-96595000D01*
G37*
X152940000Y-98705000D02*
X151220000Y-98705000D01*
X151220000Y-97145000D01*
X152940000Y-97145000D01*
X152940000Y-98705000D01*
G36*
X152940000Y-98705000D02*
G01*
X151220000Y-98705000D01*
X151220000Y-97145000D01*
X152940000Y-97145000D01*
X152940000Y-98705000D01*
G37*
X152940000Y-100815000D02*
X151220000Y-100815000D01*
X151220000Y-99255000D01*
X152940000Y-99255000D01*
X152940000Y-100815000D01*
G36*
X152940000Y-100815000D02*
G01*
X151220000Y-100815000D01*
X151220000Y-99255000D01*
X152940000Y-99255000D01*
X152940000Y-100815000D01*
G37*
X155480000Y-96595000D02*
X153760000Y-96595000D01*
X153760000Y-95035000D01*
X155480000Y-95035000D01*
X155480000Y-96595000D01*
G36*
X155480000Y-96595000D02*
G01*
X153760000Y-96595000D01*
X153760000Y-95035000D01*
X155480000Y-95035000D01*
X155480000Y-96595000D01*
G37*
X155480000Y-98705000D02*
X153760000Y-98705000D01*
X153760000Y-97145000D01*
X155480000Y-97145000D01*
X155480000Y-98705000D01*
G36*
X155480000Y-98705000D02*
G01*
X153760000Y-98705000D01*
X153760000Y-97145000D01*
X155480000Y-97145000D01*
X155480000Y-98705000D01*
G37*
X155480000Y-100815000D02*
X153760000Y-100815000D01*
X153760000Y-99255000D01*
X155480000Y-99255000D01*
X155480000Y-100815000D01*
G36*
X155480000Y-100815000D02*
G01*
X153760000Y-100815000D01*
X153760000Y-99255000D01*
X155480000Y-99255000D01*
X155480000Y-100815000D01*
G37*
%TD*%
D11*
%TO.C,C2*%
X158150000Y-97225000D03*
X158150000Y-98775000D03*
%TD*%
D12*
%TO.C,Q1*%
X151064000Y-104455000D03*
X155636000Y-104455000D03*
%TD*%
D13*
%TO.C,U1*%
X156150000Y-92875000D03*
X156150000Y-92225000D03*
X156150000Y-91575000D03*
X156150000Y-90925000D03*
X156150000Y-90275000D03*
X156150000Y-89625000D03*
X156150000Y-88975000D03*
X156150000Y-88325000D03*
X156150000Y-87675000D03*
X156150000Y-87025000D03*
X156150000Y-86375000D03*
X156150000Y-85725000D03*
X156150000Y-85075000D03*
X156150000Y-84425000D03*
X150425000Y-84425000D03*
X150425000Y-85075000D03*
X150425000Y-85725000D03*
X150425000Y-86375000D03*
X150425000Y-87025000D03*
X150425000Y-87675000D03*
X150425000Y-88325000D03*
X150425000Y-88975000D03*
X150425000Y-89625000D03*
X150425000Y-90275000D03*
X150425000Y-90925000D03*
X150425000Y-91575000D03*
X150425000Y-92225000D03*
X150425000Y-92875000D03*
%TD*%
M02*
