%TF.GenerationSoftware,KiCad,Pcbnew,8.0.0*%
%TF.CreationDate,2024-03-18T09:38:17+09:00*%
%TF.ProjectId,240226_c1011_1_1_PCA9685,32343032-3236-45f6-9331-3031315f315f,rev?*%
%TF.SameCoordinates,Original*%
%TF.FileFunction,Soldermask,Bot*%
%TF.FilePolarity,Negative*%
%FSLAX46Y46*%
G04 Gerber Fmt 4.6, Leading zero omitted, Abs format (unit mm)*
G04 Created by KiCad (PCBNEW 8.0.0) date 2024-03-18 09:38:17*
%MOMM*%
%LPD*%
G01*
G04 APERTURE LIST*
%ADD10C,1.600000*%
%ADD11R,1.700000X1.700000*%
%ADD12O,1.700000X1.700000*%
%ADD13R,2.600000X2.600000*%
%ADD14C,2.600000*%
%ADD15R,1.800000X1.800000*%
%ADD16C,1.800000*%
%ADD17R,1.600000X1.600000*%
%ADD18O,1.600000X1.600000*%
G04 APERTURE END LIST*
D10*
%TO.C,R13G$1*%
X167150000Y-103375000D03*
X169650000Y-103375000D03*
%TD*%
%TO.C,R13G$11*%
X141125000Y-85125000D03*
X138625000Y-85125000D03*
%TD*%
%TO.C,R13G$15*%
X141145000Y-101339000D03*
X138645000Y-101339000D03*
%TD*%
%TO.C,R13G$13*%
X141145000Y-93239000D03*
X138645000Y-93239000D03*
%TD*%
%TO.C,R13G$7*%
X167195000Y-79131000D03*
X169695000Y-79131000D03*
%TD*%
%TO.C,R13G$9*%
X141125000Y-77025000D03*
X138625000Y-77025000D03*
%TD*%
D11*
%TO.C,J12*%
X134850000Y-89175000D03*
D12*
X132310000Y-89175000D03*
X129770000Y-89175000D03*
%TD*%
D10*
%TO.C,R2GS4*%
X123050000Y-72375000D03*
X123050000Y-74875000D03*
%TD*%
%TO.C,R13G$8*%
X167156500Y-75043000D03*
X169656500Y-75043000D03*
%TD*%
D11*
%TO.C,J18*%
X149450000Y-74875000D03*
D12*
X151990000Y-74875000D03*
X154530000Y-74875000D03*
X157070000Y-74875000D03*
X159610000Y-74875000D03*
X162150000Y-74875000D03*
%TD*%
D11*
%TO.C,J3*%
X174425000Y-98325000D03*
D12*
X176965000Y-98325000D03*
X179505000Y-98325000D03*
%TD*%
D11*
%TO.C,J17*%
X149450000Y-79525000D03*
D12*
X151990000Y-79525000D03*
X154530000Y-79525000D03*
X157070000Y-79525000D03*
X159610000Y-79525000D03*
X162150000Y-79525000D03*
%TD*%
D10*
%TO.C,R13G$10*%
X141125000Y-81075000D03*
X138625000Y-81075000D03*
%TD*%
D11*
%TO.C,J15*%
X134835000Y-103194000D03*
D12*
X132295000Y-103194000D03*
X129755000Y-103194000D03*
%TD*%
D11*
%TO.C,J16*%
X134835000Y-107844000D03*
D12*
X132295000Y-107844000D03*
X129755000Y-107844000D03*
%TD*%
D10*
%TO.C,R13G$16*%
X141145000Y-105389000D03*
X138645000Y-105389000D03*
%TD*%
%TO.C,R13G$6*%
X167195000Y-83181000D03*
X169695000Y-83181000D03*
%TD*%
%TO.C,R1G$5*%
X160800000Y-114625000D03*
X160800000Y-117125000D03*
%TD*%
%TO.C,R1G$1*%
X153000000Y-114575000D03*
X153000000Y-117075000D03*
%TD*%
D11*
%TO.C,J6*%
X174485000Y-84225000D03*
D12*
X177025000Y-84225000D03*
X179565000Y-84225000D03*
%TD*%
D10*
%TO.C,R1G$3*%
X149150000Y-114675000D03*
X149150000Y-117175000D03*
%TD*%
D11*
%TO.C,J13*%
X134835000Y-93894000D03*
D12*
X132295000Y-93894000D03*
X129755000Y-93894000D03*
%TD*%
D11*
%TO.C,J4*%
X174425000Y-93675000D03*
D12*
X176965000Y-93675000D03*
X179505000Y-93675000D03*
%TD*%
D10*
%TO.C,R13G$3*%
X167150000Y-95275000D03*
X169650000Y-95275000D03*
%TD*%
D13*
%TO.C,J19*%
X131500000Y-116075000D03*
D14*
X136500000Y-116075000D03*
%TD*%
D11*
%TO.C,J11*%
X134850000Y-84525000D03*
D12*
X132310000Y-84525000D03*
X129770000Y-84525000D03*
%TD*%
D11*
%TO.C,J8*%
X174485000Y-75032000D03*
D12*
X177025000Y-75032000D03*
X179565000Y-75032000D03*
%TD*%
D10*
%TO.C,R1G$2*%
X144900000Y-114675000D03*
X144900000Y-117175000D03*
%TD*%
%TO.C,R1*%
X147000000Y-99675000D03*
X147000000Y-97175000D03*
%TD*%
%TO.C,R13G$14*%
X141145000Y-97289000D03*
X138645000Y-97289000D03*
%TD*%
%TO.C,R2G$3*%
X119350000Y-72375000D03*
X119350000Y-74875000D03*
%TD*%
D11*
%TO.C,J14*%
X134835000Y-98544000D03*
D12*
X132295000Y-98544000D03*
X129755000Y-98544000D03*
%TD*%
D15*
%TO.C,D1*%
X121860000Y-93575000D03*
D16*
X124400000Y-93575000D03*
%TD*%
D10*
%TO.C,R13G$12*%
X141125000Y-89175000D03*
X138625000Y-89175000D03*
%TD*%
%TO.C,R10*%
X118150000Y-94875000D03*
X118150000Y-92375000D03*
%TD*%
D11*
%TO.C,J9*%
X134250000Y-75225000D03*
D12*
X131710000Y-75225000D03*
X129170000Y-75225000D03*
%TD*%
D10*
%TO.C,R1G$6*%
X156750000Y-114625000D03*
X156750000Y-117125000D03*
%TD*%
D11*
%TO.C,J1*%
X174425000Y-107625000D03*
D12*
X176965000Y-107625000D03*
X179505000Y-107625000D03*
%TD*%
D10*
%TO.C,R1G$4*%
X164850000Y-114625000D03*
X164850000Y-117125000D03*
%TD*%
D11*
%TO.C,J7*%
X174485000Y-79682000D03*
D12*
X177025000Y-79682000D03*
X179565000Y-79682000D03*
%TD*%
D17*
%TO.C,C1*%
X119750000Y-103825000D03*
D10*
X124750000Y-103825000D03*
%TD*%
D11*
%TO.C,J5*%
X174485000Y-88875000D03*
D12*
X177025000Y-88875000D03*
X179565000Y-88875000D03*
%TD*%
D10*
%TO.C,R13G$4*%
X167150000Y-91225000D03*
X169650000Y-91225000D03*
%TD*%
%TO.C,R13G$5*%
X167235000Y-87325000D03*
X169735000Y-87325000D03*
%TD*%
D11*
%TO.C,J10*%
X134250000Y-79875000D03*
D12*
X131710000Y-79875000D03*
X129170000Y-79875000D03*
%TD*%
D10*
%TO.C,R13G$2*%
X167150000Y-99325000D03*
X169650000Y-99325000D03*
%TD*%
D11*
%TO.C,J2*%
X174425000Y-102975000D03*
D12*
X176965000Y-102975000D03*
X179505000Y-102975000D03*
%TD*%
D17*
%TO.C,A1*%
X144370000Y-120075000D03*
D18*
X146910000Y-120075000D03*
X149450000Y-120075000D03*
X151990000Y-120075000D03*
X154530000Y-120075000D03*
X157070000Y-120075000D03*
X159610000Y-120075000D03*
X162150000Y-120075000D03*
X167230000Y-120075000D03*
X169770000Y-120075000D03*
X172310000Y-120075000D03*
X174850000Y-120075000D03*
X177390000Y-120075000D03*
X179930000Y-120075000D03*
X179930000Y-71815000D03*
X177390000Y-71815000D03*
X174850000Y-71815000D03*
X172310000Y-71815000D03*
X169770000Y-71815000D03*
X167230000Y-71815000D03*
X164690000Y-71815000D03*
X162150000Y-71815000D03*
X158090000Y-71815000D03*
X155550000Y-71815000D03*
X153010000Y-71815000D03*
X150470000Y-71815000D03*
X147930000Y-71815000D03*
X145390000Y-71815000D03*
X142850000Y-71815000D03*
X140310000Y-71815000D03*
X137770000Y-71815000D03*
X135230000Y-71815000D03*
%TD*%
M02*
