%TF.GenerationSoftware,KiCad,Pcbnew,8.0.0*%
%TF.CreationDate,2024-03-18T09:38:17+09:00*%
%TF.ProjectId,240226_c1011_1_1_PCA9685,32343032-3236-45f6-9331-3031315f315f,rev?*%
%TF.SameCoordinates,Original*%
%TF.FileFunction,Legend,Bot*%
%TF.FilePolarity,Positive*%
%FSLAX46Y46*%
G04 Gerber Fmt 4.6, Leading zero omitted, Abs format (unit mm)*
G04 Created by KiCad (PCBNEW 8.0.0) date 2024-03-18 09:38:17*
%MOMM*%
%LPD*%
G01*
G04 APERTURE LIST*
%ADD10C,0.150000*%
%ADD11C,0.120000*%
G04 APERTURE END LIST*
D10*
X146354285Y-124054104D02*
X145878095Y-124054104D01*
X146449523Y-124339819D02*
X146116190Y-123339819D01*
X146116190Y-123339819D02*
X145782857Y-124339819D01*
X144925714Y-124339819D02*
X145497142Y-124339819D01*
X145211428Y-124339819D02*
X145211428Y-123339819D01*
X145211428Y-123339819D02*
X145306666Y-123482676D01*
X145306666Y-123482676D02*
X145401904Y-123577914D01*
X145401904Y-123577914D02*
X145497142Y-123625533D01*
D11*
%TO.C,A1*%
X109950000Y-78675000D02*
X116300000Y-78675000D01*
X109950000Y-90355000D02*
X109950000Y-78675000D01*
X114400000Y-110425000D02*
X116300000Y-110425000D01*
X114400000Y-119565000D02*
X114400000Y-110425000D01*
X116300000Y-69145000D02*
X180950000Y-69145000D01*
X116300000Y-78675000D02*
X116300000Y-69145000D01*
X116300000Y-90355000D02*
X109950000Y-90355000D01*
X116300000Y-110425000D02*
X116300000Y-90355000D01*
X116300000Y-119565000D02*
X114400000Y-119565000D01*
X116300000Y-122745000D02*
X116300000Y-119565000D01*
X180950000Y-69145000D02*
X182600000Y-70795000D01*
X182600000Y-70795000D02*
X182600000Y-82225000D01*
X182600000Y-82225000D02*
X185140000Y-84765000D01*
X182600000Y-120075000D02*
X182600000Y-122745000D01*
X182600000Y-122745000D02*
X116300000Y-122745000D01*
X185140000Y-84765000D02*
X185140000Y-117535000D01*
X185140000Y-117535000D02*
X182600000Y-120075000D01*
%TD*%
M02*
