M48
; DRILL file {KiCad 8.0.0} date 2024-04-09T16:17:36+0900
; FORMAT={-:-/ absolute / metric / decimal}
; #@! TF.CreationDate,2024-04-09T16:17:36+09:00
; #@! TF.GenerationSoftware,Kicad,Pcbnew,8.0.0
; #@! TF.FileFunction,MixedPlating,1,2
FMAT,2
METRIC
; #@! TA.AperFunction,Plated,PTH,ViaDrill
T1C0.300
; #@! TA.AperFunction,Plated,PTH,ComponentDrill
T2C0.550
; #@! TA.AperFunction,Plated,PTH,ComponentDrill
T3C0.850
; #@! TA.AperFunction,Plated,PTH,ComponentDrill
T4C1.000
; #@! TA.AperFunction,NonPlated,NPTH,ComponentDrill
T5C0.800
; #@! TA.AperFunction,NonPlated,NPTH,ComponentDrill
T6C0.900
; #@! TA.AperFunction,NonPlated,NPTH,ComponentDrill
T7C2.100
%
G90
G05
T1
X89.85Y-62.225
X91.975Y-73.625
X93.675Y-68.15
X95.3Y-68.6
X95.425Y-75.425
X95.425Y-79.5
X96.3Y-71.375
X96.8Y-67.475
X98.75Y-82.175
X100.075Y-73.175
X100.5Y-69.7
X101.675Y-78.5
X101.675Y-82.175
X103.05Y-79.925
X104.7Y-79.925
X105.0Y-75.05
X109.9Y-70.225
X114.6Y-78.425
X115.1Y-73.775
X115.1Y-74.525
X115.4Y-78.4
X118.5Y-69.625
X118.925Y-78.15
X121.865Y-75.68
X122.875Y-78.2
X123.0Y-76.5
T4
X94.13Y-57.65
X96.67Y-57.65
X98.38Y-84.0
X99.21Y-57.65
X100.92Y-84.0
X101.75Y-57.65
X103.46Y-84.0
X106.0Y-84.0
X109.42Y-57.75
X111.96Y-57.75
X114.5Y-57.75
X117.04Y-57.75
T5
X121.0Y-68.425
X121.0Y-73.425
T6
X87.42Y-64.0
X87.42Y-67.0
T7
X88.25Y-58.25
X88.25Y-83.25
X123.25Y-58.25
X123.25Y-83.25
T2
G00X123.425Y-67.05
M15
G01X124.075Y-67.05
M16
G05
G00X123.425Y-74.8
M15
G01X124.075Y-74.8
M16
G05
T3
G00X119.675Y-67.2
M15
G01X120.225Y-67.2
M16
G05
G00X119.675Y-74.65
M15
G01X120.225Y-74.65
M16
G05
M30
