%TF.GenerationSoftware,KiCad,Pcbnew,8.0.0*%
%TF.CreationDate,2024-04-09T16:17:43+09:00*%
%TF.ProjectId,240325_ESP32_d0146,32343033-3235-45f4-9553-5033325f6430,rev?*%
%TF.SameCoordinates,Original*%
%TF.FileFunction,Copper,L1,Top*%
%TF.FilePolarity,Positive*%
%FSLAX46Y46*%
G04 Gerber Fmt 4.6, Leading zero omitted, Abs format (unit mm)*
G04 Created by KiCad (PCBNEW 8.0.0) date 2024-04-09 16:17:43*
%MOMM*%
%LPD*%
G01*
G04 APERTURE LIST*
G04 Aperture macros list*
%AMRoundRect*
0 Rectangle with rounded corners*
0 $1 Rounding radius*
0 $2 $3 $4 $5 $6 $7 $8 $9 X,Y pos of 4 corners*
0 Add a 4 corners polygon primitive as box body*
4,1,4,$2,$3,$4,$5,$6,$7,$8,$9,$2,$3,0*
0 Add four circle primitives for the rounded corners*
1,1,$1+$1,$2,$3*
1,1,$1+$1,$4,$5*
1,1,$1+$1,$6,$7*
1,1,$1+$1,$8,$9*
0 Add four rect primitives between the rounded corners*
20,1,$1+$1,$2,$3,$4,$5,0*
20,1,$1+$1,$4,$5,$6,$7,0*
20,1,$1+$1,$6,$7,$8,$9,0*
20,1,$1+$1,$8,$9,$2,$3,0*%
G04 Aperture macros list end*
%TA.AperFunction,SMDPad,CuDef*%
%ADD10R,0.800000X1.000000*%
%TD*%
%TA.AperFunction,SMDPad,CuDef*%
%ADD11R,1.500000X0.700000*%
%TD*%
%TA.AperFunction,SMDPad,CuDef*%
%ADD12RoundRect,0.135000X0.135000X0.185000X-0.135000X0.185000X-0.135000X-0.185000X0.135000X-0.185000X0*%
%TD*%
%TA.AperFunction,SMDPad,CuDef*%
%ADD13RoundRect,0.135000X0.185000X-0.135000X0.185000X0.135000X-0.185000X0.135000X-0.185000X-0.135000X0*%
%TD*%
%TA.AperFunction,SMDPad,CuDef*%
%ADD14RoundRect,0.375000X-0.375000X0.625000X-0.375000X-0.625000X0.375000X-0.625000X0.375000X0.625000X0*%
%TD*%
%TA.AperFunction,SMDPad,CuDef*%
%ADD15RoundRect,0.500000X-1.400000X0.500000X-1.400000X-0.500000X1.400000X-0.500000X1.400000X0.500000X0*%
%TD*%
%TA.AperFunction,ComponentPad*%
%ADD16R,1.700000X1.700000*%
%TD*%
%TA.AperFunction,ComponentPad*%
%ADD17O,1.700000X1.700000*%
%TD*%
%TA.AperFunction,SMDPad,CuDef*%
%ADD18RoundRect,0.140000X0.170000X-0.140000X0.170000X0.140000X-0.170000X0.140000X-0.170000X-0.140000X0*%
%TD*%
%TA.AperFunction,SMDPad,CuDef*%
%ADD19RoundRect,0.075000X-0.662500X-0.075000X0.662500X-0.075000X0.662500X0.075000X-0.662500X0.075000X0*%
%TD*%
%TA.AperFunction,SMDPad,CuDef*%
%ADD20RoundRect,0.075000X-0.075000X-0.662500X0.075000X-0.662500X0.075000X0.662500X-0.075000X0.662500X0*%
%TD*%
%TA.AperFunction,SMDPad,CuDef*%
%ADD21RoundRect,0.140000X0.140000X0.170000X-0.140000X0.170000X-0.140000X-0.170000X0.140000X-0.170000X0*%
%TD*%
%TA.AperFunction,SMDPad,CuDef*%
%ADD22RoundRect,0.250000X0.475000X-0.250000X0.475000X0.250000X-0.475000X0.250000X-0.475000X-0.250000X0*%
%TD*%
%TA.AperFunction,SMDPad,CuDef*%
%ADD23RoundRect,0.140000X-0.170000X0.140000X-0.170000X-0.140000X0.170000X-0.140000X0.170000X0.140000X0*%
%TD*%
%TA.AperFunction,SMDPad,CuDef*%
%ADD24RoundRect,0.250000X-0.250000X-0.475000X0.250000X-0.475000X0.250000X0.475000X-0.250000X0.475000X0*%
%TD*%
%TA.AperFunction,SMDPad,CuDef*%
%ADD25RoundRect,0.135000X-0.135000X-0.185000X0.135000X-0.185000X0.135000X0.185000X-0.135000X0.185000X0*%
%TD*%
%TA.AperFunction,SMDPad,CuDef*%
%ADD26R,1.300000X0.450000*%
%TD*%
%TA.AperFunction,ComponentPad*%
%ADD27O,1.800000X1.150000*%
%TD*%
%TA.AperFunction,ComponentPad*%
%ADD28O,2.000000X1.450000*%
%TD*%
%TA.AperFunction,SMDPad,CuDef*%
%ADD29R,1.200000X1.400000*%
%TD*%
%TA.AperFunction,SMDPad,CuDef*%
%ADD30RoundRect,0.218750X-0.256250X0.218750X-0.256250X-0.218750X0.256250X-0.218750X0.256250X0.218750X0*%
%TD*%
%TA.AperFunction,SMDPad,CuDef*%
%ADD31RoundRect,0.140000X-0.140000X-0.170000X0.140000X-0.170000X0.140000X0.170000X-0.140000X0.170000X0*%
%TD*%
%TA.AperFunction,SMDPad,CuDef*%
%ADD32RoundRect,0.135000X-0.185000X0.135000X-0.185000X-0.135000X0.185000X-0.135000X0.185000X0.135000X0*%
%TD*%
%TA.AperFunction,SMDPad,CuDef*%
%ADD33RoundRect,0.225000X-0.225000X-0.250000X0.225000X-0.250000X0.225000X0.250000X-0.225000X0.250000X0*%
%TD*%
%TA.AperFunction,ViaPad*%
%ADD34C,0.600000*%
%TD*%
%TA.AperFunction,Conductor*%
%ADD35C,0.300000*%
%TD*%
%TA.AperFunction,Conductor*%
%ADD36C,0.500000*%
%TD*%
%TA.AperFunction,Conductor*%
%ADD37C,0.200000*%
%TD*%
G04 APERTURE END LIST*
D10*
%TO.P,SW1,*%
%TO.N,*%
X88530000Y-61850000D03*
X86320000Y-61850000D03*
X88530000Y-69150000D03*
X86320000Y-69150000D03*
D11*
%TO.P,SW1,1,A*%
%TO.N,GND*%
X89180000Y-63250000D03*
%TO.P,SW1,2,B*%
%TO.N,/BOOT0*%
X89180000Y-66250000D03*
%TO.P,SW1,3,C*%
%TO.N,+3.3V*%
X89180000Y-67750000D03*
%TD*%
D12*
%TO.P,R4,1*%
%TO.N,+3.3V*%
X100770000Y-81250000D03*
%TO.P,R4,2*%
%TO.N,/I2C2_SCL*%
X99750000Y-81250000D03*
%TD*%
D13*
%TO.P,R2,1*%
%TO.N,/BOOT0*%
X91250000Y-64770000D03*
%TO.P,R2,2*%
X91250000Y-63750000D03*
%TD*%
D14*
%TO.P,U1,1,GND*%
%TO.N,GND*%
X114850000Y-76875000D03*
%TO.P,U1,2,VO*%
%TO.N,+3.3V*%
X112550000Y-76875000D03*
D15*
X112550000Y-83175000D03*
D14*
%TO.P,U1,3,VI*%
%TO.N,VBUS*%
X110250000Y-76875000D03*
%TD*%
D16*
%TO.P,J2,1,Pin_1*%
%TO.N,+3.3V*%
X101750000Y-57650000D03*
D17*
%TO.P,J2,2,Pin_2*%
%TO.N,/USART1_TX*%
X99210000Y-57650000D03*
%TO.P,J2,3,Pin_3*%
%TO.N,/USART1_RX*%
X96670000Y-57650000D03*
%TO.P,J2,4,Pin_4*%
%TO.N,GND*%
X94130000Y-57650000D03*
%TD*%
D18*
%TO.P,C12,1*%
%TO.N,/HSE_IN*%
X95300000Y-70530000D03*
%TO.P,C12,2*%
%TO.N,GND*%
X95300000Y-69570000D03*
%TD*%
D19*
%TO.P,U2,1,VBAT*%
%TO.N,+3.3V*%
X98587500Y-69500000D03*
%TO.P,U2,2,PC13*%
%TO.N,unconnected-(U2-PC13-Pad2)*%
X98587500Y-70000000D03*
%TO.P,U2,3,PC14*%
%TO.N,unconnected-(U2-PC14-Pad3)*%
X98587500Y-70500000D03*
%TO.P,U2,4,PC15*%
%TO.N,unconnected-(U2-PC15-Pad4)*%
X98587500Y-71000000D03*
%TO.P,U2,5,PD0*%
%TO.N,/HSE_IN*%
X98587500Y-71500000D03*
%TO.P,U2,6,PD1*%
%TO.N,/HSE_OUT*%
X98587500Y-72000000D03*
%TO.P,U2,7,NRST*%
%TO.N,/NRST*%
X98587500Y-72500000D03*
%TO.P,U2,8,VSSA*%
%TO.N,GND*%
X98587500Y-73000000D03*
%TO.P,U2,9,VDDA*%
%TO.N,+3.3VA*%
X98587500Y-73500000D03*
%TO.P,U2,10,PA0*%
%TO.N,unconnected-(U2-PA0-Pad10)*%
X98587500Y-74000000D03*
%TO.P,U2,11,PA1*%
%TO.N,unconnected-(U2-PA1-Pad11)*%
X98587500Y-74500000D03*
%TO.P,U2,12,PA2*%
%TO.N,unconnected-(U2-PA2-Pad12)*%
X98587500Y-75000000D03*
D20*
%TO.P,U2,13,PA3*%
%TO.N,unconnected-(U2-PA3-Pad13)*%
X100000000Y-76412500D03*
%TO.P,U2,14,PA4*%
%TO.N,unconnected-(U2-PA4-Pad14)*%
X100500000Y-76412500D03*
%TO.P,U2,15,PA5*%
%TO.N,unconnected-(U2-PA5-Pad15)*%
X101000000Y-76412500D03*
%TO.P,U2,16,PA6*%
%TO.N,unconnected-(U2-PA6-Pad16)*%
X101500000Y-76412500D03*
%TO.P,U2,17,PA7*%
%TO.N,unconnected-(U2-PA7-Pad17)*%
X102000000Y-76412500D03*
%TO.P,U2,18,PB0*%
%TO.N,unconnected-(U2-PB0-Pad18)*%
X102500000Y-76412500D03*
%TO.P,U2,19,PB1*%
%TO.N,unconnected-(U2-PB1-Pad19)*%
X103000000Y-76412500D03*
%TO.P,U2,20,PB2*%
%TO.N,unconnected-(U2-PB2-Pad20)*%
X103500000Y-76412500D03*
%TO.P,U2,21,PB10*%
%TO.N,/I2C2_SCL*%
X104000000Y-76412500D03*
%TO.P,U2,22,PB11*%
%TO.N,/I2C2_SDA*%
X104500000Y-76412500D03*
%TO.P,U2,23,VSS*%
%TO.N,GND*%
X105000000Y-76412500D03*
%TO.P,U2,24,VDD*%
%TO.N,+3.3V*%
X105500000Y-76412500D03*
D19*
%TO.P,U2,25,PB12*%
%TO.N,unconnected-(U2-PB12-Pad25)*%
X106912500Y-75000000D03*
%TO.P,U2,26,PB13*%
%TO.N,unconnected-(U2-PB13-Pad26)*%
X106912500Y-74500000D03*
%TO.P,U2,27,PB14*%
%TO.N,unconnected-(U2-PB14-Pad27)*%
X106912500Y-74000000D03*
%TO.P,U2,28,PB15*%
%TO.N,unconnected-(U2-PB15-Pad28)*%
X106912500Y-73500000D03*
%TO.P,U2,29,PA8*%
%TO.N,unconnected-(U2-PA8-Pad29)*%
X106912500Y-73000000D03*
%TO.P,U2,30,PA9*%
%TO.N,unconnected-(U2-PA9-Pad30)*%
X106912500Y-72500000D03*
%TO.P,U2,31,PA10*%
%TO.N,unconnected-(U2-PA10-Pad31)*%
X106912500Y-72000000D03*
%TO.P,U2,32,PA11*%
%TO.N,/USB_D-*%
X106912500Y-71500000D03*
%TO.P,U2,33,PA12*%
%TO.N,/USB_D+*%
X106912500Y-71000000D03*
%TO.P,U2,34,PA13*%
%TO.N,/SWDIO*%
X106912500Y-70500000D03*
%TO.P,U2,35,VSS*%
%TO.N,GND*%
X106912500Y-70000000D03*
%TO.P,U2,36,VDD*%
%TO.N,+3.3V*%
X106912500Y-69500000D03*
D20*
%TO.P,U2,37,PA14*%
%TO.N,/SWCLK*%
X105500000Y-68087500D03*
%TO.P,U2,38,PA15*%
%TO.N,unconnected-(U2-PA15-Pad38)*%
X105000000Y-68087500D03*
%TO.P,U2,39,PB3*%
%TO.N,unconnected-(U2-PB3-Pad39)*%
X104500000Y-68087500D03*
%TO.P,U2,40,PB4*%
%TO.N,unconnected-(U2-PB4-Pad40)*%
X104000000Y-68087500D03*
%TO.P,U2,41,PB5*%
%TO.N,unconnected-(U2-PB5-Pad41)*%
X103500000Y-68087500D03*
%TO.P,U2,42,PB6*%
%TO.N,/USART1_TX*%
X103000000Y-68087500D03*
%TO.P,U2,43,PB7*%
%TO.N,/USART1_RX*%
X102500000Y-68087500D03*
%TO.P,U2,44,BOOT0*%
%TO.N,/BOOT0*%
X102000000Y-68087500D03*
%TO.P,U2,45,PB8*%
%TO.N,unconnected-(U2-PB8-Pad45)*%
X101500000Y-68087500D03*
%TO.P,U2,46,PB9*%
%TO.N,unconnected-(U2-PB9-Pad46)*%
X101000000Y-68087500D03*
%TO.P,U2,47,VSS*%
%TO.N,GND*%
X100500000Y-68087500D03*
%TO.P,U2,48,VDD*%
%TO.N,+3.3V*%
X100000000Y-68087500D03*
%TD*%
D21*
%TO.P,C5,1*%
%TO.N,+3.3V*%
X106225000Y-78200000D03*
%TO.P,C5,2*%
%TO.N,GND*%
X105265000Y-78200000D03*
%TD*%
D18*
%TO.P,C8,1*%
%TO.N,+3.3VA*%
X96900000Y-73780000D03*
%TO.P,C8,2*%
%TO.N,GND*%
X96900000Y-72820000D03*
%TD*%
D22*
%TO.P,C2,1*%
%TO.N,+3.3V*%
X117550000Y-80075000D03*
%TO.P,C2,2*%
%TO.N,GND*%
X117550000Y-78175000D03*
%TD*%
D18*
%TO.P,C4,1*%
%TO.N,+3.3V*%
X96800000Y-69500000D03*
%TO.P,C4,2*%
%TO.N,GND*%
X96800000Y-68540000D03*
%TD*%
D23*
%TO.P,C6,1*%
%TO.N,+3.3V*%
X108750000Y-69290000D03*
%TO.P,C6,2*%
%TO.N,GND*%
X108750000Y-70250000D03*
%TD*%
D24*
%TO.P,C1,1*%
%TO.N,VBUS*%
X111750000Y-74225000D03*
%TO.P,C1,2*%
%TO.N,GND*%
X113650000Y-74225000D03*
%TD*%
D25*
%TO.P,R1,1*%
%TO.N,/PWR_LED_K*%
X121000000Y-76500000D03*
%TO.P,R1,2*%
%TO.N,GND*%
X122020000Y-76500000D03*
%TD*%
D26*
%TO.P,J1,1,VBUS*%
%TO.N,VBUS*%
X119900000Y-72225000D03*
%TO.P,J1,2,D-*%
%TO.N,/USB_D-*%
X119900000Y-71575000D03*
%TO.P,J1,3,D+*%
%TO.N,/USB_D+*%
X119900000Y-70925000D03*
%TO.P,J1,4,ID*%
%TO.N,unconnected-(J1-ID-Pad4)*%
X119900000Y-70275000D03*
%TO.P,J1,5,GND*%
%TO.N,GND*%
X119900000Y-69625000D03*
D27*
%TO.P,J1,6,Shield*%
%TO.N,unconnected-(J1-Shield-Pad6)_2*%
X123750000Y-74800000D03*
D28*
%TO.N,unconnected-(J1-Shield-Pad6)*%
X119950000Y-74650000D03*
%TO.N,unconnected-(J1-Shield-Pad6)_1*%
X119950000Y-67200000D03*
D27*
%TO.N,unconnected-(J1-Shield-Pad6)_0*%
X123750000Y-67050000D03*
%TD*%
D29*
%TO.P,Y1,1,1*%
%TO.N,/HSE_IN*%
X91950000Y-69800000D03*
%TO.P,Y1,2,2*%
%TO.N,GND*%
X91950000Y-72000000D03*
%TO.P,Y1,3,3*%
%TO.N,/HSE_OUT*%
X93650000Y-72000000D03*
%TO.P,Y1,4,4*%
%TO.N,GND*%
X93650000Y-69800000D03*
%TD*%
D30*
%TO.P,FB1,1*%
%TO.N,+3.3VA*%
X97625000Y-76775000D03*
%TO.P,FB1,2*%
%TO.N,+3.3V*%
X97625000Y-78350000D03*
%TD*%
D31*
%TO.P,C11,1*%
%TO.N,/NRST*%
X99740000Y-78750000D03*
%TO.P,C11,2*%
%TO.N,GND*%
X100700000Y-78750000D03*
%TD*%
D21*
%TO.P,C9,1*%
%TO.N,+3.3VA*%
X96375000Y-76775000D03*
%TO.P,C9,2*%
%TO.N,GND*%
X95415000Y-76775000D03*
%TD*%
D16*
%TO.P,J4,1,Pin_1*%
%TO.N,+3.3V*%
X98380000Y-84000000D03*
D17*
%TO.P,J4,2,Pin_2*%
%TO.N,/I2C2_SCL*%
X100920000Y-84000000D03*
%TO.P,J4,3,Pin_3*%
%TO.N,/I2C2_SDA*%
X103460000Y-84000000D03*
%TO.P,J4,4,Pin_4*%
%TO.N,GND*%
X106000000Y-84000000D03*
%TD*%
D16*
%TO.P,J3,1,Pin_1*%
%TO.N,+3.3V*%
X117040000Y-57750000D03*
D17*
%TO.P,J3,2,Pin_2*%
%TO.N,/SWDIO*%
X114500000Y-57750000D03*
%TO.P,J3,3,Pin_3*%
%TO.N,/SWCLK*%
X111960000Y-57750000D03*
%TO.P,J3,4,Pin_4*%
%TO.N,GND*%
X109420000Y-57750000D03*
%TD*%
D25*
%TO.P,R5,1*%
%TO.N,+3.3V*%
X102805000Y-81275000D03*
%TO.P,R5,2*%
%TO.N,/I2C2_SDA*%
X103825000Y-81275000D03*
%TD*%
D30*
%TO.P,D1,1,K*%
%TO.N,/PWR_LED_K*%
X121000000Y-78512500D03*
%TO.P,D1,2,A*%
%TO.N,+3.3V*%
X121000000Y-80087500D03*
%TD*%
D31*
%TO.P,C7,1*%
%TO.N,+3.3V*%
X99790000Y-66250000D03*
%TO.P,C7,2*%
%TO.N,GND*%
X100750000Y-66250000D03*
%TD*%
D21*
%TO.P,C10,1*%
%TO.N,+3.3V*%
X96350000Y-78350000D03*
%TO.P,C10,2*%
%TO.N,GND*%
X95390000Y-78350000D03*
%TD*%
D32*
%TO.P,R3,1*%
%TO.N,+3.3V*%
X112250000Y-69830000D03*
%TO.P,R3,2*%
%TO.N,/USB_D+*%
X112250000Y-70850000D03*
%TD*%
D18*
%TO.P,C13,1*%
%TO.N,/HSE_OUT*%
X95300000Y-72490000D03*
%TO.P,C13,2*%
%TO.N,GND*%
X95300000Y-71530000D03*
%TD*%
D33*
%TO.P,C3,1*%
%TO.N,+3.3V*%
X99450000Y-64750000D03*
%TO.P,C3,2*%
%TO.N,GND*%
X101000000Y-64750000D03*
%TD*%
D34*
%TO.N,GND*%
X118500000Y-69625000D03*
X89850000Y-62225000D03*
X109900000Y-70225000D03*
%TO.N,+3.3V*%
X121865152Y-75680043D03*
X122875000Y-78200000D03*
%TO.N,GND*%
X100500000Y-69700000D03*
X96300000Y-71375000D03*
X95300000Y-68600000D03*
X93675000Y-68150000D03*
X91975000Y-73625000D03*
X95425000Y-75425000D03*
X95425000Y-79500000D03*
%TO.N,+3.3V*%
X98750000Y-82175000D03*
X101675000Y-82175000D03*
X104700000Y-79925000D03*
X103050000Y-79925000D03*
%TO.N,GND*%
X100075000Y-73175000D03*
X115100000Y-74525000D03*
X114600000Y-78425000D03*
X96800000Y-67475000D03*
X115100000Y-73775000D03*
X105000000Y-75050000D03*
X101675000Y-78500000D03*
X115400000Y-78400000D03*
X118925000Y-78150000D03*
X123000000Y-76500000D03*
%TD*%
D35*
%TO.N,/BOOT0*%
X92175000Y-61775000D02*
X91250000Y-62700000D01*
X91250000Y-62700000D02*
X91250000Y-63750000D01*
X91250000Y-65400000D02*
X91250000Y-64770000D01*
X90975000Y-65675000D02*
X91250000Y-65400000D01*
%TO.N,GND*%
X119900000Y-69625000D02*
X118500000Y-69625000D01*
%TO.N,/BOOT0*%
X100950000Y-61775000D02*
X92175000Y-61775000D01*
X102000000Y-62825000D02*
X100950000Y-61775000D01*
X102000000Y-68087500D02*
X102000000Y-62825000D01*
D36*
%TO.N,GND*%
X89775000Y-63100000D02*
X89850000Y-63025000D01*
X89850000Y-63025000D02*
X89850000Y-62225000D01*
X89180000Y-63250000D02*
X89625000Y-63250000D01*
X89625000Y-63250000D02*
X89775000Y-63100000D01*
%TO.N,+3.3V*%
X119500000Y-84150000D02*
X119500000Y-81175000D01*
X118175000Y-85475000D02*
X119500000Y-84150000D01*
X110725000Y-85475000D02*
X118175000Y-85475000D01*
X108000000Y-82750000D02*
X110725000Y-85475000D01*
X108000000Y-79950000D02*
X108000000Y-82750000D01*
X115950000Y-55950000D02*
X103450000Y-55950000D01*
X103050000Y-56350000D02*
X101750000Y-57650000D01*
X117040000Y-57040000D02*
X115950000Y-55950000D01*
X103450000Y-55950000D02*
X103050000Y-56350000D01*
X117040000Y-57750000D02*
X117040000Y-57040000D01*
X113970000Y-69830000D02*
X119912500Y-63887500D01*
X112250000Y-69830000D02*
X113970000Y-69830000D01*
X119912500Y-63887500D02*
X117040000Y-61015000D01*
X121900000Y-65875000D02*
X119912500Y-63887500D01*
X110655000Y-69830000D02*
X112250000Y-69830000D01*
X110115000Y-69290000D02*
X110655000Y-69830000D01*
X108750000Y-69290000D02*
X110115000Y-69290000D01*
D35*
%TO.N,GND*%
X109875000Y-70250000D02*
X109900000Y-70225000D01*
X108750000Y-70250000D02*
X109875000Y-70250000D01*
D36*
%TO.N,+3.3V*%
X117040000Y-61015000D02*
X117040000Y-57750000D01*
X121900000Y-75645195D02*
X121900000Y-65875000D01*
X121865152Y-75680043D02*
X121900000Y-75645195D01*
X122000000Y-81175000D02*
X122875000Y-80300000D01*
X119500000Y-80075000D02*
X119500000Y-81175000D01*
X119500000Y-81175000D02*
X122000000Y-81175000D01*
X122875000Y-80300000D02*
X122875000Y-78200000D01*
X90550000Y-67750000D02*
X90600000Y-67800000D01*
X90600000Y-67800000D02*
X90600000Y-78775000D01*
X90600000Y-67125000D02*
X90600000Y-67800000D01*
X89180000Y-67750000D02*
X90550000Y-67750000D01*
%TO.N,+3.3VA*%
X96900000Y-74875000D02*
X96375000Y-75400000D01*
X96900000Y-73780000D02*
X96900000Y-74875000D01*
X96375000Y-75400000D02*
X96375000Y-76775000D01*
D35*
%TO.N,GND*%
X100500000Y-68087500D02*
X100500000Y-69700000D01*
D36*
%TO.N,+3.3V*%
X98575000Y-67425000D02*
X98575000Y-69400000D01*
X98000000Y-64750000D02*
X98000000Y-66850000D01*
X98000000Y-64750000D02*
X92975000Y-64750000D01*
X98575000Y-69400000D02*
X98587500Y-69400000D01*
X98000000Y-66850000D02*
X98575000Y-67425000D01*
X99450000Y-64750000D02*
X98000000Y-64750000D01*
%TO.N,GND*%
X96145000Y-71530000D02*
X96300000Y-71375000D01*
X95300000Y-71530000D02*
X96145000Y-71530000D01*
X95300000Y-69570000D02*
X95300000Y-68600000D01*
X93650000Y-68175000D02*
X93675000Y-68150000D01*
X93650000Y-69800000D02*
X93650000Y-68175000D01*
X91950000Y-73600000D02*
X91975000Y-73625000D01*
X91950000Y-72000000D02*
X91950000Y-73600000D01*
%TO.N,+3.3V*%
X90600000Y-78775000D02*
X93925000Y-82100000D01*
X92975000Y-64750000D02*
X90600000Y-67125000D01*
D35*
%TO.N,/BOOT0*%
X89180000Y-65970000D02*
X89180000Y-66250000D01*
X89475000Y-65675000D02*
X89180000Y-65970000D01*
X90975000Y-65675000D02*
X89475000Y-65675000D01*
D36*
%TO.N,GND*%
X95415000Y-75435000D02*
X95425000Y-75425000D01*
X95415000Y-76775000D02*
X95415000Y-75435000D01*
X95390000Y-79465000D02*
X95425000Y-79500000D01*
X95390000Y-78350000D02*
X95390000Y-79465000D01*
%TO.N,+3.3V*%
X97625000Y-78350000D02*
X97625000Y-82150000D01*
X97625000Y-82150000D02*
X97650000Y-82175000D01*
X94000000Y-82175000D02*
X93925000Y-82100000D01*
X97650000Y-82175000D02*
X94000000Y-82175000D01*
X98380000Y-82905000D02*
X97650000Y-82175000D01*
X97650000Y-82175000D02*
X98750000Y-82175000D01*
X98380000Y-84000000D02*
X98380000Y-82905000D01*
X97625000Y-78350000D02*
X96350000Y-78350000D01*
%TO.N,+3.3VA*%
X97625000Y-76775000D02*
X96375000Y-76775000D01*
%TO.N,+3.3V*%
X100795000Y-81295000D02*
X101675000Y-82175000D01*
D35*
X100795000Y-81275000D02*
X100795000Y-81295000D01*
D36*
X102805000Y-81275000D02*
X100795000Y-81275000D01*
D35*
X100795000Y-81275000D02*
X100770000Y-81250000D01*
D36*
X102800000Y-80175000D02*
X102800000Y-80650000D01*
D35*
X102800000Y-80650000D02*
X102805000Y-80655000D01*
D36*
X103050000Y-79925000D02*
X102800000Y-80175000D01*
X102805000Y-80655000D02*
X102805000Y-81275000D01*
D35*
X104725000Y-79950000D02*
X104700000Y-79925000D01*
D36*
X108000000Y-79950000D02*
X104725000Y-79950000D01*
X107000000Y-78200000D02*
X106225000Y-78200000D01*
X108000000Y-79200000D02*
X107000000Y-78200000D01*
X108000000Y-79950000D02*
X108000000Y-79200000D01*
D35*
%TO.N,/I2C2_SDA*%
X104500000Y-78125000D02*
X104500000Y-76412500D01*
X103825000Y-78800000D02*
X104500000Y-78125000D01*
X103825000Y-81275000D02*
X103825000Y-78800000D01*
D36*
%TO.N,+3.3V*%
X119500000Y-80075000D02*
X120987500Y-80075000D01*
X117550000Y-80075000D02*
X119500000Y-80075000D01*
%TO.N,/PWR_LED_K*%
X121000000Y-78512500D02*
X121000000Y-76500000D01*
%TO.N,+3.3V*%
X120987500Y-80075000D02*
X121000000Y-80087500D01*
D35*
X106225000Y-77925000D02*
X105500000Y-77200000D01*
X108110000Y-69290000D02*
X107900000Y-69500000D01*
X99790000Y-66250000D02*
X99790000Y-67060000D01*
D36*
X99450000Y-65450000D02*
X99790000Y-65790000D01*
D35*
X106225000Y-78200000D02*
X106225000Y-77925000D01*
X107900000Y-69500000D02*
X106912500Y-69500000D01*
X100000000Y-68087500D02*
X100000000Y-67270000D01*
X98587500Y-69500000D02*
X96800000Y-69500000D01*
X108750000Y-69290000D02*
X108110000Y-69290000D01*
D36*
X99450000Y-64750000D02*
X99450000Y-65450000D01*
X99790000Y-65790000D02*
X99790000Y-66250000D01*
D35*
X100000000Y-67270000D02*
X99790000Y-67060000D01*
X105500000Y-76412500D02*
X105500000Y-77200000D01*
%TO.N,+3.3VA*%
X96900000Y-73780000D02*
X97420000Y-73780000D01*
X97420000Y-73780000D02*
X97700000Y-73500000D01*
X97700000Y-73500000D02*
X98587500Y-73500000D01*
%TO.N,/NRST*%
X99740000Y-78750000D02*
X99150000Y-78750000D01*
X100319239Y-72500000D02*
X98587500Y-72500000D01*
X100725000Y-72905761D02*
X100319239Y-72500000D01*
X99150000Y-78750000D02*
X98825000Y-78425000D01*
X100725000Y-74300000D02*
X100725000Y-72905761D01*
X98825000Y-78425000D02*
X98825000Y-76200000D01*
X98825000Y-76200000D02*
X100725000Y-74300000D01*
%TO.N,/HSE_IN*%
X92700000Y-70850000D02*
X94700000Y-70850000D01*
X98587500Y-71500000D02*
X97350000Y-71500000D01*
X96380000Y-70530000D02*
X95300000Y-70530000D01*
X91950000Y-70100000D02*
X92700000Y-70850000D01*
X94700000Y-70850000D02*
X95020000Y-70530000D01*
X91950000Y-69800000D02*
X91950000Y-70100000D01*
X95020000Y-70530000D02*
X95300000Y-70530000D01*
X97350000Y-71500000D02*
X96380000Y-70530000D01*
%TO.N,/HSE_OUT*%
X94140000Y-72490000D02*
X93650000Y-72000000D01*
X95300000Y-72490000D02*
X94140000Y-72490000D01*
X96550000Y-72000000D02*
X96050000Y-72500000D01*
X95790000Y-72490000D02*
X95300000Y-72490000D01*
X96050000Y-72500000D02*
X95800000Y-72500000D01*
X95800000Y-72500000D02*
X95790000Y-72490000D01*
X96550000Y-72000000D02*
X98587500Y-72000000D01*
D37*
%TO.N,/USB_D-*%
X108043751Y-71475000D02*
X118824999Y-71475000D01*
X106912500Y-71500000D02*
X108018751Y-71500000D01*
X118924999Y-71575000D02*
X119900000Y-71575000D01*
X118824999Y-71475000D02*
X118924999Y-71575000D01*
X108018751Y-71500000D02*
X108043751Y-71475000D01*
%TO.N,/USB_D+*%
X108043751Y-71025000D02*
X118824999Y-71025000D01*
X118924999Y-70925000D02*
X119900000Y-70925000D01*
X108018751Y-71000000D02*
X108043751Y-71025000D01*
X106912500Y-71000000D02*
X108018751Y-71000000D01*
X118824999Y-71025000D02*
X118924999Y-70925000D01*
D35*
%TO.N,/USART1_RX*%
X103200000Y-65350000D02*
X103200000Y-62100000D01*
X102500000Y-66050000D02*
X103200000Y-65350000D01*
X102500000Y-68087500D02*
X102500000Y-66050000D01*
X103200000Y-62100000D02*
X101400000Y-60300000D01*
X96670000Y-59620000D02*
X96670000Y-57650000D01*
X101400000Y-60300000D02*
X97350000Y-60300000D01*
X97350000Y-60300000D02*
X96670000Y-59620000D01*
%TO.N,/USART1_TX*%
X101900000Y-59450000D02*
X99750000Y-59450000D01*
X99750000Y-59450000D02*
X99210000Y-58910000D01*
X103000000Y-68087500D02*
X103000000Y-67246880D01*
X104200000Y-61750000D02*
X101900000Y-59450000D01*
X99210000Y-58910000D02*
X99210000Y-57650000D01*
X104200000Y-66046880D02*
X104200000Y-61750000D01*
X103000000Y-67246880D02*
X104200000Y-66046880D01*
%TO.N,/SWCLK*%
X105500000Y-65950000D02*
X111960000Y-59490000D01*
X105500000Y-68087500D02*
X105500000Y-65950000D01*
X111960000Y-59490000D02*
X111960000Y-57750000D01*
%TO.N,/SWDIO*%
X114500000Y-60500000D02*
X114500000Y-57750000D01*
X105753120Y-69246880D02*
X114500000Y-60500000D01*
X106912500Y-70500000D02*
X106071880Y-70500000D01*
X106071880Y-70500000D02*
X105753120Y-70181240D01*
X105753120Y-70181240D02*
X105753120Y-69246880D01*
%TO.N,/I2C2_SCL*%
X101375000Y-80075000D02*
X100125000Y-80075000D01*
X100125000Y-80075000D02*
X99750000Y-80450000D01*
X104000000Y-77450000D02*
X101375000Y-80075000D01*
X104000000Y-76412500D02*
X104000000Y-77450000D01*
X100920000Y-82995000D02*
X100920000Y-84000000D01*
X99750000Y-81825000D02*
X100920000Y-82995000D01*
X99750000Y-80450000D02*
X99750000Y-81250000D01*
X99750000Y-81250000D02*
X99750000Y-81825000D01*
%TO.N,/I2C2_SDA*%
X103825000Y-81275000D02*
X103825000Y-82050000D01*
X103825000Y-82050000D02*
X103460000Y-82415000D01*
X103460000Y-82415000D02*
X103460000Y-84000000D01*
D36*
%TO.N,GND*%
X96800000Y-68540000D02*
X96800000Y-67475000D01*
X101000000Y-65600000D02*
X101000000Y-64750000D01*
D35*
X108100000Y-70250000D02*
X107850000Y-70000000D01*
X117550000Y-78200000D02*
X118875000Y-78200000D01*
X105265000Y-77815000D02*
X105265000Y-78200000D01*
X107850000Y-70000000D02*
X106912500Y-70000000D01*
X105000000Y-76412500D02*
X105000000Y-75050000D01*
X101425000Y-78750000D02*
X101675000Y-78500000D01*
X100500000Y-68087500D02*
X100500000Y-67246880D01*
X99900000Y-73000000D02*
X100075000Y-73175000D01*
X97650000Y-73000000D02*
X98587500Y-73000000D01*
X100500000Y-67246880D02*
X100746880Y-67000000D01*
X122020000Y-76500000D02*
X123000000Y-76500000D01*
D36*
X100750000Y-65850000D02*
X101000000Y-65600000D01*
D35*
X100700000Y-78750000D02*
X101425000Y-78750000D01*
X117550000Y-78175000D02*
X117550000Y-78200000D01*
X118875000Y-78200000D02*
X118925000Y-78150000D01*
X105000000Y-77550000D02*
X105265000Y-77815000D01*
X100746880Y-67000000D02*
X100750000Y-67000000D01*
X97470000Y-72820000D02*
X97650000Y-73000000D01*
X105000000Y-76412500D02*
X105000000Y-77550000D01*
X96900000Y-72820000D02*
X97470000Y-72820000D01*
D36*
X100750000Y-66250000D02*
X100750000Y-65850000D01*
D35*
X98587500Y-73000000D02*
X99900000Y-73000000D01*
X108750000Y-70250000D02*
X108100000Y-70250000D01*
X100750000Y-67000000D02*
X100750000Y-66250000D01*
%TD*%
%TA.AperFunction,Conductor*%
%TO.N,GND*%
G36*
X115555099Y-73269685D02*
G01*
X115555876Y-73270188D01*
X116118383Y-73637981D01*
X116163720Y-73691142D01*
X116174520Y-73742643D01*
X116149999Y-77200000D01*
X116575000Y-77500000D01*
X119167071Y-77500000D01*
X119228591Y-77516337D01*
X119312522Y-77564298D01*
X119360961Y-77614648D01*
X119375000Y-77671959D01*
X119375000Y-78698638D01*
X119355315Y-78765677D01*
X119338681Y-78786319D01*
X119236319Y-78888681D01*
X119174996Y-78922166D01*
X119148638Y-78925000D01*
X114191333Y-78925000D01*
X114124294Y-78905315D01*
X114116933Y-78900200D01*
X114101574Y-78888681D01*
X114000060Y-78812545D01*
X113958239Y-78756574D01*
X113950463Y-78712429D01*
X113975000Y-75400000D01*
X113974998Y-75399998D01*
X113974999Y-75399998D01*
X113800000Y-75225000D01*
X113084345Y-75225000D01*
X113020548Y-75207329D01*
X112890063Y-75129038D01*
X112842704Y-75077667D01*
X112830637Y-75008847D01*
X112834882Y-74987776D01*
X112843124Y-74959710D01*
X112855500Y-74873638D01*
X112855500Y-73430889D01*
X112875185Y-73363850D01*
X112898802Y-73336741D01*
X112965173Y-73279852D01*
X113028884Y-73251169D01*
X113045871Y-73250000D01*
X115488060Y-73250000D01*
X115555099Y-73269685D01*
G37*
%TD.AperFunction*%
%TD*%
%TA.AperFunction,Conductor*%
%TO.N,+3.3V*%
G36*
X113189317Y-75648971D02*
G01*
X113256013Y-75669789D01*
X113286414Y-75698552D01*
X113417771Y-75873694D01*
X113525200Y-76016933D01*
X113549676Y-76082375D01*
X113550000Y-76091333D01*
X113550000Y-79325000D01*
X113800000Y-79750000D01*
X116275000Y-79750000D01*
X116688057Y-79291048D01*
X116747535Y-79254387D01*
X116780225Y-79250000D01*
X118163000Y-79250000D01*
X118230039Y-79269685D01*
X118262200Y-79299600D01*
X118501157Y-79618210D01*
X118525633Y-79683652D01*
X118525923Y-79689727D01*
X118549999Y-80725000D01*
X118733381Y-80888005D01*
X118770409Y-80947256D01*
X118775000Y-80980684D01*
X118775000Y-83939640D01*
X118755315Y-84006679D01*
X118727493Y-84037235D01*
X117883689Y-84698595D01*
X117818782Y-84724457D01*
X117807196Y-84725000D01*
X110979292Y-84725000D01*
X110912253Y-84705315D01*
X110888176Y-84685107D01*
X110357884Y-84110624D01*
X110326877Y-84048011D01*
X110325000Y-84026517D01*
X110325000Y-80047733D01*
X110344685Y-79980694D01*
X110357003Y-79964591D01*
X111500000Y-78700000D01*
X111500000Y-78104709D01*
X111519685Y-78037670D01*
X111527449Y-78026903D01*
X111543174Y-78007388D01*
X111543192Y-78007366D01*
X111547553Y-78001825D01*
X111598439Y-77901749D01*
X111618124Y-77834710D01*
X111630500Y-77748638D01*
X111630500Y-75873694D01*
X111650185Y-75806655D01*
X111652297Y-75803476D01*
X111737284Y-75679858D01*
X111791483Y-75635769D01*
X111841563Y-75626128D01*
X113189317Y-75648971D01*
G37*
%TD.AperFunction*%
%TD*%
%TA.AperFunction,Conductor*%
%TO.N,VBUS*%
G36*
X118673255Y-71892113D02*
G01*
X118679084Y-71895478D01*
X118679086Y-71895480D01*
X118770412Y-71948207D01*
X118872272Y-71975500D01*
X118949167Y-71975500D01*
X119016206Y-71995185D01*
X119036848Y-72011819D01*
X119077235Y-72052206D01*
X119180009Y-72097585D01*
X119205135Y-72100500D01*
X120594864Y-72100499D01*
X120594879Y-72100497D01*
X120594882Y-72100497D01*
X120619987Y-72097586D01*
X120619987Y-72097585D01*
X120619991Y-72097585D01*
X120650915Y-72083930D01*
X120720191Y-72074859D01*
X120783376Y-72104682D01*
X120820408Y-72163931D01*
X120825000Y-72197365D01*
X120825000Y-72461856D01*
X120805315Y-72528895D01*
X120773934Y-72562138D01*
X120582609Y-72701283D01*
X120516816Y-72724794D01*
X120509678Y-72725000D01*
X113025000Y-72725000D01*
X112899999Y-72825000D01*
X112550000Y-73125000D01*
X112550000Y-74873638D01*
X112530315Y-74940677D01*
X112513681Y-74961319D01*
X112286319Y-75188681D01*
X112224996Y-75222166D01*
X112198638Y-75225000D01*
X111624999Y-75225000D01*
X111325000Y-75524999D01*
X111325000Y-77748638D01*
X111305315Y-77815677D01*
X111288681Y-77836319D01*
X110986319Y-78138681D01*
X110924996Y-78172166D01*
X110898638Y-78175000D01*
X109517887Y-78175000D01*
X109450848Y-78155315D01*
X109441285Y-78148510D01*
X109171679Y-77936677D01*
X109131129Y-77879783D01*
X109124301Y-77840638D01*
X109100392Y-75808340D01*
X109116381Y-75745960D01*
X109650000Y-74800000D01*
X109650000Y-73272873D01*
X109669685Y-73205834D01*
X109682171Y-73189546D01*
X110012963Y-72825000D01*
X110837639Y-71916172D01*
X110897266Y-71879754D01*
X110929468Y-71875500D01*
X118611255Y-71875500D01*
X118673255Y-71892113D01*
G37*
%TD.AperFunction*%
%TD*%
M02*
