%TF.GenerationSoftware,KiCad,Pcbnew,8.0.0*%
%TF.CreationDate,2024-04-09T16:17:44+09:00*%
%TF.ProjectId,240325_ESP32_d0146,32343033-3235-45f4-9553-5033325f6430,rev?*%
%TF.SameCoordinates,Original*%
%TF.FileFunction,Legend,Top*%
%TF.FilePolarity,Positive*%
%FSLAX46Y46*%
G04 Gerber Fmt 4.6, Leading zero omitted, Abs format (unit mm)*
G04 Created by KiCad (PCBNEW 8.0.0) date 2024-04-09 16:17:44*
%MOMM*%
%LPD*%
G01*
G04 APERTURE LIST*
%ADD10C,0.200000*%
%ADD11C,0.100000*%
%ADD12C,0.150000*%
%ADD13C,0.120000*%
G04 APERTURE END LIST*
D10*
X121979197Y-63936623D02*
X121979197Y-64948528D01*
X121979197Y-64948528D02*
X122038720Y-65067576D01*
X122038720Y-65067576D02*
X122098244Y-65127100D01*
X122098244Y-65127100D02*
X122217292Y-65186623D01*
X122217292Y-65186623D02*
X122455387Y-65186623D01*
X122455387Y-65186623D02*
X122574435Y-65127100D01*
X122574435Y-65127100D02*
X122633958Y-65067576D01*
X122633958Y-65067576D02*
X122693482Y-64948528D01*
X122693482Y-64948528D02*
X122693482Y-63936623D01*
X123229197Y-65127100D02*
X123407768Y-65186623D01*
X123407768Y-65186623D02*
X123705387Y-65186623D01*
X123705387Y-65186623D02*
X123824435Y-65127100D01*
X123824435Y-65127100D02*
X123883959Y-65067576D01*
X123883959Y-65067576D02*
X123943482Y-64948528D01*
X123943482Y-64948528D02*
X123943482Y-64829480D01*
X123943482Y-64829480D02*
X123883959Y-64710433D01*
X123883959Y-64710433D02*
X123824435Y-64650909D01*
X123824435Y-64650909D02*
X123705387Y-64591385D01*
X123705387Y-64591385D02*
X123467292Y-64531861D01*
X123467292Y-64531861D02*
X123348244Y-64472338D01*
X123348244Y-64472338D02*
X123288721Y-64412814D01*
X123288721Y-64412814D02*
X123229197Y-64293766D01*
X123229197Y-64293766D02*
X123229197Y-64174719D01*
X123229197Y-64174719D02*
X123288721Y-64055671D01*
X123288721Y-64055671D02*
X123348244Y-63996147D01*
X123348244Y-63996147D02*
X123467292Y-63936623D01*
X123467292Y-63936623D02*
X123764911Y-63936623D01*
X123764911Y-63936623D02*
X123943482Y-63996147D01*
X124895863Y-64531861D02*
X125074435Y-64591385D01*
X125074435Y-64591385D02*
X125133958Y-64650909D01*
X125133958Y-64650909D02*
X125193482Y-64769957D01*
X125193482Y-64769957D02*
X125193482Y-64948528D01*
X125193482Y-64948528D02*
X125133958Y-65067576D01*
X125133958Y-65067576D02*
X125074435Y-65127100D01*
X125074435Y-65127100D02*
X124955387Y-65186623D01*
X124955387Y-65186623D02*
X124479197Y-65186623D01*
X124479197Y-65186623D02*
X124479197Y-63936623D01*
X124479197Y-63936623D02*
X124895863Y-63936623D01*
X124895863Y-63936623D02*
X125014911Y-63996147D01*
X125014911Y-63996147D02*
X125074435Y-64055671D01*
X125074435Y-64055671D02*
X125133958Y-64174719D01*
X125133958Y-64174719D02*
X125133958Y-64293766D01*
X125133958Y-64293766D02*
X125074435Y-64412814D01*
X125074435Y-64412814D02*
X125014911Y-64472338D01*
X125014911Y-64472338D02*
X124895863Y-64531861D01*
X124895863Y-64531861D02*
X124479197Y-64531861D01*
X122992292Y-78736623D02*
X123230387Y-78736623D01*
X123230387Y-78736623D02*
X123349435Y-78796147D01*
X123349435Y-78796147D02*
X123468482Y-78915195D01*
X123468482Y-78915195D02*
X123528006Y-79153290D01*
X123528006Y-79153290D02*
X123528006Y-79569957D01*
X123528006Y-79569957D02*
X123468482Y-79808052D01*
X123468482Y-79808052D02*
X123349435Y-79927100D01*
X123349435Y-79927100D02*
X123230387Y-79986623D01*
X123230387Y-79986623D02*
X122992292Y-79986623D01*
X122992292Y-79986623D02*
X122873244Y-79927100D01*
X122873244Y-79927100D02*
X122754197Y-79808052D01*
X122754197Y-79808052D02*
X122694673Y-79569957D01*
X122694673Y-79569957D02*
X122694673Y-79153290D01*
X122694673Y-79153290D02*
X122754197Y-78915195D01*
X122754197Y-78915195D02*
X122873244Y-78796147D01*
X122873244Y-78796147D02*
X122992292Y-78736623D01*
X124063721Y-79986623D02*
X124063721Y-78736623D01*
X124063721Y-78736623D02*
X124778006Y-79986623D01*
X124778006Y-79986623D02*
X124778006Y-78736623D01*
X93579197Y-84761623D02*
X93579197Y-83511623D01*
X94114911Y-83630671D02*
X94174435Y-83571147D01*
X94174435Y-83571147D02*
X94293482Y-83511623D01*
X94293482Y-83511623D02*
X94591101Y-83511623D01*
X94591101Y-83511623D02*
X94710149Y-83571147D01*
X94710149Y-83571147D02*
X94769673Y-83630671D01*
X94769673Y-83630671D02*
X94829196Y-83749719D01*
X94829196Y-83749719D02*
X94829196Y-83868766D01*
X94829196Y-83868766D02*
X94769673Y-84047338D01*
X94769673Y-84047338D02*
X94055387Y-84761623D01*
X94055387Y-84761623D02*
X94829196Y-84761623D01*
X96079196Y-84642576D02*
X96019672Y-84702100D01*
X96019672Y-84702100D02*
X95841101Y-84761623D01*
X95841101Y-84761623D02*
X95722053Y-84761623D01*
X95722053Y-84761623D02*
X95543482Y-84702100D01*
X95543482Y-84702100D02*
X95424434Y-84583052D01*
X95424434Y-84583052D02*
X95364911Y-84464004D01*
X95364911Y-84464004D02*
X95305387Y-84225909D01*
X95305387Y-84225909D02*
X95305387Y-84047338D01*
X95305387Y-84047338D02*
X95364911Y-83809242D01*
X95364911Y-83809242D02*
X95424434Y-83690195D01*
X95424434Y-83690195D02*
X95543482Y-83571147D01*
X95543482Y-83571147D02*
X95722053Y-83511623D01*
X95722053Y-83511623D02*
X95841101Y-83511623D01*
X95841101Y-83511623D02*
X96019672Y-83571147D01*
X96019672Y-83571147D02*
X96079196Y-83630671D01*
D11*
X91527693Y-68247419D02*
X90956265Y-68247419D01*
X91241979Y-68247419D02*
X91241979Y-67247419D01*
X91241979Y-67247419D02*
X91146741Y-67390276D01*
X91146741Y-67390276D02*
X91051503Y-67485514D01*
X91051503Y-67485514D02*
X90956265Y-67533133D01*
X91209836Y-66010514D02*
X91209836Y-66772419D01*
X91400312Y-66581942D02*
X91209836Y-66772419D01*
X91209836Y-66772419D02*
X91019360Y-66581942D01*
D10*
X86470863Y-71481861D02*
X86649435Y-71541385D01*
X86649435Y-71541385D02*
X86708958Y-71600909D01*
X86708958Y-71600909D02*
X86768482Y-71719957D01*
X86768482Y-71719957D02*
X86768482Y-71898528D01*
X86768482Y-71898528D02*
X86708958Y-72017576D01*
X86708958Y-72017576D02*
X86649435Y-72077100D01*
X86649435Y-72077100D02*
X86530387Y-72136623D01*
X86530387Y-72136623D02*
X86054197Y-72136623D01*
X86054197Y-72136623D02*
X86054197Y-70886623D01*
X86054197Y-70886623D02*
X86470863Y-70886623D01*
X86470863Y-70886623D02*
X86589911Y-70946147D01*
X86589911Y-70946147D02*
X86649435Y-71005671D01*
X86649435Y-71005671D02*
X86708958Y-71124719D01*
X86708958Y-71124719D02*
X86708958Y-71243766D01*
X86708958Y-71243766D02*
X86649435Y-71362814D01*
X86649435Y-71362814D02*
X86589911Y-71422338D01*
X86589911Y-71422338D02*
X86470863Y-71481861D01*
X86470863Y-71481861D02*
X86054197Y-71481861D01*
X87542292Y-70886623D02*
X87780387Y-70886623D01*
X87780387Y-70886623D02*
X87899435Y-70946147D01*
X87899435Y-70946147D02*
X88018482Y-71065195D01*
X88018482Y-71065195D02*
X88078006Y-71303290D01*
X88078006Y-71303290D02*
X88078006Y-71719957D01*
X88078006Y-71719957D02*
X88018482Y-71958052D01*
X88018482Y-71958052D02*
X87899435Y-72077100D01*
X87899435Y-72077100D02*
X87780387Y-72136623D01*
X87780387Y-72136623D02*
X87542292Y-72136623D01*
X87542292Y-72136623D02*
X87423244Y-72077100D01*
X87423244Y-72077100D02*
X87304197Y-71958052D01*
X87304197Y-71958052D02*
X87244673Y-71719957D01*
X87244673Y-71719957D02*
X87244673Y-71303290D01*
X87244673Y-71303290D02*
X87304197Y-71065195D01*
X87304197Y-71065195D02*
X87423244Y-70946147D01*
X87423244Y-70946147D02*
X87542292Y-70886623D01*
X88851816Y-70886623D02*
X89089911Y-70886623D01*
X89089911Y-70886623D02*
X89208959Y-70946147D01*
X89208959Y-70946147D02*
X89328006Y-71065195D01*
X89328006Y-71065195D02*
X89387530Y-71303290D01*
X89387530Y-71303290D02*
X89387530Y-71719957D01*
X89387530Y-71719957D02*
X89328006Y-71958052D01*
X89328006Y-71958052D02*
X89208959Y-72077100D01*
X89208959Y-72077100D02*
X89089911Y-72136623D01*
X89089911Y-72136623D02*
X88851816Y-72136623D01*
X88851816Y-72136623D02*
X88732768Y-72077100D01*
X88732768Y-72077100D02*
X88613721Y-71958052D01*
X88613721Y-71958052D02*
X88554197Y-71719957D01*
X88554197Y-71719957D02*
X88554197Y-71303290D01*
X88554197Y-71303290D02*
X88613721Y-71065195D01*
X88613721Y-71065195D02*
X88732768Y-70946147D01*
X88732768Y-70946147D02*
X88851816Y-70886623D01*
X89744673Y-70886623D02*
X90458959Y-70886623D01*
X90101816Y-72136623D02*
X90101816Y-70886623D01*
X97454197Y-59886623D02*
X97454197Y-60898528D01*
X97454197Y-60898528D02*
X97513720Y-61017576D01*
X97513720Y-61017576D02*
X97573244Y-61077100D01*
X97573244Y-61077100D02*
X97692292Y-61136623D01*
X97692292Y-61136623D02*
X97930387Y-61136623D01*
X97930387Y-61136623D02*
X98049435Y-61077100D01*
X98049435Y-61077100D02*
X98108958Y-61017576D01*
X98108958Y-61017576D02*
X98168482Y-60898528D01*
X98168482Y-60898528D02*
X98168482Y-59886623D01*
X98704197Y-60779480D02*
X99299435Y-60779480D01*
X98585149Y-61136623D02*
X99001816Y-59886623D01*
X99001816Y-59886623D02*
X99418482Y-61136623D01*
X100549435Y-61136623D02*
X100132769Y-60541385D01*
X99835150Y-61136623D02*
X99835150Y-59886623D01*
X99835150Y-59886623D02*
X100311340Y-59886623D01*
X100311340Y-59886623D02*
X100430388Y-59946147D01*
X100430388Y-59946147D02*
X100489911Y-60005671D01*
X100489911Y-60005671D02*
X100549435Y-60124719D01*
X100549435Y-60124719D02*
X100549435Y-60303290D01*
X100549435Y-60303290D02*
X100489911Y-60422338D01*
X100489911Y-60422338D02*
X100430388Y-60481861D01*
X100430388Y-60481861D02*
X100311340Y-60541385D01*
X100311340Y-60541385D02*
X99835150Y-60541385D01*
X100906578Y-59886623D02*
X101620864Y-59886623D01*
X101263721Y-61136623D02*
X101263721Y-59886623D01*
X111494673Y-61352100D02*
X111673244Y-61411623D01*
X111673244Y-61411623D02*
X111970863Y-61411623D01*
X111970863Y-61411623D02*
X112089911Y-61352100D01*
X112089911Y-61352100D02*
X112149435Y-61292576D01*
X112149435Y-61292576D02*
X112208958Y-61173528D01*
X112208958Y-61173528D02*
X112208958Y-61054480D01*
X112208958Y-61054480D02*
X112149435Y-60935433D01*
X112149435Y-60935433D02*
X112089911Y-60875909D01*
X112089911Y-60875909D02*
X111970863Y-60816385D01*
X111970863Y-60816385D02*
X111732768Y-60756861D01*
X111732768Y-60756861D02*
X111613720Y-60697338D01*
X111613720Y-60697338D02*
X111554197Y-60637814D01*
X111554197Y-60637814D02*
X111494673Y-60518766D01*
X111494673Y-60518766D02*
X111494673Y-60399719D01*
X111494673Y-60399719D02*
X111554197Y-60280671D01*
X111554197Y-60280671D02*
X111613720Y-60221147D01*
X111613720Y-60221147D02*
X111732768Y-60161623D01*
X111732768Y-60161623D02*
X112030387Y-60161623D01*
X112030387Y-60161623D02*
X112208958Y-60221147D01*
X112625625Y-60161623D02*
X112923244Y-61411623D01*
X112923244Y-61411623D02*
X113161339Y-60518766D01*
X113161339Y-60518766D02*
X113399434Y-61411623D01*
X113399434Y-61411623D02*
X113697054Y-60161623D01*
X114173244Y-61411623D02*
X114173244Y-60161623D01*
X114173244Y-60161623D02*
X114470863Y-60161623D01*
X114470863Y-60161623D02*
X114649434Y-60221147D01*
X114649434Y-60221147D02*
X114768482Y-60340195D01*
X114768482Y-60340195D02*
X114828005Y-60459242D01*
X114828005Y-60459242D02*
X114887529Y-60697338D01*
X114887529Y-60697338D02*
X114887529Y-60875909D01*
X114887529Y-60875909D02*
X114828005Y-61114004D01*
X114828005Y-61114004D02*
X114768482Y-61233052D01*
X114768482Y-61233052D02*
X114649434Y-61352100D01*
X114649434Y-61352100D02*
X114470863Y-61411623D01*
X114470863Y-61411623D02*
X114173244Y-61411623D01*
D12*
X84157200Y-71983332D02*
X84204819Y-71840475D01*
X84204819Y-71840475D02*
X84204819Y-71602380D01*
X84204819Y-71602380D02*
X84157200Y-71507142D01*
X84157200Y-71507142D02*
X84109580Y-71459523D01*
X84109580Y-71459523D02*
X84014342Y-71411904D01*
X84014342Y-71411904D02*
X83919104Y-71411904D01*
X83919104Y-71411904D02*
X83823866Y-71459523D01*
X83823866Y-71459523D02*
X83776247Y-71507142D01*
X83776247Y-71507142D02*
X83728628Y-71602380D01*
X83728628Y-71602380D02*
X83681009Y-71792856D01*
X83681009Y-71792856D02*
X83633390Y-71888094D01*
X83633390Y-71888094D02*
X83585771Y-71935713D01*
X83585771Y-71935713D02*
X83490533Y-71983332D01*
X83490533Y-71983332D02*
X83395295Y-71983332D01*
X83395295Y-71983332D02*
X83300057Y-71935713D01*
X83300057Y-71935713D02*
X83252438Y-71888094D01*
X83252438Y-71888094D02*
X83204819Y-71792856D01*
X83204819Y-71792856D02*
X83204819Y-71554761D01*
X83204819Y-71554761D02*
X83252438Y-71411904D01*
X83204819Y-71078570D02*
X84204819Y-70840475D01*
X84204819Y-70840475D02*
X83490533Y-70649999D01*
X83490533Y-70649999D02*
X84204819Y-70459523D01*
X84204819Y-70459523D02*
X83204819Y-70221428D01*
X84204819Y-69316666D02*
X84204819Y-69888094D01*
X84204819Y-69602380D02*
X83204819Y-69602380D01*
X83204819Y-69602380D02*
X83347676Y-69697618D01*
X83347676Y-69697618D02*
X83442914Y-69792856D01*
X83442914Y-69792856D02*
X83490533Y-69888094D01*
X97958333Y-81779819D02*
X97625000Y-81303628D01*
X97386905Y-81779819D02*
X97386905Y-80779819D01*
X97386905Y-80779819D02*
X97767857Y-80779819D01*
X97767857Y-80779819D02*
X97863095Y-80827438D01*
X97863095Y-80827438D02*
X97910714Y-80875057D01*
X97910714Y-80875057D02*
X97958333Y-80970295D01*
X97958333Y-80970295D02*
X97958333Y-81113152D01*
X97958333Y-81113152D02*
X97910714Y-81208390D01*
X97910714Y-81208390D02*
X97863095Y-81256009D01*
X97863095Y-81256009D02*
X97767857Y-81303628D01*
X97767857Y-81303628D02*
X97386905Y-81303628D01*
X98815476Y-81113152D02*
X98815476Y-81779819D01*
X98577381Y-80732200D02*
X98339286Y-81446485D01*
X98339286Y-81446485D02*
X98958333Y-81446485D01*
X91433333Y-62829819D02*
X91100000Y-62353628D01*
X90861905Y-62829819D02*
X90861905Y-61829819D01*
X90861905Y-61829819D02*
X91242857Y-61829819D01*
X91242857Y-61829819D02*
X91338095Y-61877438D01*
X91338095Y-61877438D02*
X91385714Y-61925057D01*
X91385714Y-61925057D02*
X91433333Y-62020295D01*
X91433333Y-62020295D02*
X91433333Y-62163152D01*
X91433333Y-62163152D02*
X91385714Y-62258390D01*
X91385714Y-62258390D02*
X91338095Y-62306009D01*
X91338095Y-62306009D02*
X91242857Y-62353628D01*
X91242857Y-62353628D02*
X90861905Y-62353628D01*
X91814286Y-61925057D02*
X91861905Y-61877438D01*
X91861905Y-61877438D02*
X91957143Y-61829819D01*
X91957143Y-61829819D02*
X92195238Y-61829819D01*
X92195238Y-61829819D02*
X92290476Y-61877438D01*
X92290476Y-61877438D02*
X92338095Y-61925057D01*
X92338095Y-61925057D02*
X92385714Y-62020295D01*
X92385714Y-62020295D02*
X92385714Y-62115533D01*
X92385714Y-62115533D02*
X92338095Y-62258390D01*
X92338095Y-62258390D02*
X91766667Y-62829819D01*
X91766667Y-62829819D02*
X92385714Y-62829819D01*
X116425595Y-83329819D02*
X116425595Y-84139342D01*
X116425595Y-84139342D02*
X116473214Y-84234580D01*
X116473214Y-84234580D02*
X116520833Y-84282200D01*
X116520833Y-84282200D02*
X116616071Y-84329819D01*
X116616071Y-84329819D02*
X116806547Y-84329819D01*
X116806547Y-84329819D02*
X116901785Y-84282200D01*
X116901785Y-84282200D02*
X116949404Y-84234580D01*
X116949404Y-84234580D02*
X116997023Y-84139342D01*
X116997023Y-84139342D02*
X116997023Y-83329819D01*
X117997023Y-84329819D02*
X117425595Y-84329819D01*
X117711309Y-84329819D02*
X117711309Y-83329819D01*
X117711309Y-83329819D02*
X117616071Y-83472676D01*
X117616071Y-83472676D02*
X117520833Y-83567914D01*
X117520833Y-83567914D02*
X117425595Y-83615533D01*
X103916666Y-57104819D02*
X103916666Y-57819104D01*
X103916666Y-57819104D02*
X103869047Y-57961961D01*
X103869047Y-57961961D02*
X103773809Y-58057200D01*
X103773809Y-58057200D02*
X103630952Y-58104819D01*
X103630952Y-58104819D02*
X103535714Y-58104819D01*
X104345238Y-57200057D02*
X104392857Y-57152438D01*
X104392857Y-57152438D02*
X104488095Y-57104819D01*
X104488095Y-57104819D02*
X104726190Y-57104819D01*
X104726190Y-57104819D02*
X104821428Y-57152438D01*
X104821428Y-57152438D02*
X104869047Y-57200057D01*
X104869047Y-57200057D02*
X104916666Y-57295295D01*
X104916666Y-57295295D02*
X104916666Y-57390533D01*
X104916666Y-57390533D02*
X104869047Y-57533390D01*
X104869047Y-57533390D02*
X104297619Y-58104819D01*
X104297619Y-58104819D02*
X104916666Y-58104819D01*
X93907142Y-67609580D02*
X93859523Y-67657200D01*
X93859523Y-67657200D02*
X93716666Y-67704819D01*
X93716666Y-67704819D02*
X93621428Y-67704819D01*
X93621428Y-67704819D02*
X93478571Y-67657200D01*
X93478571Y-67657200D02*
X93383333Y-67561961D01*
X93383333Y-67561961D02*
X93335714Y-67466723D01*
X93335714Y-67466723D02*
X93288095Y-67276247D01*
X93288095Y-67276247D02*
X93288095Y-67133390D01*
X93288095Y-67133390D02*
X93335714Y-66942914D01*
X93335714Y-66942914D02*
X93383333Y-66847676D01*
X93383333Y-66847676D02*
X93478571Y-66752438D01*
X93478571Y-66752438D02*
X93621428Y-66704819D01*
X93621428Y-66704819D02*
X93716666Y-66704819D01*
X93716666Y-66704819D02*
X93859523Y-66752438D01*
X93859523Y-66752438D02*
X93907142Y-66800057D01*
X94859523Y-67704819D02*
X94288095Y-67704819D01*
X94573809Y-67704819D02*
X94573809Y-66704819D01*
X94573809Y-66704819D02*
X94478571Y-66847676D01*
X94478571Y-66847676D02*
X94383333Y-66942914D01*
X94383333Y-66942914D02*
X94288095Y-66990533D01*
X95240476Y-66800057D02*
X95288095Y-66752438D01*
X95288095Y-66752438D02*
X95383333Y-66704819D01*
X95383333Y-66704819D02*
X95621428Y-66704819D01*
X95621428Y-66704819D02*
X95716666Y-66752438D01*
X95716666Y-66752438D02*
X95764285Y-66800057D01*
X95764285Y-66800057D02*
X95811904Y-66895295D01*
X95811904Y-66895295D02*
X95811904Y-66990533D01*
X95811904Y-66990533D02*
X95764285Y-67133390D01*
X95764285Y-67133390D02*
X95192857Y-67704819D01*
X95192857Y-67704819D02*
X95811904Y-67704819D01*
X101788095Y-65604819D02*
X101788095Y-66414342D01*
X101788095Y-66414342D02*
X101835714Y-66509580D01*
X101835714Y-66509580D02*
X101883333Y-66557200D01*
X101883333Y-66557200D02*
X101978571Y-66604819D01*
X101978571Y-66604819D02*
X102169047Y-66604819D01*
X102169047Y-66604819D02*
X102264285Y-66557200D01*
X102264285Y-66557200D02*
X102311904Y-66509580D01*
X102311904Y-66509580D02*
X102359523Y-66414342D01*
X102359523Y-66414342D02*
X102359523Y-65604819D01*
X102788095Y-65700057D02*
X102835714Y-65652438D01*
X102835714Y-65652438D02*
X102930952Y-65604819D01*
X102930952Y-65604819D02*
X103169047Y-65604819D01*
X103169047Y-65604819D02*
X103264285Y-65652438D01*
X103264285Y-65652438D02*
X103311904Y-65700057D01*
X103311904Y-65700057D02*
X103359523Y-65795295D01*
X103359523Y-65795295D02*
X103359523Y-65890533D01*
X103359523Y-65890533D02*
X103311904Y-66033390D01*
X103311904Y-66033390D02*
X102740476Y-66604819D01*
X102740476Y-66604819D02*
X103359523Y-66604819D01*
X87513095Y-87879819D02*
X87513095Y-86879819D01*
X87513095Y-87356009D02*
X88084523Y-87356009D01*
X88084523Y-87879819D02*
X88084523Y-86879819D01*
X89084523Y-87879819D02*
X88513095Y-87879819D01*
X88798809Y-87879819D02*
X88798809Y-86879819D01*
X88798809Y-86879819D02*
X88703571Y-87022676D01*
X88703571Y-87022676D02*
X88608333Y-87117914D01*
X88608333Y-87117914D02*
X88513095Y-87165533D01*
X107608333Y-78659580D02*
X107560714Y-78707200D01*
X107560714Y-78707200D02*
X107417857Y-78754819D01*
X107417857Y-78754819D02*
X107322619Y-78754819D01*
X107322619Y-78754819D02*
X107179762Y-78707200D01*
X107179762Y-78707200D02*
X107084524Y-78611961D01*
X107084524Y-78611961D02*
X107036905Y-78516723D01*
X107036905Y-78516723D02*
X106989286Y-78326247D01*
X106989286Y-78326247D02*
X106989286Y-78183390D01*
X106989286Y-78183390D02*
X107036905Y-77992914D01*
X107036905Y-77992914D02*
X107084524Y-77897676D01*
X107084524Y-77897676D02*
X107179762Y-77802438D01*
X107179762Y-77802438D02*
X107322619Y-77754819D01*
X107322619Y-77754819D02*
X107417857Y-77754819D01*
X107417857Y-77754819D02*
X107560714Y-77802438D01*
X107560714Y-77802438D02*
X107608333Y-77850057D01*
X108513095Y-77754819D02*
X108036905Y-77754819D01*
X108036905Y-77754819D02*
X107989286Y-78231009D01*
X107989286Y-78231009D02*
X108036905Y-78183390D01*
X108036905Y-78183390D02*
X108132143Y-78135771D01*
X108132143Y-78135771D02*
X108370238Y-78135771D01*
X108370238Y-78135771D02*
X108465476Y-78183390D01*
X108465476Y-78183390D02*
X108513095Y-78231009D01*
X108513095Y-78231009D02*
X108560714Y-78326247D01*
X108560714Y-78326247D02*
X108560714Y-78564342D01*
X108560714Y-78564342D02*
X108513095Y-78659580D01*
X108513095Y-78659580D02*
X108465476Y-78707200D01*
X108465476Y-78707200D02*
X108370238Y-78754819D01*
X108370238Y-78754819D02*
X108132143Y-78754819D01*
X108132143Y-78754819D02*
X108036905Y-78707200D01*
X108036905Y-78707200D02*
X107989286Y-78659580D01*
X96483333Y-75359580D02*
X96435714Y-75407200D01*
X96435714Y-75407200D02*
X96292857Y-75454819D01*
X96292857Y-75454819D02*
X96197619Y-75454819D01*
X96197619Y-75454819D02*
X96054762Y-75407200D01*
X96054762Y-75407200D02*
X95959524Y-75311961D01*
X95959524Y-75311961D02*
X95911905Y-75216723D01*
X95911905Y-75216723D02*
X95864286Y-75026247D01*
X95864286Y-75026247D02*
X95864286Y-74883390D01*
X95864286Y-74883390D02*
X95911905Y-74692914D01*
X95911905Y-74692914D02*
X95959524Y-74597676D01*
X95959524Y-74597676D02*
X96054762Y-74502438D01*
X96054762Y-74502438D02*
X96197619Y-74454819D01*
X96197619Y-74454819D02*
X96292857Y-74454819D01*
X96292857Y-74454819D02*
X96435714Y-74502438D01*
X96435714Y-74502438D02*
X96483333Y-74550057D01*
X97054762Y-74883390D02*
X96959524Y-74835771D01*
X96959524Y-74835771D02*
X96911905Y-74788152D01*
X96911905Y-74788152D02*
X96864286Y-74692914D01*
X96864286Y-74692914D02*
X96864286Y-74645295D01*
X96864286Y-74645295D02*
X96911905Y-74550057D01*
X96911905Y-74550057D02*
X96959524Y-74502438D01*
X96959524Y-74502438D02*
X97054762Y-74454819D01*
X97054762Y-74454819D02*
X97245238Y-74454819D01*
X97245238Y-74454819D02*
X97340476Y-74502438D01*
X97340476Y-74502438D02*
X97388095Y-74550057D01*
X97388095Y-74550057D02*
X97435714Y-74645295D01*
X97435714Y-74645295D02*
X97435714Y-74692914D01*
X97435714Y-74692914D02*
X97388095Y-74788152D01*
X97388095Y-74788152D02*
X97340476Y-74835771D01*
X97340476Y-74835771D02*
X97245238Y-74883390D01*
X97245238Y-74883390D02*
X97054762Y-74883390D01*
X97054762Y-74883390D02*
X96959524Y-74931009D01*
X96959524Y-74931009D02*
X96911905Y-74978628D01*
X96911905Y-74978628D02*
X96864286Y-75073866D01*
X96864286Y-75073866D02*
X96864286Y-75264342D01*
X96864286Y-75264342D02*
X96911905Y-75359580D01*
X96911905Y-75359580D02*
X96959524Y-75407200D01*
X96959524Y-75407200D02*
X97054762Y-75454819D01*
X97054762Y-75454819D02*
X97245238Y-75454819D01*
X97245238Y-75454819D02*
X97340476Y-75407200D01*
X97340476Y-75407200D02*
X97388095Y-75359580D01*
X97388095Y-75359580D02*
X97435714Y-75264342D01*
X97435714Y-75264342D02*
X97435714Y-75073866D01*
X97435714Y-75073866D02*
X97388095Y-74978628D01*
X97388095Y-74978628D02*
X97340476Y-74931009D01*
X97340476Y-74931009D02*
X97245238Y-74883390D01*
X122513095Y-87754819D02*
X122513095Y-86754819D01*
X122513095Y-87231009D02*
X123084523Y-87231009D01*
X123084523Y-87754819D02*
X123084523Y-86754819D01*
X123513095Y-86850057D02*
X123560714Y-86802438D01*
X123560714Y-86802438D02*
X123655952Y-86754819D01*
X123655952Y-86754819D02*
X123894047Y-86754819D01*
X123894047Y-86754819D02*
X123989285Y-86802438D01*
X123989285Y-86802438D02*
X124036904Y-86850057D01*
X124036904Y-86850057D02*
X124084523Y-86945295D01*
X124084523Y-86945295D02*
X124084523Y-87040533D01*
X124084523Y-87040533D02*
X124036904Y-87183390D01*
X124036904Y-87183390D02*
X123465476Y-87754819D01*
X123465476Y-87754819D02*
X124084523Y-87754819D01*
X117358333Y-82059580D02*
X117310714Y-82107200D01*
X117310714Y-82107200D02*
X117167857Y-82154819D01*
X117167857Y-82154819D02*
X117072619Y-82154819D01*
X117072619Y-82154819D02*
X116929762Y-82107200D01*
X116929762Y-82107200D02*
X116834524Y-82011961D01*
X116834524Y-82011961D02*
X116786905Y-81916723D01*
X116786905Y-81916723D02*
X116739286Y-81726247D01*
X116739286Y-81726247D02*
X116739286Y-81583390D01*
X116739286Y-81583390D02*
X116786905Y-81392914D01*
X116786905Y-81392914D02*
X116834524Y-81297676D01*
X116834524Y-81297676D02*
X116929762Y-81202438D01*
X116929762Y-81202438D02*
X117072619Y-81154819D01*
X117072619Y-81154819D02*
X117167857Y-81154819D01*
X117167857Y-81154819D02*
X117310714Y-81202438D01*
X117310714Y-81202438D02*
X117358333Y-81250057D01*
X117739286Y-81250057D02*
X117786905Y-81202438D01*
X117786905Y-81202438D02*
X117882143Y-81154819D01*
X117882143Y-81154819D02*
X118120238Y-81154819D01*
X118120238Y-81154819D02*
X118215476Y-81202438D01*
X118215476Y-81202438D02*
X118263095Y-81250057D01*
X118263095Y-81250057D02*
X118310714Y-81345295D01*
X118310714Y-81345295D02*
X118310714Y-81440533D01*
X118310714Y-81440533D02*
X118263095Y-81583390D01*
X118263095Y-81583390D02*
X117691667Y-82154819D01*
X117691667Y-82154819D02*
X118310714Y-82154819D01*
X98183333Y-68109580D02*
X98135714Y-68157200D01*
X98135714Y-68157200D02*
X97992857Y-68204819D01*
X97992857Y-68204819D02*
X97897619Y-68204819D01*
X97897619Y-68204819D02*
X97754762Y-68157200D01*
X97754762Y-68157200D02*
X97659524Y-68061961D01*
X97659524Y-68061961D02*
X97611905Y-67966723D01*
X97611905Y-67966723D02*
X97564286Y-67776247D01*
X97564286Y-67776247D02*
X97564286Y-67633390D01*
X97564286Y-67633390D02*
X97611905Y-67442914D01*
X97611905Y-67442914D02*
X97659524Y-67347676D01*
X97659524Y-67347676D02*
X97754762Y-67252438D01*
X97754762Y-67252438D02*
X97897619Y-67204819D01*
X97897619Y-67204819D02*
X97992857Y-67204819D01*
X97992857Y-67204819D02*
X98135714Y-67252438D01*
X98135714Y-67252438D02*
X98183333Y-67300057D01*
X99040476Y-67538152D02*
X99040476Y-68204819D01*
X98802381Y-67157200D02*
X98564286Y-67871485D01*
X98564286Y-67871485D02*
X99183333Y-67871485D01*
X108583333Y-68359580D02*
X108535714Y-68407200D01*
X108535714Y-68407200D02*
X108392857Y-68454819D01*
X108392857Y-68454819D02*
X108297619Y-68454819D01*
X108297619Y-68454819D02*
X108154762Y-68407200D01*
X108154762Y-68407200D02*
X108059524Y-68311961D01*
X108059524Y-68311961D02*
X108011905Y-68216723D01*
X108011905Y-68216723D02*
X107964286Y-68026247D01*
X107964286Y-68026247D02*
X107964286Y-67883390D01*
X107964286Y-67883390D02*
X108011905Y-67692914D01*
X108011905Y-67692914D02*
X108059524Y-67597676D01*
X108059524Y-67597676D02*
X108154762Y-67502438D01*
X108154762Y-67502438D02*
X108297619Y-67454819D01*
X108297619Y-67454819D02*
X108392857Y-67454819D01*
X108392857Y-67454819D02*
X108535714Y-67502438D01*
X108535714Y-67502438D02*
X108583333Y-67550057D01*
X109440476Y-67454819D02*
X109250000Y-67454819D01*
X109250000Y-67454819D02*
X109154762Y-67502438D01*
X109154762Y-67502438D02*
X109107143Y-67550057D01*
X109107143Y-67550057D02*
X109011905Y-67692914D01*
X109011905Y-67692914D02*
X108964286Y-67883390D01*
X108964286Y-67883390D02*
X108964286Y-68264342D01*
X108964286Y-68264342D02*
X109011905Y-68359580D01*
X109011905Y-68359580D02*
X109059524Y-68407200D01*
X109059524Y-68407200D02*
X109154762Y-68454819D01*
X109154762Y-68454819D02*
X109345238Y-68454819D01*
X109345238Y-68454819D02*
X109440476Y-68407200D01*
X109440476Y-68407200D02*
X109488095Y-68359580D01*
X109488095Y-68359580D02*
X109535714Y-68264342D01*
X109535714Y-68264342D02*
X109535714Y-68026247D01*
X109535714Y-68026247D02*
X109488095Y-67931009D01*
X109488095Y-67931009D02*
X109440476Y-67883390D01*
X109440476Y-67883390D02*
X109345238Y-67835771D01*
X109345238Y-67835771D02*
X109154762Y-67835771D01*
X109154762Y-67835771D02*
X109059524Y-67883390D01*
X109059524Y-67883390D02*
X109011905Y-67931009D01*
X109011905Y-67931009D02*
X108964286Y-68026247D01*
X122488095Y-54929819D02*
X122488095Y-53929819D01*
X122488095Y-54406009D02*
X123059523Y-54406009D01*
X123059523Y-54929819D02*
X123059523Y-53929819D01*
X123440476Y-53929819D02*
X124059523Y-53929819D01*
X124059523Y-53929819D02*
X123726190Y-54310771D01*
X123726190Y-54310771D02*
X123869047Y-54310771D01*
X123869047Y-54310771D02*
X123964285Y-54358390D01*
X123964285Y-54358390D02*
X124011904Y-54406009D01*
X124011904Y-54406009D02*
X124059523Y-54501247D01*
X124059523Y-54501247D02*
X124059523Y-54739342D01*
X124059523Y-54739342D02*
X124011904Y-54834580D01*
X124011904Y-54834580D02*
X123964285Y-54882200D01*
X123964285Y-54882200D02*
X123869047Y-54929819D01*
X123869047Y-54929819D02*
X123583333Y-54929819D01*
X123583333Y-54929819D02*
X123488095Y-54882200D01*
X123488095Y-54882200D02*
X123440476Y-54834580D01*
X109683333Y-74559580D02*
X109635714Y-74607200D01*
X109635714Y-74607200D02*
X109492857Y-74654819D01*
X109492857Y-74654819D02*
X109397619Y-74654819D01*
X109397619Y-74654819D02*
X109254762Y-74607200D01*
X109254762Y-74607200D02*
X109159524Y-74511961D01*
X109159524Y-74511961D02*
X109111905Y-74416723D01*
X109111905Y-74416723D02*
X109064286Y-74226247D01*
X109064286Y-74226247D02*
X109064286Y-74083390D01*
X109064286Y-74083390D02*
X109111905Y-73892914D01*
X109111905Y-73892914D02*
X109159524Y-73797676D01*
X109159524Y-73797676D02*
X109254762Y-73702438D01*
X109254762Y-73702438D02*
X109397619Y-73654819D01*
X109397619Y-73654819D02*
X109492857Y-73654819D01*
X109492857Y-73654819D02*
X109635714Y-73702438D01*
X109635714Y-73702438D02*
X109683333Y-73750057D01*
X110635714Y-74654819D02*
X110064286Y-74654819D01*
X110350000Y-74654819D02*
X110350000Y-73654819D01*
X110350000Y-73654819D02*
X110254762Y-73797676D01*
X110254762Y-73797676D02*
X110159524Y-73892914D01*
X110159524Y-73892914D02*
X110064286Y-73940533D01*
X119308333Y-77079819D02*
X118975000Y-76603628D01*
X118736905Y-77079819D02*
X118736905Y-76079819D01*
X118736905Y-76079819D02*
X119117857Y-76079819D01*
X119117857Y-76079819D02*
X119213095Y-76127438D01*
X119213095Y-76127438D02*
X119260714Y-76175057D01*
X119260714Y-76175057D02*
X119308333Y-76270295D01*
X119308333Y-76270295D02*
X119308333Y-76413152D01*
X119308333Y-76413152D02*
X119260714Y-76508390D01*
X119260714Y-76508390D02*
X119213095Y-76556009D01*
X119213095Y-76556009D02*
X119117857Y-76603628D01*
X119117857Y-76603628D02*
X118736905Y-76603628D01*
X120260714Y-77079819D02*
X119689286Y-77079819D01*
X119975000Y-77079819D02*
X119975000Y-76079819D01*
X119975000Y-76079819D02*
X119879762Y-76222676D01*
X119879762Y-76222676D02*
X119784524Y-76317914D01*
X119784524Y-76317914D02*
X119689286Y-76365533D01*
X127616666Y-64554819D02*
X127616666Y-65269104D01*
X127616666Y-65269104D02*
X127569047Y-65411961D01*
X127569047Y-65411961D02*
X127473809Y-65507200D01*
X127473809Y-65507200D02*
X127330952Y-65554819D01*
X127330952Y-65554819D02*
X127235714Y-65554819D01*
X128616666Y-65554819D02*
X128045238Y-65554819D01*
X128330952Y-65554819D02*
X128330952Y-64554819D01*
X128330952Y-64554819D02*
X128235714Y-64697676D01*
X128235714Y-64697676D02*
X128140476Y-64792914D01*
X128140476Y-64792914D02*
X128045238Y-64840533D01*
X90173809Y-73953628D02*
X90173809Y-74429819D01*
X89840476Y-73429819D02*
X90173809Y-73953628D01*
X90173809Y-73953628D02*
X90507142Y-73429819D01*
X91364285Y-74429819D02*
X90792857Y-74429819D01*
X91078571Y-74429819D02*
X91078571Y-73429819D01*
X91078571Y-73429819D02*
X90983333Y-73572676D01*
X90983333Y-73572676D02*
X90888095Y-73667914D01*
X90888095Y-73667914D02*
X90792857Y-73715533D01*
X96866666Y-79931009D02*
X96533333Y-79931009D01*
X96533333Y-80454819D02*
X96533333Y-79454819D01*
X96533333Y-79454819D02*
X97009523Y-79454819D01*
X97723809Y-79931009D02*
X97866666Y-79978628D01*
X97866666Y-79978628D02*
X97914285Y-80026247D01*
X97914285Y-80026247D02*
X97961904Y-80121485D01*
X97961904Y-80121485D02*
X97961904Y-80264342D01*
X97961904Y-80264342D02*
X97914285Y-80359580D01*
X97914285Y-80359580D02*
X97866666Y-80407200D01*
X97866666Y-80407200D02*
X97771428Y-80454819D01*
X97771428Y-80454819D02*
X97390476Y-80454819D01*
X97390476Y-80454819D02*
X97390476Y-79454819D01*
X97390476Y-79454819D02*
X97723809Y-79454819D01*
X97723809Y-79454819D02*
X97819047Y-79502438D01*
X97819047Y-79502438D02*
X97866666Y-79550057D01*
X97866666Y-79550057D02*
X97914285Y-79645295D01*
X97914285Y-79645295D02*
X97914285Y-79740533D01*
X97914285Y-79740533D02*
X97866666Y-79835771D01*
X97866666Y-79835771D02*
X97819047Y-79883390D01*
X97819047Y-79883390D02*
X97723809Y-79931009D01*
X97723809Y-79931009D02*
X97390476Y-79931009D01*
X98914285Y-80454819D02*
X98342857Y-80454819D01*
X98628571Y-80454819D02*
X98628571Y-79454819D01*
X98628571Y-79454819D02*
X98533333Y-79597676D01*
X98533333Y-79597676D02*
X98438095Y-79692914D01*
X98438095Y-79692914D02*
X98342857Y-79740533D01*
X100057142Y-80359580D02*
X100009523Y-80407200D01*
X100009523Y-80407200D02*
X99866666Y-80454819D01*
X99866666Y-80454819D02*
X99771428Y-80454819D01*
X99771428Y-80454819D02*
X99628571Y-80407200D01*
X99628571Y-80407200D02*
X99533333Y-80311961D01*
X99533333Y-80311961D02*
X99485714Y-80216723D01*
X99485714Y-80216723D02*
X99438095Y-80026247D01*
X99438095Y-80026247D02*
X99438095Y-79883390D01*
X99438095Y-79883390D02*
X99485714Y-79692914D01*
X99485714Y-79692914D02*
X99533333Y-79597676D01*
X99533333Y-79597676D02*
X99628571Y-79502438D01*
X99628571Y-79502438D02*
X99771428Y-79454819D01*
X99771428Y-79454819D02*
X99866666Y-79454819D01*
X99866666Y-79454819D02*
X100009523Y-79502438D01*
X100009523Y-79502438D02*
X100057142Y-79550057D01*
X101009523Y-80454819D02*
X100438095Y-80454819D01*
X100723809Y-80454819D02*
X100723809Y-79454819D01*
X100723809Y-79454819D02*
X100628571Y-79597676D01*
X100628571Y-79597676D02*
X100533333Y-79692914D01*
X100533333Y-79692914D02*
X100438095Y-79740533D01*
X101961904Y-80454819D02*
X101390476Y-80454819D01*
X101676190Y-80454819D02*
X101676190Y-79454819D01*
X101676190Y-79454819D02*
X101580952Y-79597676D01*
X101580952Y-79597676D02*
X101485714Y-79692914D01*
X101485714Y-79692914D02*
X101390476Y-79740533D01*
X93708333Y-77134580D02*
X93660714Y-77182200D01*
X93660714Y-77182200D02*
X93517857Y-77229819D01*
X93517857Y-77229819D02*
X93422619Y-77229819D01*
X93422619Y-77229819D02*
X93279762Y-77182200D01*
X93279762Y-77182200D02*
X93184524Y-77086961D01*
X93184524Y-77086961D02*
X93136905Y-76991723D01*
X93136905Y-76991723D02*
X93089286Y-76801247D01*
X93089286Y-76801247D02*
X93089286Y-76658390D01*
X93089286Y-76658390D02*
X93136905Y-76467914D01*
X93136905Y-76467914D02*
X93184524Y-76372676D01*
X93184524Y-76372676D02*
X93279762Y-76277438D01*
X93279762Y-76277438D02*
X93422619Y-76229819D01*
X93422619Y-76229819D02*
X93517857Y-76229819D01*
X93517857Y-76229819D02*
X93660714Y-76277438D01*
X93660714Y-76277438D02*
X93708333Y-76325057D01*
X94184524Y-77229819D02*
X94375000Y-77229819D01*
X94375000Y-77229819D02*
X94470238Y-77182200D01*
X94470238Y-77182200D02*
X94517857Y-77134580D01*
X94517857Y-77134580D02*
X94613095Y-76991723D01*
X94613095Y-76991723D02*
X94660714Y-76801247D01*
X94660714Y-76801247D02*
X94660714Y-76420295D01*
X94660714Y-76420295D02*
X94613095Y-76325057D01*
X94613095Y-76325057D02*
X94565476Y-76277438D01*
X94565476Y-76277438D02*
X94470238Y-76229819D01*
X94470238Y-76229819D02*
X94279762Y-76229819D01*
X94279762Y-76229819D02*
X94184524Y-76277438D01*
X94184524Y-76277438D02*
X94136905Y-76325057D01*
X94136905Y-76325057D02*
X94089286Y-76420295D01*
X94089286Y-76420295D02*
X94089286Y-76658390D01*
X94089286Y-76658390D02*
X94136905Y-76753628D01*
X94136905Y-76753628D02*
X94184524Y-76801247D01*
X94184524Y-76801247D02*
X94279762Y-76848866D01*
X94279762Y-76848866D02*
X94470238Y-76848866D01*
X94470238Y-76848866D02*
X94565476Y-76801247D01*
X94565476Y-76801247D02*
X94613095Y-76753628D01*
X94613095Y-76753628D02*
X94660714Y-76658390D01*
X97966666Y-87529819D02*
X97966666Y-88244104D01*
X97966666Y-88244104D02*
X97919047Y-88386961D01*
X97919047Y-88386961D02*
X97823809Y-88482200D01*
X97823809Y-88482200D02*
X97680952Y-88529819D01*
X97680952Y-88529819D02*
X97585714Y-88529819D01*
X98871428Y-87863152D02*
X98871428Y-88529819D01*
X98633333Y-87482200D02*
X98395238Y-88196485D01*
X98395238Y-88196485D02*
X99014285Y-88196485D01*
X119206666Y-57204819D02*
X119206666Y-57919104D01*
X119206666Y-57919104D02*
X119159047Y-58061961D01*
X119159047Y-58061961D02*
X119063809Y-58157200D01*
X119063809Y-58157200D02*
X118920952Y-58204819D01*
X118920952Y-58204819D02*
X118825714Y-58204819D01*
X119587619Y-57204819D02*
X120206666Y-57204819D01*
X120206666Y-57204819D02*
X119873333Y-57585771D01*
X119873333Y-57585771D02*
X120016190Y-57585771D01*
X120016190Y-57585771D02*
X120111428Y-57633390D01*
X120111428Y-57633390D02*
X120159047Y-57681009D01*
X120159047Y-57681009D02*
X120206666Y-57776247D01*
X120206666Y-57776247D02*
X120206666Y-58014342D01*
X120206666Y-58014342D02*
X120159047Y-58109580D01*
X120159047Y-58109580D02*
X120111428Y-58157200D01*
X120111428Y-58157200D02*
X120016190Y-58204819D01*
X120016190Y-58204819D02*
X119730476Y-58204819D01*
X119730476Y-58204819D02*
X119635238Y-58157200D01*
X119635238Y-58157200D02*
X119587619Y-58109580D01*
X87463095Y-55029819D02*
X87463095Y-54029819D01*
X87463095Y-54506009D02*
X88034523Y-54506009D01*
X88034523Y-55029819D02*
X88034523Y-54029819D01*
X88939285Y-54363152D02*
X88939285Y-55029819D01*
X88701190Y-53982200D02*
X88463095Y-54696485D01*
X88463095Y-54696485D02*
X89082142Y-54696485D01*
X105108333Y-81729819D02*
X104775000Y-81253628D01*
X104536905Y-81729819D02*
X104536905Y-80729819D01*
X104536905Y-80729819D02*
X104917857Y-80729819D01*
X104917857Y-80729819D02*
X105013095Y-80777438D01*
X105013095Y-80777438D02*
X105060714Y-80825057D01*
X105060714Y-80825057D02*
X105108333Y-80920295D01*
X105108333Y-80920295D02*
X105108333Y-81063152D01*
X105108333Y-81063152D02*
X105060714Y-81158390D01*
X105060714Y-81158390D02*
X105013095Y-81206009D01*
X105013095Y-81206009D02*
X104917857Y-81253628D01*
X104917857Y-81253628D02*
X104536905Y-81253628D01*
X106013095Y-80729819D02*
X105536905Y-80729819D01*
X105536905Y-80729819D02*
X105489286Y-81206009D01*
X105489286Y-81206009D02*
X105536905Y-81158390D01*
X105536905Y-81158390D02*
X105632143Y-81110771D01*
X105632143Y-81110771D02*
X105870238Y-81110771D01*
X105870238Y-81110771D02*
X105965476Y-81158390D01*
X105965476Y-81158390D02*
X106013095Y-81206009D01*
X106013095Y-81206009D02*
X106060714Y-81301247D01*
X106060714Y-81301247D02*
X106060714Y-81539342D01*
X106060714Y-81539342D02*
X106013095Y-81634580D01*
X106013095Y-81634580D02*
X105965476Y-81682200D01*
X105965476Y-81682200D02*
X105870238Y-81729819D01*
X105870238Y-81729819D02*
X105632143Y-81729819D01*
X105632143Y-81729819D02*
X105536905Y-81682200D01*
X105536905Y-81682200D02*
X105489286Y-81634580D01*
X120261905Y-82042319D02*
X120261905Y-81042319D01*
X120261905Y-81042319D02*
X120500000Y-81042319D01*
X120500000Y-81042319D02*
X120642857Y-81089938D01*
X120642857Y-81089938D02*
X120738095Y-81185176D01*
X120738095Y-81185176D02*
X120785714Y-81280414D01*
X120785714Y-81280414D02*
X120833333Y-81470890D01*
X120833333Y-81470890D02*
X120833333Y-81613747D01*
X120833333Y-81613747D02*
X120785714Y-81804223D01*
X120785714Y-81804223D02*
X120738095Y-81899461D01*
X120738095Y-81899461D02*
X120642857Y-81994700D01*
X120642857Y-81994700D02*
X120500000Y-82042319D01*
X120500000Y-82042319D02*
X120261905Y-82042319D01*
X121785714Y-82042319D02*
X121214286Y-82042319D01*
X121500000Y-82042319D02*
X121500000Y-81042319D01*
X121500000Y-81042319D02*
X121404762Y-81185176D01*
X121404762Y-81185176D02*
X121309524Y-81280414D01*
X121309524Y-81280414D02*
X121214286Y-81328033D01*
X98233333Y-66614580D02*
X98185714Y-66662200D01*
X98185714Y-66662200D02*
X98042857Y-66709819D01*
X98042857Y-66709819D02*
X97947619Y-66709819D01*
X97947619Y-66709819D02*
X97804762Y-66662200D01*
X97804762Y-66662200D02*
X97709524Y-66566961D01*
X97709524Y-66566961D02*
X97661905Y-66471723D01*
X97661905Y-66471723D02*
X97614286Y-66281247D01*
X97614286Y-66281247D02*
X97614286Y-66138390D01*
X97614286Y-66138390D02*
X97661905Y-65947914D01*
X97661905Y-65947914D02*
X97709524Y-65852676D01*
X97709524Y-65852676D02*
X97804762Y-65757438D01*
X97804762Y-65757438D02*
X97947619Y-65709819D01*
X97947619Y-65709819D02*
X98042857Y-65709819D01*
X98042857Y-65709819D02*
X98185714Y-65757438D01*
X98185714Y-65757438D02*
X98233333Y-65805057D01*
X98566667Y-65709819D02*
X99233333Y-65709819D01*
X99233333Y-65709819D02*
X98804762Y-66709819D01*
X92707142Y-78709580D02*
X92659523Y-78757200D01*
X92659523Y-78757200D02*
X92516666Y-78804819D01*
X92516666Y-78804819D02*
X92421428Y-78804819D01*
X92421428Y-78804819D02*
X92278571Y-78757200D01*
X92278571Y-78757200D02*
X92183333Y-78661961D01*
X92183333Y-78661961D02*
X92135714Y-78566723D01*
X92135714Y-78566723D02*
X92088095Y-78376247D01*
X92088095Y-78376247D02*
X92088095Y-78233390D01*
X92088095Y-78233390D02*
X92135714Y-78042914D01*
X92135714Y-78042914D02*
X92183333Y-77947676D01*
X92183333Y-77947676D02*
X92278571Y-77852438D01*
X92278571Y-77852438D02*
X92421428Y-77804819D01*
X92421428Y-77804819D02*
X92516666Y-77804819D01*
X92516666Y-77804819D02*
X92659523Y-77852438D01*
X92659523Y-77852438D02*
X92707142Y-77900057D01*
X93659523Y-78804819D02*
X93088095Y-78804819D01*
X93373809Y-78804819D02*
X93373809Y-77804819D01*
X93373809Y-77804819D02*
X93278571Y-77947676D01*
X93278571Y-77947676D02*
X93183333Y-78042914D01*
X93183333Y-78042914D02*
X93088095Y-78090533D01*
X94278571Y-77804819D02*
X94373809Y-77804819D01*
X94373809Y-77804819D02*
X94469047Y-77852438D01*
X94469047Y-77852438D02*
X94516666Y-77900057D01*
X94516666Y-77900057D02*
X94564285Y-77995295D01*
X94564285Y-77995295D02*
X94611904Y-78185771D01*
X94611904Y-78185771D02*
X94611904Y-78423866D01*
X94611904Y-78423866D02*
X94564285Y-78614342D01*
X94564285Y-78614342D02*
X94516666Y-78709580D01*
X94516666Y-78709580D02*
X94469047Y-78757200D01*
X94469047Y-78757200D02*
X94373809Y-78804819D01*
X94373809Y-78804819D02*
X94278571Y-78804819D01*
X94278571Y-78804819D02*
X94183333Y-78757200D01*
X94183333Y-78757200D02*
X94135714Y-78709580D01*
X94135714Y-78709580D02*
X94088095Y-78614342D01*
X94088095Y-78614342D02*
X94040476Y-78423866D01*
X94040476Y-78423866D02*
X94040476Y-78185771D01*
X94040476Y-78185771D02*
X94088095Y-77995295D01*
X94088095Y-77995295D02*
X94135714Y-77900057D01*
X94135714Y-77900057D02*
X94183333Y-77852438D01*
X94183333Y-77852438D02*
X94278571Y-77804819D01*
X113633333Y-70604819D02*
X113300000Y-70128628D01*
X113061905Y-70604819D02*
X113061905Y-69604819D01*
X113061905Y-69604819D02*
X113442857Y-69604819D01*
X113442857Y-69604819D02*
X113538095Y-69652438D01*
X113538095Y-69652438D02*
X113585714Y-69700057D01*
X113585714Y-69700057D02*
X113633333Y-69795295D01*
X113633333Y-69795295D02*
X113633333Y-69938152D01*
X113633333Y-69938152D02*
X113585714Y-70033390D01*
X113585714Y-70033390D02*
X113538095Y-70081009D01*
X113538095Y-70081009D02*
X113442857Y-70128628D01*
X113442857Y-70128628D02*
X113061905Y-70128628D01*
X113966667Y-69604819D02*
X114585714Y-69604819D01*
X114585714Y-69604819D02*
X114252381Y-69985771D01*
X114252381Y-69985771D02*
X114395238Y-69985771D01*
X114395238Y-69985771D02*
X114490476Y-70033390D01*
X114490476Y-70033390D02*
X114538095Y-70081009D01*
X114538095Y-70081009D02*
X114585714Y-70176247D01*
X114585714Y-70176247D02*
X114585714Y-70414342D01*
X114585714Y-70414342D02*
X114538095Y-70509580D01*
X114538095Y-70509580D02*
X114490476Y-70557200D01*
X114490476Y-70557200D02*
X114395238Y-70604819D01*
X114395238Y-70604819D02*
X114109524Y-70604819D01*
X114109524Y-70604819D02*
X114014286Y-70557200D01*
X114014286Y-70557200D02*
X113966667Y-70509580D01*
X93907142Y-74159580D02*
X93859523Y-74207200D01*
X93859523Y-74207200D02*
X93716666Y-74254819D01*
X93716666Y-74254819D02*
X93621428Y-74254819D01*
X93621428Y-74254819D02*
X93478571Y-74207200D01*
X93478571Y-74207200D02*
X93383333Y-74111961D01*
X93383333Y-74111961D02*
X93335714Y-74016723D01*
X93335714Y-74016723D02*
X93288095Y-73826247D01*
X93288095Y-73826247D02*
X93288095Y-73683390D01*
X93288095Y-73683390D02*
X93335714Y-73492914D01*
X93335714Y-73492914D02*
X93383333Y-73397676D01*
X93383333Y-73397676D02*
X93478571Y-73302438D01*
X93478571Y-73302438D02*
X93621428Y-73254819D01*
X93621428Y-73254819D02*
X93716666Y-73254819D01*
X93716666Y-73254819D02*
X93859523Y-73302438D01*
X93859523Y-73302438D02*
X93907142Y-73350057D01*
X94859523Y-74254819D02*
X94288095Y-74254819D01*
X94573809Y-74254819D02*
X94573809Y-73254819D01*
X94573809Y-73254819D02*
X94478571Y-73397676D01*
X94478571Y-73397676D02*
X94383333Y-73492914D01*
X94383333Y-73492914D02*
X94288095Y-73540533D01*
X95192857Y-73254819D02*
X95811904Y-73254819D01*
X95811904Y-73254819D02*
X95478571Y-73635771D01*
X95478571Y-73635771D02*
X95621428Y-73635771D01*
X95621428Y-73635771D02*
X95716666Y-73683390D01*
X95716666Y-73683390D02*
X95764285Y-73731009D01*
X95764285Y-73731009D02*
X95811904Y-73826247D01*
X95811904Y-73826247D02*
X95811904Y-74064342D01*
X95811904Y-74064342D02*
X95764285Y-74159580D01*
X95764285Y-74159580D02*
X95716666Y-74207200D01*
X95716666Y-74207200D02*
X95621428Y-74254819D01*
X95621428Y-74254819D02*
X95335714Y-74254819D01*
X95335714Y-74254819D02*
X95240476Y-74207200D01*
X95240476Y-74207200D02*
X95192857Y-74159580D01*
X99933333Y-63459580D02*
X99885714Y-63507200D01*
X99885714Y-63507200D02*
X99742857Y-63554819D01*
X99742857Y-63554819D02*
X99647619Y-63554819D01*
X99647619Y-63554819D02*
X99504762Y-63507200D01*
X99504762Y-63507200D02*
X99409524Y-63411961D01*
X99409524Y-63411961D02*
X99361905Y-63316723D01*
X99361905Y-63316723D02*
X99314286Y-63126247D01*
X99314286Y-63126247D02*
X99314286Y-62983390D01*
X99314286Y-62983390D02*
X99361905Y-62792914D01*
X99361905Y-62792914D02*
X99409524Y-62697676D01*
X99409524Y-62697676D02*
X99504762Y-62602438D01*
X99504762Y-62602438D02*
X99647619Y-62554819D01*
X99647619Y-62554819D02*
X99742857Y-62554819D01*
X99742857Y-62554819D02*
X99885714Y-62602438D01*
X99885714Y-62602438D02*
X99933333Y-62650057D01*
X100266667Y-62554819D02*
X100885714Y-62554819D01*
X100885714Y-62554819D02*
X100552381Y-62935771D01*
X100552381Y-62935771D02*
X100695238Y-62935771D01*
X100695238Y-62935771D02*
X100790476Y-62983390D01*
X100790476Y-62983390D02*
X100838095Y-63031009D01*
X100838095Y-63031009D02*
X100885714Y-63126247D01*
X100885714Y-63126247D02*
X100885714Y-63364342D01*
X100885714Y-63364342D02*
X100838095Y-63459580D01*
X100838095Y-63459580D02*
X100790476Y-63507200D01*
X100790476Y-63507200D02*
X100695238Y-63554819D01*
X100695238Y-63554819D02*
X100409524Y-63554819D01*
X100409524Y-63554819D02*
X100314286Y-63507200D01*
X100314286Y-63507200D02*
X100266667Y-63459580D01*
D13*
%TO.C,SW1*%
X86020000Y-62650000D02*
X86020000Y-68350000D01*
X87030000Y-68950000D02*
X87820000Y-68950000D01*
X87820000Y-62050000D02*
X87030000Y-62050000D01*
X88870000Y-63900000D02*
X88870000Y-65600000D01*
X88870000Y-66900000D02*
X88870000Y-67100000D01*
%TO.C,R4*%
X100413641Y-80870000D02*
X100106359Y-80870000D01*
X100413641Y-81630000D02*
X100106359Y-81630000D01*
%TO.C,R2*%
X90870000Y-64413641D02*
X90870000Y-64106359D01*
X91630000Y-64413641D02*
X91630000Y-64106359D01*
%TO.C,U1*%
X109140000Y-78175000D02*
X109140000Y-81935000D01*
X109140000Y-81935000D02*
X110400000Y-81935000D01*
X115960000Y-78175000D02*
X115960000Y-81935000D01*
X115960000Y-81935000D02*
X114700000Y-81935000D01*
X116190000Y-77135000D02*
X115860000Y-76895000D01*
X116190000Y-76655000D01*
X116190000Y-77135000D01*
G36*
X116190000Y-77135000D02*
G01*
X115860000Y-76895000D01*
X116190000Y-76655000D01*
X116190000Y-77135000D01*
G37*
%TO.C,J2*%
X92800000Y-56320000D02*
X92800000Y-58980000D01*
X100480000Y-56320000D02*
X92800000Y-56320000D01*
X100480000Y-56320000D02*
X100480000Y-58980000D01*
X100480000Y-58980000D02*
X92800000Y-58980000D01*
X101750000Y-56320000D02*
X103080000Y-56320000D01*
X103080000Y-56320000D02*
X103080000Y-57650000D01*
%TO.C,C12*%
X94940000Y-70157836D02*
X94940000Y-69942164D01*
X95660000Y-70157836D02*
X95660000Y-69942164D01*
%TO.C,U2*%
X99140000Y-68640000D02*
X99140000Y-69090000D01*
X99140000Y-75860000D02*
X99140000Y-75410000D01*
X99590000Y-68640000D02*
X99140000Y-68640000D01*
X99590000Y-75860000D02*
X99140000Y-75860000D01*
X105910000Y-68640000D02*
X106360000Y-68640000D01*
X105910000Y-75860000D02*
X106360000Y-75860000D01*
X106360000Y-68640000D02*
X106360000Y-69090000D01*
X106360000Y-75860000D02*
X106360000Y-75410000D01*
X98550000Y-69090000D02*
X98210000Y-68620000D01*
X98890000Y-68620000D01*
X98550000Y-69090000D01*
G36*
X98550000Y-69090000D02*
G01*
X98210000Y-68620000D01*
X98890000Y-68620000D01*
X98550000Y-69090000D01*
G37*
%TO.C,C5*%
X105852836Y-77840000D02*
X105637164Y-77840000D01*
X105852836Y-78560000D02*
X105637164Y-78560000D01*
%TO.C,C8*%
X96540000Y-73407836D02*
X96540000Y-73192164D01*
X97260000Y-73407836D02*
X97260000Y-73192164D01*
%TO.C,C2*%
X116815000Y-79386252D02*
X116815000Y-78863748D01*
X118285000Y-79386252D02*
X118285000Y-78863748D01*
%TO.C,C4*%
X96440000Y-69127836D02*
X96440000Y-68912164D01*
X97160000Y-69127836D02*
X97160000Y-68912164D01*
%TO.C,C6*%
X108390000Y-69662164D02*
X108390000Y-69877836D01*
X109110000Y-69662164D02*
X109110000Y-69877836D01*
%TO.C,C1*%
X112438748Y-73490000D02*
X112961252Y-73490000D01*
X112438748Y-74960000D02*
X112961252Y-74960000D01*
%TO.C,R1*%
X121356359Y-76120000D02*
X121663641Y-76120000D01*
X121356359Y-76880000D02*
X121663641Y-76880000D01*
D12*
%TO.C,J1*%
X118975000Y-72000000D02*
X118975000Y-72725000D01*
X118975000Y-72725000D02*
X119400000Y-72725000D01*
X119400000Y-69125000D02*
X119400000Y-68125000D01*
X119400000Y-72725000D02*
X119400000Y-73725000D01*
X121150000Y-75075000D02*
X122550000Y-75075000D01*
X122550000Y-66775000D02*
X121150000Y-66775000D01*
X124950000Y-75075000D02*
X125100000Y-75075000D01*
X125100000Y-66775000D02*
X124950000Y-66775000D01*
X125100000Y-67075000D02*
X125100000Y-66775000D01*
X125100000Y-74775000D02*
X125550000Y-74775000D01*
X125100000Y-75075000D02*
X125100000Y-74775000D01*
X125550000Y-67075000D02*
X125100000Y-67075000D01*
D13*
%TO.C,Y1*%
X91150000Y-68900000D02*
X91150000Y-72900000D01*
X94450000Y-68900000D02*
X91150000Y-68900000D01*
%TO.C,FB1*%
X97115000Y-77399721D02*
X97115000Y-77725279D01*
X98135000Y-77399721D02*
X98135000Y-77725279D01*
%TO.C,C11*%
X100112164Y-78390000D02*
X100327836Y-78390000D01*
X100112164Y-79110000D02*
X100327836Y-79110000D01*
%TO.C,C9*%
X96002836Y-76415000D02*
X95787164Y-76415000D01*
X96002836Y-77135000D02*
X95787164Y-77135000D01*
%TO.C,J4*%
X97050000Y-85330000D02*
X97050000Y-84000000D01*
X98380000Y-85330000D02*
X97050000Y-85330000D01*
X99650000Y-82670000D02*
X107330000Y-82670000D01*
X99650000Y-85330000D02*
X99650000Y-82670000D01*
X99650000Y-85330000D02*
X107330000Y-85330000D01*
X107330000Y-85330000D02*
X107330000Y-82670000D01*
%TO.C,J3*%
X108090000Y-56420000D02*
X108090000Y-59080000D01*
X115770000Y-56420000D02*
X108090000Y-56420000D01*
X115770000Y-56420000D02*
X115770000Y-59080000D01*
X115770000Y-59080000D02*
X108090000Y-59080000D01*
X117040000Y-56420000D02*
X118370000Y-56420000D01*
X118370000Y-56420000D02*
X118370000Y-57750000D01*
%TO.C,R5*%
X103161359Y-80895000D02*
X103468641Y-80895000D01*
X103161359Y-81655000D02*
X103468641Y-81655000D01*
%TO.C,D1*%
X120265000Y-77815000D02*
X120265000Y-80100000D01*
X121735000Y-77815000D02*
X120265000Y-77815000D01*
X121735000Y-80100000D02*
X121735000Y-77815000D01*
%TO.C,C7*%
X100162164Y-65890000D02*
X100377836Y-65890000D01*
X100162164Y-66610000D02*
X100377836Y-66610000D01*
%TO.C,C10*%
X95977836Y-77990000D02*
X95762164Y-77990000D01*
X95977836Y-78710000D02*
X95762164Y-78710000D01*
%TO.C,R3*%
X111870000Y-70186359D02*
X111870000Y-70493641D01*
X112630000Y-70186359D02*
X112630000Y-70493641D01*
%TO.C,C13*%
X94940000Y-72117836D02*
X94940000Y-71902164D01*
X95660000Y-72117836D02*
X95660000Y-71902164D01*
%TO.C,C3*%
X100084420Y-64240000D02*
X100365580Y-64240000D01*
X100084420Y-65260000D02*
X100365580Y-65260000D01*
%TD*%
M02*
