%TF.GenerationSoftware,KiCad,Pcbnew,8.0.0*%
%TF.CreationDate,2024-04-09T16:17:44+09:00*%
%TF.ProjectId,240325_ESP32_d0146,32343033-3235-45f4-9553-5033325f6430,rev?*%
%TF.SameCoordinates,Original*%
%TF.FileFunction,Soldermask,Top*%
%TF.FilePolarity,Negative*%
%FSLAX46Y46*%
G04 Gerber Fmt 4.6, Leading zero omitted, Abs format (unit mm)*
G04 Created by KiCad (PCBNEW 8.0.0) date 2024-04-09 16:17:44*
%MOMM*%
%LPD*%
G01*
G04 APERTURE LIST*
G04 Aperture macros list*
%AMRoundRect*
0 Rectangle with rounded corners*
0 $1 Rounding radius*
0 $2 $3 $4 $5 $6 $7 $8 $9 X,Y pos of 4 corners*
0 Add a 4 corners polygon primitive as box body*
4,1,4,$2,$3,$4,$5,$6,$7,$8,$9,$2,$3,0*
0 Add four circle primitives for the rounded corners*
1,1,$1+$1,$2,$3*
1,1,$1+$1,$4,$5*
1,1,$1+$1,$6,$7*
1,1,$1+$1,$8,$9*
0 Add four rect primitives between the rounded corners*
20,1,$1+$1,$2,$3,$4,$5,0*
20,1,$1+$1,$4,$5,$6,$7,0*
20,1,$1+$1,$6,$7,$8,$9,0*
20,1,$1+$1,$8,$9,$2,$3,0*%
G04 Aperture macros list end*
%ADD10R,0.800000X1.000000*%
%ADD11C,0.900000*%
%ADD12R,1.500000X0.700000*%
%ADD13RoundRect,0.135000X0.135000X0.185000X-0.135000X0.185000X-0.135000X-0.185000X0.135000X-0.185000X0*%
%ADD14RoundRect,0.135000X0.185000X-0.135000X0.185000X0.135000X-0.185000X0.135000X-0.185000X-0.135000X0*%
%ADD15RoundRect,0.375000X-0.375000X0.625000X-0.375000X-0.625000X0.375000X-0.625000X0.375000X0.625000X0*%
%ADD16RoundRect,0.500000X-1.400000X0.500000X-1.400000X-0.500000X1.400000X-0.500000X1.400000X0.500000X0*%
%ADD17R,1.700000X1.700000*%
%ADD18O,1.700000X1.700000*%
%ADD19RoundRect,0.140000X0.170000X-0.140000X0.170000X0.140000X-0.170000X0.140000X-0.170000X-0.140000X0*%
%ADD20RoundRect,0.075000X-0.662500X-0.075000X0.662500X-0.075000X0.662500X0.075000X-0.662500X0.075000X0*%
%ADD21RoundRect,0.075000X-0.075000X-0.662500X0.075000X-0.662500X0.075000X0.662500X-0.075000X0.662500X0*%
%ADD22C,2.100000*%
%ADD23RoundRect,0.140000X0.140000X0.170000X-0.140000X0.170000X-0.140000X-0.170000X0.140000X-0.170000X0*%
%ADD24RoundRect,0.250000X0.475000X-0.250000X0.475000X0.250000X-0.475000X0.250000X-0.475000X-0.250000X0*%
%ADD25RoundRect,0.140000X-0.170000X0.140000X-0.170000X-0.140000X0.170000X-0.140000X0.170000X0.140000X0*%
%ADD26RoundRect,0.250000X-0.250000X-0.475000X0.250000X-0.475000X0.250000X0.475000X-0.250000X0.475000X0*%
%ADD27RoundRect,0.135000X-0.135000X-0.185000X0.135000X-0.185000X0.135000X0.185000X-0.135000X0.185000X0*%
%ADD28O,0.800000X0.800000*%
%ADD29R,1.300000X0.450000*%
%ADD30O,1.800000X1.150000*%
%ADD31O,2.000000X1.450000*%
%ADD32R,1.200000X1.400000*%
%ADD33RoundRect,0.218750X-0.256250X0.218750X-0.256250X-0.218750X0.256250X-0.218750X0.256250X0.218750X0*%
%ADD34RoundRect,0.140000X-0.140000X-0.170000X0.140000X-0.170000X0.140000X0.170000X-0.140000X0.170000X0*%
%ADD35RoundRect,0.135000X-0.185000X0.135000X-0.185000X-0.135000X0.185000X-0.135000X0.185000X0.135000X0*%
%ADD36RoundRect,0.225000X-0.225000X-0.250000X0.225000X-0.250000X0.225000X0.250000X-0.225000X0.250000X0*%
G04 APERTURE END LIST*
D10*
%TO.C,SW1*%
X88530000Y-61850000D03*
X86320000Y-61850000D03*
D11*
X87420000Y-64000000D03*
X87420000Y-67000000D03*
D10*
X88530000Y-69150000D03*
X86320000Y-69150000D03*
D12*
X89180000Y-63250000D03*
X89180000Y-66250000D03*
X89180000Y-67750000D03*
%TD*%
D13*
%TO.C,R4*%
X100770000Y-81250000D03*
X99750000Y-81250000D03*
%TD*%
D14*
%TO.C,R2*%
X91250000Y-64770000D03*
X91250000Y-63750000D03*
%TD*%
D15*
%TO.C,U1*%
X114850000Y-76875000D03*
X112550000Y-76875000D03*
D16*
X112550000Y-83175000D03*
D15*
X110250000Y-76875000D03*
%TD*%
D17*
%TO.C,J2*%
X101750000Y-57650000D03*
D18*
X99210000Y-57650000D03*
X96670000Y-57650000D03*
X94130000Y-57650000D03*
%TD*%
D19*
%TO.C,C12*%
X95300000Y-70530000D03*
X95300000Y-69570000D03*
%TD*%
D20*
%TO.C,U2*%
X98587500Y-69500000D03*
X98587500Y-70000000D03*
X98587500Y-70500000D03*
X98587500Y-71000000D03*
X98587500Y-71500000D03*
X98587500Y-72000000D03*
X98587500Y-72500000D03*
X98587500Y-73000000D03*
X98587500Y-73500000D03*
X98587500Y-74000000D03*
X98587500Y-74500000D03*
X98587500Y-75000000D03*
D21*
X100000000Y-76412500D03*
X100500000Y-76412500D03*
X101000000Y-76412500D03*
X101500000Y-76412500D03*
X102000000Y-76412500D03*
X102500000Y-76412500D03*
X103000000Y-76412500D03*
X103500000Y-76412500D03*
X104000000Y-76412500D03*
X104500000Y-76412500D03*
X105000000Y-76412500D03*
X105500000Y-76412500D03*
D20*
X106912500Y-75000000D03*
X106912500Y-74500000D03*
X106912500Y-74000000D03*
X106912500Y-73500000D03*
X106912500Y-73000000D03*
X106912500Y-72500000D03*
X106912500Y-72000000D03*
X106912500Y-71500000D03*
X106912500Y-71000000D03*
X106912500Y-70500000D03*
X106912500Y-70000000D03*
X106912500Y-69500000D03*
D21*
X105500000Y-68087500D03*
X105000000Y-68087500D03*
X104500000Y-68087500D03*
X104000000Y-68087500D03*
X103500000Y-68087500D03*
X103000000Y-68087500D03*
X102500000Y-68087500D03*
X102000000Y-68087500D03*
X101500000Y-68087500D03*
X101000000Y-68087500D03*
X100500000Y-68087500D03*
X100000000Y-68087500D03*
%TD*%
D22*
%TO.C,H1*%
X88250000Y-83250000D03*
%TD*%
D23*
%TO.C,C5*%
X106225000Y-78200000D03*
X105265000Y-78200000D03*
%TD*%
D19*
%TO.C,C8*%
X96900000Y-73780000D03*
X96900000Y-72820000D03*
%TD*%
D22*
%TO.C,H2*%
X123250000Y-83250000D03*
%TD*%
D24*
%TO.C,C2*%
X117550000Y-80075000D03*
X117550000Y-78175000D03*
%TD*%
D19*
%TO.C,C4*%
X96800000Y-69500000D03*
X96800000Y-68540000D03*
%TD*%
D25*
%TO.C,C6*%
X108750000Y-69290000D03*
X108750000Y-70250000D03*
%TD*%
D22*
%TO.C,H3*%
X123250000Y-58250000D03*
%TD*%
D26*
%TO.C,C1*%
X111750000Y-74225000D03*
X113650000Y-74225000D03*
%TD*%
D27*
%TO.C,R1*%
X121000000Y-76500000D03*
X122020000Y-76500000D03*
%TD*%
D28*
%TO.C,J1*%
X121000000Y-73425000D03*
X121000000Y-68425000D03*
D29*
X119900000Y-72225000D03*
X119900000Y-71575000D03*
X119900000Y-70925000D03*
X119900000Y-70275000D03*
X119900000Y-69625000D03*
D30*
X123750000Y-74800000D03*
D31*
X119950000Y-74650000D03*
X119950000Y-67200000D03*
D30*
X123750000Y-67050000D03*
%TD*%
D32*
%TO.C,Y1*%
X91950000Y-69800000D03*
X91950000Y-72000000D03*
X93650000Y-72000000D03*
X93650000Y-69800000D03*
%TD*%
D33*
%TO.C,FB1*%
X97625000Y-76775000D03*
X97625000Y-78350000D03*
%TD*%
D34*
%TO.C,C11*%
X99740000Y-78750000D03*
X100700000Y-78750000D03*
%TD*%
D23*
%TO.C,C9*%
X96375000Y-76775000D03*
X95415000Y-76775000D03*
%TD*%
D17*
%TO.C,J4*%
X98380000Y-84000000D03*
D18*
X100920000Y-84000000D03*
X103460000Y-84000000D03*
X106000000Y-84000000D03*
%TD*%
D17*
%TO.C,J3*%
X117040000Y-57750000D03*
D18*
X114500000Y-57750000D03*
X111960000Y-57750000D03*
X109420000Y-57750000D03*
%TD*%
D22*
%TO.C,H4*%
X88250000Y-58250000D03*
%TD*%
D27*
%TO.C,R5*%
X102805000Y-81275000D03*
X103825000Y-81275000D03*
%TD*%
D33*
%TO.C,D1*%
X121000000Y-78512500D03*
X121000000Y-80087500D03*
%TD*%
D34*
%TO.C,C7*%
X99790000Y-66250000D03*
X100750000Y-66250000D03*
%TD*%
D23*
%TO.C,C10*%
X96350000Y-78350000D03*
X95390000Y-78350000D03*
%TD*%
D35*
%TO.C,R3*%
X112250000Y-69830000D03*
X112250000Y-70850000D03*
%TD*%
D19*
%TO.C,C13*%
X95300000Y-72490000D03*
X95300000Y-71530000D03*
%TD*%
D36*
%TO.C,C3*%
X99450000Y-64750000D03*
X101000000Y-64750000D03*
%TD*%
M02*
