%TF.GenerationSoftware,KiCad,Pcbnew,7.0.9*%
%TF.CreationDate,2024-02-26T09:47:16+09:00*%
%TF.ProjectId,240223_d0345_uno,32343032-3233-45f6-9430-3334355f756e,rev?*%
%TF.SameCoordinates,Original*%
%TF.FileFunction,Legend,Bot*%
%TF.FilePolarity,Positive*%
%FSLAX46Y46*%
G04 Gerber Fmt 4.6, Leading zero omitted, Abs format (unit mm)*
G04 Created by KiCad (PCBNEW 7.0.9) date 2024-02-26 09:47:16*
%MOMM*%
%LPD*%
G01*
G04 APERTURE LIST*
%ADD10C,0.150000*%
%ADD11C,0.120000*%
G04 APERTURE END LIST*
D10*
X198430474Y-85903714D02*
X198430474Y-86379904D01*
X198716189Y-85808476D02*
X197716189Y-86141809D01*
X197716189Y-86141809D02*
X198716189Y-86475142D01*
X198716189Y-87332285D02*
X198716189Y-86760857D01*
X198716189Y-87046571D02*
X197716189Y-87046571D01*
X197716189Y-87046571D02*
X197859046Y-86951333D01*
X197859046Y-86951333D02*
X197954284Y-86856095D01*
X197954284Y-86856095D02*
X198001903Y-86760857D01*
D11*
%TO.C,A1*%
X153051370Y-122308000D02*
X153051370Y-115958000D01*
X164731370Y-122308000D02*
X153051370Y-122308000D01*
X184801370Y-117858000D02*
X184801370Y-115958000D01*
X193941370Y-117858000D02*
X184801370Y-117858000D01*
X143521370Y-115958000D02*
X143521370Y-51308000D01*
X153051370Y-115958000D02*
X143521370Y-115958000D01*
X164731370Y-115958000D02*
X164731370Y-122308000D01*
X184801370Y-115958000D02*
X164731370Y-115958000D01*
X193941370Y-115958000D02*
X193941370Y-117858000D01*
X197121370Y-115958000D02*
X193941370Y-115958000D01*
X143521370Y-51308000D02*
X145171370Y-49658000D01*
X145171370Y-49658000D02*
X156601370Y-49658000D01*
X156601370Y-49658000D02*
X159141370Y-47118000D01*
X194451370Y-49658000D02*
X197121370Y-49658000D01*
X197121370Y-49658000D02*
X197121370Y-115958000D01*
X159141370Y-47118000D02*
X191911370Y-47118000D01*
X191911370Y-47118000D02*
X194451370Y-49658000D01*
%TD*%
M02*
